<?xml version="1.0" encoding="utf-8"?>
<!-- Generator: Adobe Illustrator 21.1.0, SVG Export Plug-In . SVG Version: 6.00 Build 0)  -->
<svg version="1.1" id="Layer_1" xmlns="http://www.w3.org/2000/svg" xmlns:xlink="http://www.w3.org/1999/xlink" x="0px" y="0px"
	 viewBox="0 0 300 200" style="enable-background:new 0 0 300 200;" xml:space="preserve">
<style type="text/css">
	.st0{fill:#BFCDD6;}
	.st1{fill:url(#SVGID_1_);}
	.st2{fill:#4F748C;}
	.st3{fill:#FFFFFF;}
</style>
<g>
	<path class="st0" d="M273.6,200H26.4C11.8,200,0,188.2,0,173.6V26.4C0,11.8,11.8,0,26.4,0h247.2C288.2,0,300,11.8,300,26.4v147.2
		C300,188.2,288.2,200,273.6,200z"/>
	<g>
		<linearGradient id="SVGID_1_" gradientUnits="userSpaceOnUse" x1="174.371" y1="36.8253" x2="230.006" y2="217.9289">
			<stop  offset="0" style="stop-color:#6E879D"/>
			<stop  offset="0.195" style="stop-color:#778EA3"/>
			<stop  offset="0.5374" style="stop-color:#90A3B4"/>
			<stop  offset="0.984" style="stop-color:#BDCBD5"/>
			<stop  offset="1" style="stop-color:#BFCDD6"/>
		</linearGradient>
		<path class="st1" d="M300,173v-17.8L191.8,42.3l-7-3.6l-74.4,80.5l78.4,80.8h85.4C288.4,200,300,187.9,300,173z"/>
		<g>
			<circle class="st2" cx="150.1" cy="80" r="56"/>
			<g>
				<path class="st3" d="M170.5,50.7c-3.6,0-6.9,1.9-8.8,5c2.9,3,4.5,6.9,4.5,11.1c0,1.1-0.1,2.2-0.4,3.3c1.5,0.8,3.1,1.2,4.7,1.2
					c3.1,0,6-1.4,7.9-3.7c1.5-1.8,2.4-4.2,2.4-6.6C180.8,55.3,176.2,50.7,170.5,50.7z"/>
				<path class="st3" d="M150,80c7.3,0,13.3-6,13.3-13.3c0-7.3-6-13.3-13.3-13.3c-7.3,0-13.3,6-13.3,13.3
					C136.8,74.1,142.7,80,150,80z"/>
				<path class="st3" d="M129.5,50.7c-5.7,0-10.3,4.6-10.3,10.3s4.6,10.3,10.3,10.3c1.7,0,3.3-0.4,4.8-1.2c-0.2-1.1-0.4-2.2-0.4-3.3
					c0-4.1,1.6-8,4.4-11.1C136.5,52.6,133.1,50.7,129.5,50.7z"/>
				<path class="st3" d="M175.5,95h10.1c1.3,0,2.4-1.1,2.4-2.4v-8c0-5.9-2.9-11.4-7.7-14.8c-2.5,3.1-6.3,4.8-10.3,4.8
					c-2,0-3.9-0.4-5.6-1.3c-0.2,0.6-0.5,1.1-0.8,1.6C170.5,79.5,175,86.9,175.5,95z"/>
				<path class="st3" d="M129.5,110h41.2c1.3,0,2.4-1.1,2.4-2.4v-11c0-8-4-15.2-10.6-19.5c-3.1,3.8-7.6,5.9-12.4,5.9
					s-9.3-2.1-12.4-5.9c-6.7,4.3-10.6,11.6-10.6,19.5v11C127.1,108.9,128.2,110,129.5,110z"/>
				<path class="st3" d="M111.1,84.6v8c0,1.3,1.1,2.4,2.4,2.4h10.2c0.6-8.1,5-15.5,11.9-20c-0.3-0.6-0.6-1.2-0.9-1.8
					c-1.8,0.8-3.7,1.3-5.6,1.3c-3.9,0-7.6-1.7-10.1-4.8C114,73.1,111.1,78.6,111.1,84.6z"/>
			</g>
		</g>
		<g>
			<path class="st3" d="M106.8,160.1c1.3-1.2,2.9-1.8,4.8-1.8c0.7,0,1.3,0.1,1.8,0.3s1,0.5,1.4,0.9s0.6,0.9,0.8,1.4
				c0.2,0.5,0.3,1.2,0.3,1.8v7.3h-1.3c-0.3,0-0.5,0-0.6-0.1c-0.1-0.1-0.3-0.2-0.3-0.5l-0.2-0.8c-0.3,0.3-0.6,0.5-0.9,0.7
				c-0.3,0.2-0.6,0.4-0.9,0.5c-0.3,0.1-0.6,0.2-1,0.3c-0.3,0.1-0.7,0.1-1.1,0.1c-0.5,0-0.9-0.1-1.4-0.2c-0.4-0.1-0.8-0.3-1.1-0.6
				c-0.3-0.3-0.5-0.6-0.7-1c-0.2-0.4-0.2-0.8-0.2-1.4c0-0.3,0-0.6,0.1-0.9c0.1-0.3,0.3-0.6,0.5-0.8c0.2-0.3,0.5-0.5,0.9-0.7
				c0.4-0.2,0.8-0.4,1.3-0.6c0.5-0.2,1.1-0.3,1.8-0.4c0.7-0.1,1.5-0.2,2.3-0.2v-0.7c0-0.8-0.2-1.3-0.5-1.7s-0.8-0.6-1.4-0.6
				c-0.5,0-0.8,0.1-1.1,0.2s-0.6,0.2-0.8,0.4s-0.4,0.2-0.6,0.4c-0.2,0.1-0.4,0.2-0.6,0.2c-0.2,0-0.4-0.1-0.5-0.2s-0.2-0.2-0.3-0.4
				L106.8,160.1z M113.2,165.1c-0.8,0-1.5,0.1-2,0.2s-1,0.2-1.3,0.4s-0.6,0.3-0.7,0.6c-0.1,0.2-0.2,0.4-0.2,0.7c0,0.5,0.1,0.8,0.4,1
				c0.3,0.2,0.7,0.3,1.1,0.3c0.6,0,1.1-0.1,1.5-0.3c0.4-0.2,0.8-0.5,1.2-0.9V165.1z"/>
			<path class="st3" d="M121.6,159.9c0.5-0.5,1-0.9,1.6-1.2c0.6-0.3,1.2-0.4,1.9-0.4c0.7,0,1.3,0.1,1.8,0.4c0.5,0.3,1,0.6,1.4,1.1
				c0.4,0.5,0.7,1.1,0.9,1.8c0.2,0.7,0.3,1.5,0.3,2.4c0,0.9-0.1,1.8-0.4,2.6c-0.2,0.8-0.6,1.4-1,2s-1,1-1.6,1.3
				c-0.6,0.3-1.3,0.5-2,0.5c-0.4,0-0.7,0-1-0.1c-0.3-0.1-0.6-0.2-0.8-0.3c-0.2-0.1-0.5-0.3-0.7-0.5c-0.2-0.2-0.4-0.4-0.6-0.6
				l-0.1,0.8c0,0.2-0.1,0.3-0.2,0.4s-0.3,0.1-0.4,0.1h-1.8v-16.8h2.8V159.9z M121.6,167c0.3,0.4,0.7,0.7,1,0.8
				c0.4,0.2,0.8,0.2,1.2,0.2c0.4,0,0.8-0.1,1.2-0.2c0.3-0.2,0.6-0.4,0.9-0.7c0.2-0.3,0.4-0.7,0.6-1.3s0.2-1.1,0.2-1.8
				c0-1.3-0.2-2.2-0.6-2.8c-0.4-0.6-1-0.9-1.8-0.9c-0.5,0-1,0.1-1.4,0.4c-0.4,0.2-0.8,0.6-1.1,1V167z"/>
			<path class="st3" d="M137.1,158.3c0.9,0,1.6,0.1,2.3,0.4s1.3,0.7,1.8,1.2c0.5,0.5,0.9,1.1,1.2,1.9c0.3,0.7,0.4,1.6,0.4,2.5
				c0,0.9-0.1,1.7-0.4,2.5c-0.3,0.7-0.7,1.4-1.2,1.9c-0.5,0.5-1.1,0.9-1.8,1.2s-1.5,0.4-2.3,0.4c-0.9,0-1.7-0.1-2.4-0.4
				s-1.3-0.7-1.8-1.2c-0.5-0.5-0.9-1.1-1.2-1.9c-0.3-0.7-0.4-1.6-0.4-2.5c0-0.9,0.1-1.7,0.4-2.5c0.3-0.7,0.7-1.4,1.2-1.9
				s1.1-0.9,1.8-1.2S136.3,158.3,137.1,158.3z M137.1,168c1,0,1.7-0.3,2.1-1c0.5-0.6,0.7-1.6,0.7-2.8s-0.2-2.2-0.7-2.9
				c-0.5-0.7-1.2-1-2.1-1c-1,0-1.7,0.3-2.2,1c-0.5,0.7-0.7,1.6-0.7,2.8c0,1.2,0.2,2.2,0.7,2.8C135.4,167.7,136.1,168,137.1,168z"/>
			<path class="st3" d="M155.3,158.4V170h-1.7c-0.4,0-0.6-0.2-0.7-0.5l-0.2-0.9c-0.5,0.5-1,0.9-1.6,1.2c-0.6,0.3-1.2,0.4-2,0.4
				c-0.6,0-1.2-0.1-1.7-0.3c-0.5-0.2-0.9-0.5-1.2-0.9c-0.3-0.4-0.6-0.9-0.8-1.4c-0.2-0.5-0.3-1.1-0.3-1.8v-7.4h2.8v7.4
				c0,0.7,0.2,1.3,0.5,1.6c0.3,0.4,0.8,0.6,1.5,0.6c0.5,0,0.9-0.1,1.4-0.3c0.4-0.2,0.8-0.5,1.2-0.9v-8.4H155.3z"/>
			<path class="st3" d="M162.2,170.2c-1,0-1.8-0.3-2.3-0.9c-0.5-0.6-0.8-1.4-0.8-2.4v-6.5h-1.2c-0.2,0-0.3,0-0.4-0.1
				s-0.2-0.2-0.2-0.4v-1.1l1.9-0.3l0.6-3.2c0-0.2,0.1-0.3,0.2-0.3c0.1-0.1,0.2-0.1,0.4-0.1h1.4v3.6h3.1v2h-3.1v6.3
				c0,0.4,0.1,0.6,0.3,0.8c0.2,0.2,0.4,0.3,0.7,0.3c0.2,0,0.3,0,0.4-0.1c0.1,0,0.2-0.1,0.3-0.1c0.1,0,0.2-0.1,0.2-0.1
				c0.1,0,0.1-0.1,0.2-0.1c0.1,0,0.2,0,0.2,0.1c0.1,0,0.1,0.1,0.2,0.2l0.8,1.4c-0.4,0.3-0.9,0.6-1.4,0.8S162.8,170.2,162.2,170.2z"
				/>
			<path class="st3" d="M182.9,158.4V170h-1.7c-0.4,0-0.6-0.2-0.7-0.5l-0.2-0.9c-0.5,0.5-1,0.9-1.6,1.2c-0.6,0.3-1.2,0.4-2,0.4
				c-0.6,0-1.2-0.1-1.7-0.3c-0.5-0.2-0.9-0.5-1.2-0.9c-0.3-0.4-0.6-0.9-0.8-1.4c-0.2-0.5-0.3-1.1-0.3-1.8v-7.4h2.8v7.4
				c0,0.7,0.2,1.3,0.5,1.6c0.3,0.4,0.8,0.6,1.5,0.6c0.5,0,0.9-0.1,1.4-0.3c0.4-0.2,0.8-0.5,1.2-0.9v-8.4H182.9z"/>
			<path class="st3" d="M193,160.7c-0.1,0.1-0.2,0.2-0.2,0.3c-0.1,0-0.2,0.1-0.3,0.1c-0.1,0-0.3,0-0.4-0.1s-0.3-0.2-0.5-0.3
				s-0.4-0.2-0.7-0.3s-0.6-0.1-0.9-0.1c-0.5,0-1,0.1-1.3,0.3s-0.5,0.5-0.5,0.9c0,0.2,0.1,0.5,0.2,0.6c0.2,0.2,0.4,0.3,0.6,0.4
				c0.3,0.1,0.6,0.2,0.9,0.3c0.3,0.1,0.7,0.2,1,0.3s0.7,0.3,1,0.4c0.3,0.2,0.6,0.3,0.9,0.6c0.3,0.2,0.5,0.5,0.6,0.9s0.2,0.7,0.2,1.2
				c0,0.6-0.1,1.1-0.3,1.5s-0.5,0.9-0.9,1.2c-0.4,0.3-0.9,0.6-1.5,0.8c-0.6,0.2-1.2,0.3-2,0.3c-0.4,0-0.8,0-1.2-0.1
				s-0.7-0.2-1.1-0.3s-0.7-0.3-1-0.5c-0.3-0.2-0.6-0.4-0.8-0.6l0.6-1.1c0.1-0.1,0.2-0.2,0.3-0.3c0.1-0.1,0.3-0.1,0.4-0.1
				c0.2,0,0.3,0,0.5,0.1s0.3,0.2,0.5,0.3c0.2,0.1,0.4,0.2,0.7,0.3c0.3,0.1,0.6,0.1,1,0.1c0.3,0,0.6,0,0.9-0.1
				c0.2-0.1,0.4-0.2,0.6-0.3s0.3-0.3,0.3-0.4c0.1-0.2,0.1-0.3,0.1-0.5c0-0.3-0.1-0.5-0.2-0.7c-0.2-0.2-0.4-0.3-0.6-0.5
				c-0.3-0.1-0.6-0.2-0.9-0.3s-0.7-0.2-1-0.3s-0.7-0.3-1-0.4c-0.3-0.2-0.6-0.4-0.9-0.6s-0.5-0.6-0.6-0.9c-0.2-0.4-0.2-0.8-0.2-1.3
				c0-0.5,0.1-0.9,0.3-1.4c0.2-0.4,0.5-0.8,0.8-1.1c0.4-0.3,0.8-0.6,1.4-0.8c0.5-0.2,1.2-0.3,1.9-0.3c0.8,0,1.5,0.1,2.2,0.4
				s1.2,0.6,1.6,1L193,160.7z"/>
		</g>
	</g>
</g>
<g>
</g>
<g>
</g>
<g>
</g>
<g>
</g>
<g>
</g>
<g>
</g>
</svg>
