<?xml version="1.0" encoding="utf-8"?>
<!-- Generator: Adobe Illustrator 21.1.0, SVG Export Plug-In . SVG Version: 6.00 Build 0)  -->
<svg version="1.1" id="Layer_1" xmlns="http://www.w3.org/2000/svg" xmlns:xlink="http://www.w3.org/1999/xlink" x="0px" y="0px"
	 viewBox="0 0 350 100" style="enable-background:new 0 0 350 100;" xml:space="preserve">
<style type="text/css">
	.st0{fill:url(#SVGID_1_);}
	.st1{fill:#FFFFFF;}
</style>
<g>
	<linearGradient id="SVGID_1_" gradientUnits="userSpaceOnUse" x1="234.1406" y1="100.042" x2="8.0843" y2="-91.2364">
		<stop  offset="0" style="stop-color:#7290A3"/>
		<stop  offset="0.2185" style="stop-color:#7D99AA"/>
		<stop  offset="0.602" style="stop-color:#9AB0BE"/>
		<stop  offset="1" style="stop-color:#BFCDD6"/>
	</linearGradient>
	<path class="st0" d="M336,100H14c-7.8,0-14-6.3-14-14V14C0,6.3,6.3,0,14,0H336c7.8,0,14,6.3,14,14V86C350,93.7,343.7,100,336,100z"
		/>
	<g>
		<g>
			<path class="st1" d="M80.1,47.2c0.7-0.7,1.5-1.3,2.3-1.8c0.9-0.4,1.8-0.7,2.9-0.7c1,0,1.9,0.2,2.7,0.6c0.8,0.4,1.5,1,2.1,1.7
				s1,1.6,1.3,2.7c0.3,1.1,0.5,2.2,0.5,3.6c0,1.4-0.2,2.7-0.5,3.9c-0.4,1.2-0.9,2.2-1.5,3c-0.7,0.8-1.4,1.5-2.4,1.9
				c-0.9,0.5-1.9,0.7-3.1,0.7c-0.5,0-1-0.1-1.5-0.2c-0.4-0.1-0.9-0.3-1.2-0.5c-0.4-0.2-0.7-0.4-1-0.7c-0.3-0.3-0.6-0.6-0.9-0.9
				l-0.2,1.2c-0.1,0.3-0.2,0.5-0.3,0.6c-0.2,0.1-0.4,0.2-0.7,0.2h-2.8V37.2h4.2V47.2z M80.1,58c0.5,0.6,1,1,1.6,1.2
				c0.6,0.2,1.2,0.4,1.8,0.4c0.6,0,1.2-0.1,1.7-0.3c0.5-0.2,1-0.6,1.3-1.1c0.4-0.5,0.6-1.1,0.8-1.9c0.2-0.8,0.3-1.7,0.3-2.8
				c0-1.9-0.3-3.3-1-4.2C86,48.5,85.1,48,83.9,48c-0.8,0-1.5,0.2-2.1,0.6c-0.6,0.4-1.2,0.9-1.7,1.6V58z"/>
			<path class="st1" d="M99.5,48.1c0.5-1,1.2-1.9,1.9-2.5c0.8-0.6,1.6-0.9,2.7-0.9c0.8,0,1.5,0.2,1.9,0.5l-0.3,3.2
				c-0.1,0.2-0.1,0.3-0.2,0.4c-0.1,0.1-0.3,0.1-0.4,0.1c-0.2,0-0.4,0-0.8-0.1c-0.3-0.1-0.7-0.1-1-0.1c-0.5,0-0.9,0.1-1.2,0.2
				c-0.4,0.1-0.7,0.3-1,0.6c-0.3,0.3-0.5,0.6-0.8,0.9c-0.2,0.4-0.4,0.8-0.6,1.2v10.8h-4.2V45H98c0.4,0,0.7,0.1,0.9,0.2
				c0.2,0.2,0.3,0.4,0.3,0.8L99.5,48.1z"/>
			<path class="st1" d="M115.8,44.8c1.3,0,2.5,0.2,3.5,0.6c1.1,0.4,2,1,2.7,1.8c0.8,0.8,1.3,1.7,1.7,2.8s0.6,2.4,0.6,3.7
				c0,1.4-0.2,2.6-0.6,3.8s-1,2.1-1.7,2.8c-0.8,0.8-1.7,1.4-2.7,1.8c-1.1,0.4-2.2,0.6-3.5,0.6c-1.3,0-2.5-0.2-3.6-0.6
				c-1.1-0.4-2-1-2.7-1.8c-0.8-0.8-1.3-1.7-1.8-2.8s-0.6-2.4-0.6-3.8c0-1.4,0.2-2.6,0.6-3.7s1-2.1,1.8-2.8c0.8-0.8,1.7-1.4,2.7-1.8
				C113.4,45,114.5,44.8,115.8,44.8z M115.8,59.5c1.5,0,2.5-0.5,3.2-1.5c0.7-1,1-2.4,1-4.3c0-1.9-0.3-3.3-1-4.3
				c-0.7-1-1.8-1.5-3.2-1.5c-1.5,0-2.6,0.5-3.3,1.5c-0.7,1-1.1,2.4-1.1,4.3c0,1.9,0.4,3.3,1.1,4.3C113.3,59.1,114.4,59.5,115.8,59.5
				z"/>
			<path class="st1" d="M152.7,45l-5.6,17.5h-3.4c-0.4,0-0.7-0.2-0.8-0.8l-3.1-10.1c-0.1-0.3-0.2-0.7-0.3-1c-0.1-0.3-0.2-0.7-0.2-1
				c-0.1,0.3-0.1,0.7-0.2,1c-0.1,0.3-0.2,0.7-0.3,1l-3.2,10.1c-0.1,0.5-0.4,0.8-0.9,0.8h-3.2L126,45h3.4c0.3,0,0.6,0.1,0.8,0.2
				c0.2,0.1,0.4,0.3,0.4,0.6l2.5,9.3c0.1,0.5,0.2,1,0.3,1.5c0.1,0.5,0.2,1,0.2,1.5c0.1-0.5,0.3-1,0.4-1.5c0.1-0.5,0.3-1,0.5-1.5
				l2.9-9.4c0.1-0.2,0.2-0.4,0.4-0.6c0.2-0.1,0.4-0.2,0.7-0.2h1.9c0.3,0,0.5,0.1,0.8,0.2c0.2,0.1,0.3,0.3,0.4,0.6l2.8,9.4
				c0.1,0.5,0.3,1,0.4,1.5c0.1,0.5,0.3,1,0.4,1.5c0.1-1,0.4-2,0.6-3l2.6-9.3c0.1-0.2,0.2-0.4,0.4-0.6c0.2-0.1,0.4-0.2,0.7-0.2H152.7
				z"/>
			<path class="st1" d="M165.9,48.4c-0.1,0.2-0.2,0.3-0.4,0.4c-0.1,0.1-0.3,0.1-0.5,0.1c-0.2,0-0.4-0.1-0.7-0.2
				c-0.2-0.1-0.5-0.2-0.8-0.4c-0.3-0.1-0.7-0.3-1-0.4c-0.4-0.1-0.9-0.2-1.4-0.2c-0.8,0-1.5,0.2-2,0.5c-0.5,0.4-0.7,0.8-0.7,1.4
				c0,0.4,0.1,0.7,0.4,0.9c0.2,0.3,0.6,0.5,1,0.7c0.4,0.2,0.9,0.4,1.4,0.5c0.5,0.2,1,0.3,1.6,0.5c0.5,0.2,1,0.4,1.6,0.6
				s1,0.5,1.4,0.9c0.4,0.4,0.7,0.8,1,1.3c0.2,0.5,0.4,1.1,0.4,1.8c0,0.8-0.2,1.6-0.5,2.3c-0.3,0.7-0.7,1.3-1.3,1.8
				c-0.6,0.5-1.3,0.9-2.2,1.2c-0.9,0.3-1.9,0.4-3,0.4c-0.6,0-1.2-0.1-1.8-0.2c-0.6-0.1-1.1-0.3-1.7-0.5c-0.5-0.2-1-0.4-1.5-0.7
				c-0.4-0.3-0.8-0.5-1.2-0.9l1-1.6c0.1-0.2,0.3-0.3,0.4-0.4c0.2-0.1,0.4-0.2,0.6-0.2c0.3,0,0.5,0.1,0.7,0.2
				c0.2,0.1,0.5,0.3,0.8,0.5c0.3,0.2,0.7,0.3,1.1,0.5c0.4,0.1,0.9,0.2,1.6,0.2c0.5,0,0.9-0.1,1.3-0.2c0.4-0.1,0.7-0.3,0.9-0.5
				c0.2-0.2,0.4-0.4,0.5-0.7c0.1-0.3,0.2-0.5,0.2-0.8c0-0.4-0.1-0.7-0.4-1s-0.6-0.5-1-0.7c-0.4-0.2-0.9-0.4-1.4-0.5
				c-0.5-0.2-1-0.3-1.6-0.5c-0.5-0.2-1.1-0.4-1.6-0.6c-0.5-0.2-1-0.6-1.4-0.9c-0.4-0.4-0.7-0.8-1-1.4c-0.2-0.5-0.4-1.2-0.4-2
				c0-0.7,0.1-1.4,0.4-2c0.3-0.6,0.7-1.2,1.3-1.7c0.6-0.5,1.2-0.9,2.1-1.2c0.8-0.3,1.8-0.4,2.9-0.4c1.2,0,2.3,0.2,3.3,0.6
				c1,0.4,1.8,0.9,2.5,1.6L165.9,48.4z"/>
			<path class="st1" d="M173.8,54.3c0.1,0.9,0.2,1.7,0.5,2.3c0.2,0.7,0.6,1.2,1,1.6c0.4,0.4,0.9,0.7,1.5,1c0.6,0.2,1.2,0.3,1.9,0.3
				s1.3-0.1,1.8-0.2c0.5-0.2,0.9-0.3,1.3-0.5c0.4-0.2,0.7-0.4,1-0.5c0.3-0.2,0.5-0.2,0.8-0.2c0.4,0,0.6,0.1,0.8,0.4l1.2,1.5
				c-0.5,0.5-1,1-1.6,1.4c-0.6,0.4-1.2,0.7-1.8,0.9c-0.6,0.2-1.3,0.4-1.9,0.5c-0.7,0.1-1.3,0.1-1.9,0.1c-1.2,0-2.3-0.2-3.4-0.6
				c-1-0.4-2-1-2.7-1.8c-0.8-0.8-1.4-1.8-1.8-2.9c-0.4-1.2-0.7-2.5-0.7-4c0-1.2,0.2-2.3,0.6-3.4c0.4-1.1,0.9-2,1.7-2.7
				c0.7-0.8,1.6-1.4,2.6-1.8c1-0.5,2.2-0.7,3.5-0.7c1.1,0,2.1,0.2,3.1,0.5c0.9,0.4,1.7,0.9,2.4,1.5c0.7,0.7,1.2,1.5,1.6,2.5
				c0.4,1,0.6,2.1,0.6,3.4c0,0.6-0.1,1.1-0.2,1.3c-0.1,0.2-0.4,0.3-0.8,0.3H173.8z M181.9,51.8c0-0.5-0.1-1.1-0.2-1.5
				c-0.2-0.5-0.4-0.9-0.7-1.3c-0.3-0.4-0.7-0.7-1.2-0.9c-0.5-0.2-1-0.3-1.6-0.3c-1.2,0-2.2,0.3-2.9,1c-0.7,0.7-1.1,1.7-1.3,2.9
				H181.9z"/>
			<path class="st1" d="M203.6,62.8c-1.5,0-2.7-0.4-3.5-1.3c-0.8-0.9-1.2-2-1.2-3.6v-9.8h-1.8c-0.2,0-0.4-0.1-0.6-0.2
				c-0.2-0.1-0.2-0.4-0.2-0.7v-1.7l2.8-0.5l0.9-4.8c0.1-0.2,0.2-0.4,0.3-0.5c0.2-0.1,0.4-0.2,0.6-0.2h2.2v5.5h4.7v3h-4.7v9.5
				c0,0.5,0.1,1,0.4,1.3c0.3,0.3,0.6,0.5,1.1,0.5c0.3,0,0.5,0,0.7-0.1c0.2-0.1,0.3-0.1,0.5-0.2c0.1-0.1,0.2-0.1,0.3-0.2
				c0.1-0.1,0.2-0.1,0.3-0.1c0.1,0,0.2,0,0.3,0.1c0.1,0.1,0.2,0.2,0.3,0.3l1.3,2c-0.6,0.5-1.3,0.9-2.1,1.2
				C205.3,62.7,204.4,62.8,203.6,62.8z"/>
			<path class="st1" d="M210.4,47.5c2-1.8,4.4-2.8,7.3-2.8c1,0,1.9,0.2,2.7,0.5c0.8,0.3,1.5,0.8,2,1.4c0.6,0.6,1,1.3,1.3,2.1
				c0.3,0.8,0.4,1.7,0.4,2.7v11h-1.9c-0.4,0-0.7-0.1-0.9-0.2c-0.2-0.1-0.4-0.4-0.5-0.7l-0.4-1.3c-0.4,0.4-0.9,0.7-1.3,1
				c-0.4,0.3-0.9,0.6-1.3,0.8c-0.5,0.2-0.9,0.4-1.5,0.5c-0.5,0.1-1.1,0.2-1.7,0.2c-0.7,0-1.4-0.1-2-0.3c-0.6-0.2-1.2-0.5-1.6-0.9
				c-0.5-0.4-0.8-0.9-1.1-1.5c-0.2-0.6-0.4-1.3-0.4-2.1c0-0.4,0.1-0.9,0.2-1.3c0.1-0.4,0.4-0.9,0.7-1.3c0.3-0.4,0.8-0.8,1.3-1.1
				c0.5-0.4,1.2-0.7,2-0.9s1.7-0.5,2.7-0.6c1-0.2,2.2-0.3,3.5-0.3v-1c0-1.2-0.3-2-0.8-2.6c-0.5-0.6-1.2-0.8-2.2-0.8
				c-0.7,0-1.2,0.1-1.7,0.2c-0.4,0.2-0.8,0.3-1.2,0.5c-0.3,0.2-0.7,0.4-0.9,0.5c-0.3,0.2-0.6,0.2-0.9,0.2c-0.3,0-0.5-0.1-0.8-0.2
				c-0.2-0.2-0.4-0.3-0.5-0.5L210.4,47.5z M220,55.1c-1.2,0.1-2.2,0.2-3.1,0.3c-0.8,0.2-1.5,0.3-2,0.6c-0.5,0.2-0.9,0.5-1.1,0.8
				c-0.2,0.3-0.3,0.7-0.3,1c0,0.7,0.2,1.3,0.7,1.6c0.4,0.3,1,0.5,1.7,0.5c0.9,0,1.6-0.2,2.2-0.5c0.6-0.3,1.2-0.8,1.9-1.4V55.1z"/>
			<path class="st1" d="M239.1,48.4c-0.1,0.2-0.2,0.3-0.4,0.4c-0.1,0.1-0.3,0.1-0.5,0.1c-0.2,0-0.4-0.1-0.7-0.2
				c-0.2-0.1-0.5-0.2-0.8-0.4c-0.3-0.1-0.7-0.3-1-0.4c-0.4-0.1-0.9-0.2-1.4-0.2c-0.8,0-1.5,0.2-2,0.5c-0.5,0.4-0.7,0.8-0.7,1.4
				c0,0.4,0.1,0.7,0.4,0.9c0.2,0.3,0.6,0.5,1,0.7c0.4,0.2,0.9,0.4,1.4,0.5c0.5,0.2,1,0.3,1.6,0.5c0.5,0.2,1,0.4,1.6,0.6
				c0.5,0.2,1,0.5,1.4,0.9c0.4,0.4,0.7,0.8,1,1.3c0.2,0.5,0.4,1.1,0.4,1.8c0,0.8-0.2,1.6-0.5,2.3s-0.7,1.3-1.3,1.8
				c-0.6,0.5-1.3,0.9-2.2,1.2c-0.9,0.3-1.9,0.4-3,0.4c-0.6,0-1.2-0.1-1.8-0.2c-0.6-0.1-1.1-0.3-1.7-0.5c-0.5-0.2-1-0.4-1.5-0.7
				c-0.4-0.3-0.8-0.5-1.2-0.9l1-1.6c0.1-0.2,0.3-0.3,0.4-0.4c0.2-0.1,0.4-0.2,0.6-0.2c0.3,0,0.5,0.1,0.7,0.2s0.5,0.3,0.8,0.5
				c0.3,0.2,0.7,0.3,1.1,0.5c0.4,0.1,0.9,0.2,1.6,0.2c0.5,0,0.9-0.1,1.3-0.2c0.4-0.1,0.7-0.3,0.9-0.5c0.2-0.2,0.4-0.4,0.5-0.7
				c0.1-0.3,0.2-0.5,0.2-0.8c0-0.4-0.1-0.7-0.4-1c-0.2-0.3-0.6-0.5-1-0.7c-0.4-0.2-0.9-0.4-1.4-0.5c-0.5-0.2-1-0.3-1.6-0.5
				c-0.5-0.2-1.1-0.4-1.6-0.6c-0.5-0.2-1-0.6-1.4-0.9c-0.4-0.4-0.7-0.8-1-1.4c-0.2-0.5-0.4-1.2-0.4-2c0-0.7,0.1-1.4,0.4-2
				c0.3-0.6,0.7-1.2,1.3-1.7c0.6-0.5,1.2-0.9,2.1-1.2c0.8-0.3,1.8-0.4,2.9-0.4c1.2,0,2.3,0.2,3.3,0.6c1,0.4,1.8,0.9,2.5,1.6
				L239.1,48.4z"/>
			<path class="st1" d="M248,37.2v14.5h0.8c0.3,0,0.5,0,0.7-0.1c0.2-0.1,0.3-0.2,0.5-0.5l4.3-5.4c0.2-0.2,0.4-0.4,0.6-0.5
				c0.2-0.1,0.5-0.2,0.9-0.2h3.9l-5.4,6.5c-0.4,0.5-0.8,0.9-1.3,1.2c0.2,0.2,0.5,0.4,0.6,0.6c0.2,0.2,0.4,0.5,0.5,0.7l5.8,8.5h-3.8
				c-0.3,0-0.6-0.1-0.9-0.2c-0.2-0.1-0.4-0.3-0.6-0.6l-4.5-6.6c-0.2-0.3-0.3-0.4-0.5-0.5c-0.2-0.1-0.4-0.1-0.8-0.1h-1v8h-4.2V37.2
				H248z"/>
			<path class="st1" d="M273,48.4c-0.1,0.2-0.2,0.3-0.4,0.4c-0.1,0.1-0.3,0.1-0.5,0.1c-0.2,0-0.4-0.1-0.7-0.2
				c-0.2-0.1-0.5-0.2-0.8-0.4c-0.3-0.1-0.7-0.3-1-0.4c-0.4-0.1-0.9-0.2-1.4-0.2c-0.8,0-1.5,0.2-2,0.5c-0.5,0.4-0.7,0.8-0.7,1.4
				c0,0.4,0.1,0.7,0.4,0.9c0.2,0.3,0.6,0.5,1,0.7c0.4,0.2,0.9,0.4,1.4,0.5c0.5,0.2,1,0.3,1.6,0.5c0.5,0.2,1,0.4,1.6,0.6
				c0.5,0.2,1,0.5,1.4,0.9c0.4,0.4,0.7,0.8,1,1.3c0.2,0.5,0.4,1.1,0.4,1.8c0,0.8-0.2,1.6-0.5,2.3s-0.7,1.3-1.3,1.8
				c-0.6,0.5-1.3,0.9-2.2,1.2c-0.9,0.3-1.9,0.4-3,0.4c-0.6,0-1.2-0.1-1.8-0.2c-0.6-0.1-1.1-0.3-1.7-0.5c-0.5-0.2-1-0.4-1.5-0.7
				c-0.4-0.3-0.8-0.5-1.2-0.9l1-1.6c0.1-0.2,0.3-0.3,0.4-0.4c0.2-0.1,0.4-0.2,0.6-0.2s0.5,0.1,0.7,0.2s0.5,0.3,0.8,0.5
				c0.3,0.2,0.7,0.3,1.1,0.5c0.4,0.1,0.9,0.2,1.6,0.2c0.5,0,0.9-0.1,1.3-0.2c0.4-0.1,0.7-0.3,0.9-0.5c0.2-0.2,0.4-0.4,0.5-0.7
				c0.1-0.3,0.2-0.5,0.2-0.8c0-0.4-0.1-0.7-0.4-1s-0.6-0.5-1-0.7c-0.4-0.2-0.9-0.4-1.4-0.5c-0.5-0.2-1-0.3-1.6-0.5
				c-0.5-0.2-1.1-0.4-1.6-0.6c-0.5-0.2-1-0.6-1.4-0.9c-0.4-0.4-0.7-0.8-1-1.4c-0.2-0.5-0.4-1.2-0.4-2c0-0.7,0.1-1.4,0.4-2
				c0.3-0.6,0.7-1.2,1.3-1.7c0.6-0.5,1.2-0.9,2.1-1.2c0.8-0.3,1.8-0.4,2.9-0.4c1.2,0,2.3,0.2,3.3,0.6c1,0.4,1.8,0.9,2.5,1.6
				L273,48.4z"/>
		</g>
	</g>
</g>
<g>
</g>
<g>
</g>
<g>
</g>
<g>
</g>
<g>
</g>
<g>
</g>
</svg>
