<?xml version="1.0" encoding="utf-8"?>
<!-- Generator: Adobe Illustrator 21.1.0, SVG Export Plug-In . SVG Version: 6.00 Build 0)  -->
<svg version="1.1" id="Layer_1" xmlns="http://www.w3.org/2000/svg" xmlns:xlink="http://www.w3.org/1999/xlink" x="0px" y="0px"
	 viewBox="0 0 130 130" style="enable-background:new 0 0 130 130;" xml:space="preserve">
<style type="text/css">
	.st0{fill:#BFCDD6;}
	.st1{fill:url(#SVGID_1_);}
	.st2{fill:#FFFFFF;}
	.st3{fill:#E9B8A8;}
	.st4{fill:#4F758D;}
</style>
<g>
	<circle class="st0" cx="65" cy="65" r="65"/>
	<linearGradient id="SVGID_1_" gradientUnits="userSpaceOnUse" x1="40.0452" y1="52.2253" x2="104.863" y2="117.0431">
		<stop  offset="0" style="stop-color:#6A889D"/>
		<stop  offset="0.1809" style="stop-color:#738EA2"/>
		<stop  offset="0.4985" style="stop-color:#8BA0B2"/>
		<stop  offset="0.9128" style="stop-color:#B5C4CF"/>
		<stop  offset="1" style="stop-color:#BFCDD6"/>
	</linearGradient>
	<path class="st1" d="M127.5,82.7l-59-59l-3.4,8.4l-1,2.4l-3,15.5l-20.6,9.4l5,18.8L26.8,96l33.8,33.8c1.4,0.1,2.9,0.2,4.4,0.2
		C94.8,130,119.8,110,127.5,82.7z"/>
	<path class="st2" d="M90.1,58.1c-11.7-3.8-21.4-18.8-24.3-23.6c-0.2,0-0.5,0-0.7,0c-0.3,0-0.7,0-1-0.1
		c-2.8,4.8-12.5,19.8-24.3,23.7C39.9,78.9,26.8,96,26.8,96S65,80.6,65,68.2C65,80.6,103.2,96,103.2,96S90.1,78.9,90.1,58.1z"/>
	<path class="st3" d="M70,27.2c0-0.4,0-0.7-0.1-1c-0.2-0.9-0.7-1.8-1.4-2.4c-0.9-0.9-2.1-1.4-3.4-1.4c-1.3,0-2.5,0.5-3.4,1.4
		c-0.7,0.7-1.1,1.5-1.4,2.4c-0.1,0.3-0.1,0.7-0.1,1c0,2.7,2.2,4.9,4.9,4.9C67.8,32.1,70,29.9,70,27.2z"/>
	<path class="st4" d="M71.1,66.1c2.5-0.1,4.5-2.2,4.6-4.7c-3.2,0.2-6.5,0.4-9.7,0.4C66.3,64.4,68.6,66.3,71.1,66.1z"/>
	<path class="st4" d="M78.2,61.2c0.5,2.4,2.8,4,5.2,3.8c2.5-0.3,4.4-2.4,4.4-4.9C84.8,60.5,81.5,60.9,78.2,61.2z"/>
	<path class="st4" d="M58.9,66.1c2.6,0.1,4.8-1.7,5.1-4.2c-3.2,0-6.5-0.2-9.7-0.4C54.4,63.9,56.3,66,58.9,66.1z"/>
	<path class="st4" d="M46.5,65c2.5,0.3,4.7-1.4,5.2-3.8c-3.3-0.3-6.5-0.7-9.6-1.1C42.1,62.6,44,64.8,46.5,65z"/>
</g>
<g>
</g>
<g>
</g>
<g>
</g>
<g>
</g>
<g>
</g>
<g>
</g>
</svg>
