<?xml version="1.0" encoding="utf-8"?>
<!-- Generator: Adobe Illustrator 21.1.0, SVG Export Plug-In . SVG Version: 6.00 Build 0)  -->
<svg version="1.1" id="Layer_1" xmlns="http://www.w3.org/2000/svg" xmlns:xlink="http://www.w3.org/1999/xlink" x="0px" y="0px"
	 viewBox="0 0 130 130" style="enable-background:new 0 0 130 130;" xml:space="preserve">
<style type="text/css">
	.st0{fill:#4F748C;}
	.st1{fill:url(#SVGID_1_);}
	.st2{fill:#FFFFFF;}
	.st3{fill:#E9B8A8;}
</style>
<g>
	<circle class="st0" cx="65" cy="65" r="65"/>
	
		<linearGradient id="SVGID_1_" gradientUnits="userSpaceOnUse" x1="43.1321" y1="85.5049" x2="109.9101" y2="5.9221" gradientTransform="matrix(1 0 0 -1 0 130)">
		<stop  offset="0" style="stop-color:#6A889D"/>
		<stop  offset="0.1809" style="stop-color:#738EA2"/>
		<stop  offset="0.4985" style="stop-color:#8BA0B2"/>
		<stop  offset="0.9128" style="stop-color:#B5C4CF"/>
		<stop  offset="1" style="stop-color:#BFCDD6"/>
	</linearGradient>
	<path class="st1" d="M129.4,73.3L79.8,23.7l0,0l-0.4-0.4l-2.5-0.9l1.9,1.6l0.8,5.3c0,0-2.8,2.6-3.8,3.1l-8.5-8.6l-2.5-0.9l1.9,1.6
		l0.8,5.3c0,0-2.7,2.5-3.8,3.1L54,23.4l-0.6,0.7l0.8,5.3c0,0-3.1,2.9-4,3.1c-0.9,0.3-0.6,5.5-0.6,5.5l4.2,4l-2.4,0.6l12.2,12.2
		l-2.3,2.3l18.2,18.2L32.2,91.9l-0.9,2.4l-3.8,5.5l29.6,29.6c2.6,0.3,5.2,0.5,7.8,0.5C98.1,130,125.4,105.3,129.4,73.3z M63.7,39.9
		l0.4-0.3l0.2,0.1L63.7,39.9z"/>
	<path class="st2" d="M52.2,42.8c-0.2,0-0.4-0.1-0.6-0.2c-0.1-0.1-2.8-1.8-2.8-5.6c0-3.3,1.5-4.5,2.3-5.2c0.1-0.1,0.2-0.1,0.3-0.2
		c0.2-0.2,0.3-0.3,0.6-0.5c0.7-0.6,1.5-1.2,1.5-3.2c0-2.4-1.7-3.5-1.8-3.5c-0.6-0.3-0.8-1.1-0.4-1.7c0.3-0.6,1.1-0.8,1.6-0.4
		c0.1,0.1,3,1.8,3,5.6c0,3.2-1.5,4.4-2.4,5.1c-0.1,0.1-0.3,0.2-0.3,0.3c-0.1,0.1-0.3,0.2-0.4,0.4c-0.6,0.5-1.4,1.2-1.4,3.3
		c0,2.4,1.6,3.5,1.6,3.5c0.6,0.4,0.7,1.1,0.4,1.7C53,42.6,52.6,42.8,52.2,42.8z"/>
	<path class="st2" d="M64.9,42.8c-0.2,0-0.4-0.1-0.6-0.2c-0.1-0.1-2.8-1.8-2.8-5.6c0-3.3,1.5-4.5,2.3-5.2c0.1-0.1,0.2-0.1,0.3-0.2
		c0.2-0.2,0.3-0.3,0.6-0.5c0.7-0.6,1.5-1.2,1.5-3.2c0-2.4-1.7-3.5-1.8-3.5c-0.6-0.3-0.8-1.1-0.4-1.7c0.3-0.6,1.1-0.8,1.6-0.4
		c0.1,0.1,3,1.8,3,5.6c0,3.2-1.5,4.4-2.4,5.1c-0.1,0.1-0.3,0.2-0.3,0.3c-0.1,0.1-0.3,0.2-0.4,0.4c-0.6,0.5-1.4,1.2-1.4,3.3
		c0,2.4,1.6,3.5,1.6,3.5c0.6,0.4,0.7,1.1,0.4,1.7C65.7,42.6,65.3,42.8,64.9,42.8z"/>
	<path class="st2" d="M77.6,42.8c-0.2,0-0.4-0.1-0.6-0.2c-0.1-0.1-2.8-1.8-2.8-5.6c0-3.3,1.5-4.5,2.3-5.2c0.1-0.1,0.2-0.1,0.3-0.2
		c0.2-0.2,0.3-0.3,0.6-0.5c0.7-0.6,1.5-1.2,1.5-3.2c0-2.4-1.7-3.5-1.8-3.5c-0.6-0.3-0.8-1.1-0.4-1.7c0.3-0.6,1.1-0.8,1.6-0.4
		c0.1,0.1,3,1.8,3,5.6c0,3.2-1.5,4.4-2.4,5.1c-0.1,0.1-0.3,0.2-0.3,0.3c-0.1,0.1-0.3,0.2-0.4,0.4c-0.6,0.5-1.4,1.2-1.4,3.3
		c0,2.4,1.6,3.5,1.6,3.5c0.6,0.4,0.7,1.1,0.4,1.7C78.4,42.6,78,42.8,77.6,42.8z"/>
	<path class="st3" d="M65,61.1c-2.3,0-4.4-1.1-5.8-2.8C43.9,61,32.2,74.3,32.2,90.5c0,0.5,0,1,0,1.4h65.5c0-0.5,0-1,0-1.4
		c0-16.2-11.7-29.5-26.9-32.3C69.4,60,67.3,61.1,65,61.1z"/>
	<path class="st2" d="M27.5,98.2v1.7h74.8v-1.7c0-2.1-1.7-3.8-3.8-3.8H31.3C29.2,94.3,27.5,96,27.5,98.2z"/>
	<path class="st2" d="M69.7,52.7c-0.2-0.9-0.7-1.8-1.3-2.4c-0.9-0.9-2.1-1.4-3.4-1.4c-1.3,0-2.5,0.5-3.4,1.4
		c-0.7,0.6-1.1,1.5-1.3,2.4c-0.1,0.3-0.1,0.7-0.1,1c0,0.6,0.1,1.2,0.4,1.8c0.4,0.9,1,1.7,1.8,2.2c0.8,0.5,1.7,0.8,2.7,0.8
		s1.9-0.3,2.7-0.8c0.8-0.5,1.5-1.3,1.8-2.2c0.2-0.6,0.4-1.2,0.4-1.8C69.9,53.3,69.8,53,69.7,52.7z"/>
</g>
</svg>
