<?xml version="1.0" encoding="utf-8"?>
<!-- Generator: Adobe Illustrator 21.1.0, SVG Export Plug-In . SVG Version: 6.00 Build 0)  -->
<svg version="1.1" id="Layer_1" xmlns="http://www.w3.org/2000/svg" xmlns:xlink="http://www.w3.org/1999/xlink" x="0px" y="0px"
	 viewBox="0 0 130 130" style="enable-background:new 0 0 130 130;" xml:space="preserve">
<style type="text/css">
	.st0{fill:#4F748C;}
	.st1{fill:url(#SVGID_1_);}
	.st2{fill:#FFFFFF;}
	.st3{fill:#E9B8A8;}
</style>
<g>
	<circle class="st0" cx="65" cy="65" r="65"/>
	
		<linearGradient id="SVGID_1_" gradientUnits="userSpaceOnUse" x1="60.3211" y1="89.6059" x2="122.1513" y2="15.9195" gradientTransform="matrix(1 0 0 -1 0 130)">
		<stop  offset="0" style="stop-color:#6A889D"/>
		<stop  offset="0.1809" style="stop-color:#738EA2"/>
		<stop  offset="0.4985" style="stop-color:#8BA0B2"/>
		<stop  offset="0.9128" style="stop-color:#B5C4CF"/>
		<stop  offset="1" style="stop-color:#BFCDD6"/>
	</linearGradient>
	<path class="st1" d="M72.6,129.5C105,125.7,130,98.3,130,65c0-27.5-17.2-51.1-41.4-60.6l-2.2,45.9v4.1l-9.7,7.8l-0.5,1.4L63.7,51.1
		L62,52.8L48.6,39.6l-7,6.7L73.2,78l-7.3,2.1L46.5,60.7l-7,6.7l15.8,15.8l-22.5,6.4L72.6,129.5z"/>
	<g>
		<path class="st2" d="M43.1,69c2.7,0,4.9-2.2,4.9-4.9c0-0.4,0-0.7-0.1-1c-0.2-0.9-0.7-1.8-1.3-2.4c-0.9-0.9-2.1-1.4-3.4-1.4
			c-1.3,0-2.5,0.5-3.4,1.4c-0.7,0.6-1.1,1.5-1.3,2.4c-0.1,0.3-0.1,0.7-0.1,1C38.2,66.8,40.4,69,43.1,69z"/>
	</g>
	<g>
		<path class="st2" d="M60.1,59.3c2.7,0,4.9-2.2,4.9-4.9c0-0.4,0-0.7-0.1-1c-0.2-0.9-0.7-1.8-1.3-2.4c-0.9-0.9-2.1-1.4-3.4-1.4
			s-2.5,0.5-3.4,1.4c-0.7,0.6-1.1,1.5-1.3,2.4c-0.1,0.3-0.1,0.7-0.1,1C55.3,57.2,57.5,59.3,60.1,59.3z"/>
	</g>
	<g>
		<path class="st2" d="M45.3,48c2.7,0,4.9-2.2,4.9-4.9c0-0.4,0-0.7-0.1-1c-0.2-0.9-0.7-1.8-1.3-2.4c-0.9-0.9-2.1-1.4-3.4-1.4
			c-1.3,0-2.5,0.5-3.4,1.4c-0.7,0.6-1.1,1.5-1.3,2.4c-0.1,0.3-0.1,0.7-0.1,1C40.4,45.8,42.6,48,45.3,48z"/>
	</g>
	<path class="st2" d="M86.4,3.6v46.7c1.2,0.1,2.3,0.3,3.4,0.8c0.4,0.2,0.8,0.4,1.2,0.6V5.4C89.5,4.7,87.9,4.2,86.4,3.6z"/>
	<path class="st3" d="M94,61.3c0-3.4-2-6.2-4.9-7.5c-1-0.4-2.1-0.7-3.3-0.7c-2.7,0-5.1,1.3-6.6,3.4c-0.7,1-1.2,2.1-1.4,3.3
		c-0.1,0.1-0.1,0.3-0.2,0.4c-0.3,0.7-0.6,1.4-0.9,2.1c4.4,2.5,9.5,3.9,15.1,3.9c0.7,0,1.4,0,2-0.1c0-1.3,0.1-2.5,0.3-3.8
		C94,62,94,61.6,94,61.3z"/>
	<path class="st2" d="M93.7,69.8c0-0.3-0.1-0.6-0.1-1c-0.7,0-1.4,0.1-2.1,0.1c-5.7,0-11.2-1.5-15.9-4.2
		C65.2,79.9,25.7,80.5,25.7,80.5c3.4,5.5,7.4,10.2,12.4,14.2c3-0.3,10.5-1.3,13.1-3.5c-3.4,4.6-6.4,6.3-8.4,6.9
		c4.2,2.7,8.9,5.1,14.3,7c3.6-2.3,10-7.1,13.1-13.8c-1.6,8.8-5,13.4-7.6,15.6c3,0.9,6.2,1.7,9.5,2.4c2-1.7,10.4-9.2,11.2-15.9
		c0.2,8.2-2.6,14-4.6,17.2c2.8,0.5,6.9,0.8,9.8,0.1C97.1,103.1,94.9,80.6,93.7,69.8z"/>
</g>
</svg>
