<?xml version="1.0" encoding="utf-8"?>
<!-- Generator: Adobe Illustrator 21.1.0, SVG Export Plug-In . SVG Version: 6.00 Build 0)  -->
<svg version="1.1" id="Layer_1" xmlns="http://www.w3.org/2000/svg" xmlns:xlink="http://www.w3.org/1999/xlink" x="0px" y="0px"
	 viewBox="0 0 146.7 146.7" style="enable-background:new 0 0 146.7 146.7;" xml:space="preserve">
<style type="text/css">
	.st0{fill:#BFCDD7;}
	.st1{fill:url(#SVGID_1_);}
	.st2{fill:#FFFFFF;}
	.st3{fill:url(#SVGID_2_);}
	.st4{fill:url(#SVGID_3_);}
	.st5{fill:url(#SVGID_4_);}
	.st6{fill:url(#SVGID_5_);}
	.st7{fill:url(#SVGID_6_);}
</style>
<g>
	<circle class="st0" cx="73.3" cy="73.3" r="73.3"/>
	<linearGradient id="SVGID_1_" gradientUnits="userSpaceOnUse" x1="58.8832" y1="53.2874" x2="124.8172" y2="123.8766">
		<stop  offset="0" style="stop-color:#6C879C"/>
		<stop  offset="0.1862" style="stop-color:#758EA2"/>
		<stop  offset="0.5131" style="stop-color:#8CA1B2"/>
		<stop  offset="0.9396" style="stop-color:#B7C5D0"/>
		<stop  offset="1" style="stop-color:#BECCD5"/>
	</linearGradient>
	<path class="st1" d="M94.2,143.7c25.2-7.5,44.8-28.1,50.6-54L83.4,28.2L64.6,51l-8.4,19.3l15.4,14.9l-1.4,10.9l-21.9,1.5L66,115.3
		l-0.1,0.5L94.2,143.7z"/>
	<g>
		<path class="st2" d="M79.7,65.9c1.5,0.4,3,0.9,4.5,1.4c1.5,0.5,3,1.1,4.3,1.8c1.4,0.7,2.7,1.4,3.9,2.3c1.2,0.9,2.3,1.9,3.1,3.1
			c0.9,1.2,1.6,2.6,2.1,4.1c0.5,1.5,0.8,3.3,0.8,5.3c0,3-0.5,5.8-1.5,8.4c-1,2.6-2.5,4.9-4.4,7c-1.9,2-4.3,3.7-7.1,4.9
			c-2.8,1.3-6,2-9.7,2.3l-0.6,5.8c-0.1,0.9-0.4,1.7-1.2,2.4c-0.7,0.7-1.6,1.1-2.7,1.1h-5.4l0.9-9.7c-3.6-0.6-7-1.6-10.3-3.1
			c-3.3-1.5-6-3.3-8.3-5.4l4.5-6.5c0.4-0.5,0.9-1,1.5-1.3c0.6-0.4,1.3-0.5,2-0.5c0.8,0,1.5,0.2,2.3,0.6c0.8,0.4,1.6,0.9,2.6,1.4
			c0.9,0.5,1.9,1.1,3.1,1.7c1.1,0.6,2.4,1.1,3.8,1.4l1.7-17.7c-2.3-0.6-4.5-1.4-6.7-2.2c-2.2-0.8-4.3-2-6-3.4
			c-1.8-1.4-3.2-3.3-4.3-5.5c-1.1-2.2-1.7-5-1.7-8.4c0-2.5,0.5-4.9,1.5-7.2c1-2.3,2.5-4.5,4.4-6.3c1.9-1.9,4.3-3.4,7.1-4.6
			c2.8-1.2,6-1.9,9.7-2.1l0.5-5.2c0.1-0.9,0.4-1.7,1.2-2.4c0.7-0.7,1.6-1.1,2.7-1.1h5.4l-0.9,9.2c3.4,0.6,6.3,1.6,8.7,3.1
			c2.4,1.4,4.5,2.9,6.2,4.5l-3.6,5.2c-0.5,0.8-1.1,1.4-1.6,1.7c-0.5,0.4-1.2,0.5-1.9,0.5c-0.5,0-1-0.1-1.7-0.4
			c-0.6-0.2-1.3-0.5-2.1-0.8c-0.8-0.3-1.6-0.7-2.4-1c-0.9-0.4-1.8-0.7-2.7-1L79.7,65.9z M72.5,48.9c-1.4,0.2-2.7,0.5-3.6,1
			c-1,0.4-1.8,1-2.4,1.6c-0.6,0.6-1.1,1.3-1.3,2c-0.3,0.7-0.4,1.5-0.4,2.3c0,1.8,0.6,3.3,1.8,4.5c1.2,1.1,2.7,2.1,4.6,2.9L72.5,48.9
			z M76.9,94.6c5.2-0.8,7.8-3.7,7.8-8.5c0-1.8-0.6-3.2-1.7-4.3c-1.1-1-2.7-1.9-4.5-2.7L76.9,94.6z"/>
	</g>
</g>
</svg>
