<?xml version="1.0" encoding="utf-8"?>
<!-- Generator: Adobe Illustrator 21.1.0, SVG Export Plug-In . SVG Version: 6.00 Build 0)  -->
<svg version="1.1" id="Layer_1" xmlns="http://www.w3.org/2000/svg" xmlns:xlink="http://www.w3.org/1999/xlink" x="0px" y="0px"
	 viewBox="0 0 146.7 146.7" style="enable-background:new 0 0 146.7 146.7;" xml:space="preserve">
<style type="text/css">
	.st0{fill:#BFCDD7;}
	.st1{fill:url(#SVGID_1_);}
	.st2{fill:#FFFFFF;}
	.st3{fill:url(#SVGID_2_);}
	.st4{fill:url(#SVGID_3_);}
	.st5{fill:url(#SVGID_4_);}
	.st6{fill:url(#SVGID_5_);}
	.st7{fill:url(#SVGID_6_);}
</style>
<g>
	<circle class="st0" cx="73.3" cy="73.3" r="73.3"/>
	<linearGradient id="SVGID_1_" gradientUnits="userSpaceOnUse" x1="45.4606" y1="62.7924" x2="124.0904" y2="123.11">
		<stop  offset="0" style="stop-color:#6C879C"/>
		<stop  offset="0.1862" style="stop-color:#758EA2"/>
		<stop  offset="0.5131" style="stop-color:#8CA1B2"/>
		<stop  offset="0.9396" style="stop-color:#B7C5D0"/>
		<stop  offset="1" style="stop-color:#BECCD5"/>
	</linearGradient>
	<path class="st1" d="M143,96.2L85.4,38.6L60.7,63.4L94.3,97l-2.5,2.5L57,64.8l-13,42.7l38.7,38.7C111,142.5,134.3,122.7,143,96.2z"
		/>
	<g>
		<path class="st2" d="M73.3,68.8c9.6,0,17.5-7.9,17.5-17.5S83,33.8,73.3,33.8s-17.5,7.9-17.5,17.5S63.7,68.8,73.3,68.8z"/>
		<path class="st2" d="M46,108.2h54.6c1.8,0,3.2-1.4,3.2-3.2V90.5c0-10.5-5.3-20.1-14.1-25.7c-4.1,4.9-10,7.8-16.4,7.8
			S61,69.7,57,64.8C48.1,70.4,42.8,80,42.8,90.5V105C42.8,106.8,44.3,108.2,46,108.2z"/>
	</g>
</g>
</svg>
