<?xml version="1.0" encoding="utf-8"?>
<!-- Generator: Adobe Illustrator 21.1.0, SVG Export Plug-In . SVG Version: 6.00 Build 0)  -->
<svg version="1.1" id="Layer_1" xmlns="http://www.w3.org/2000/svg" xmlns:xlink="http://www.w3.org/1999/xlink" x="0px" y="0px"
	 viewBox="0 0 146.7 146.7" style="enable-background:new 0 0 146.7 146.7;" xml:space="preserve">
<style type="text/css">
	.st0{fill:#BFCDD7;}
	.st1{fill:url(#SVGID_1_);}
	.st2{fill:#FFFFFF;}
	.st3{fill:url(#SVGID_2_);}
	.st4{fill:url(#SVGID_3_);}
	.st5{fill:url(#SVGID_4_);}
	.st6{fill:url(#SVGID_5_);}
	.st7{fill:url(#SVGID_6_);}
</style>
<g>
	<circle class="st0" cx="73.3" cy="73.3" r="73.3"/>
	<linearGradient id="SVGID_1_" gradientUnits="userSpaceOnUse" x1="52.7058" y1="48.4706" x2="120.5683" y2="129.1802">
		<stop  offset="0" style="stop-color:#6C879C"/>
		<stop  offset="0.1862" style="stop-color:#758EA2"/>
		<stop  offset="0.5131" style="stop-color:#8CA1B2"/>
		<stop  offset="0.9396" style="stop-color:#B7C5D0"/>
		<stop  offset="1" style="stop-color:#BECCD5"/>
	</linearGradient>
	<path class="st1" d="M75.9,146.6c36.3-1.3,65.8-28.9,70.2-64.3L112,48.2l-3.9-0.8l-6.1-6.1L84.7,56.9l-5.4-0.1l-38.6,54.6
		L75.9,146.6z"/>
	<path class="st2" d="M111.7,48l-3.7-2.6l-1.8,1.2c-1,0.4-2.2,0.3-3.2-0.4c-1.2-0.8-1.7-2.2-1.4-3.4l0.4-1.5l-4.6-3.1l-15-10.3
		l-2.4-1.6c-3.6-2.5-9.9-5.2-15,2.2c4.4-1.3,8.9,2.3,8.9,2.3c8.4,5.8,3.9,15,1.1,19.2c-0.7,1-0.6,2.3,0.1,3.3L40,104.3
		c-1.8,2.6-1.1,6,1.4,7.8l0.4,0.3c2.6,1.8,6,1.1,7.8-1.4l35.1-51c1.1,0.2,2.3-0.2,3-1.1c2-2.8,4.7-5.7,7.3-6.9
		c1-0.5,2.3-0.3,3.3,0.4l0.4,0.3c1,0.7,1.5,1.7,1.5,2.8l-0.3,1.8l3.7,2.6c0.6,0.4,1.3,0.3,1.7-0.2l6.8-9.8
		C112.5,49.2,112.3,48.4,111.7,48z"/>
</g>
</svg>
