<?xml version="1.0" encoding="utf-8"?>
<!-- Generator: Adobe Illustrator 21.1.0, SVG Export Plug-In . SVG Version: 6.00 Build 0)  -->
<svg version="1.1" id="Layer_1" xmlns="http://www.w3.org/2000/svg" xmlns:xlink="http://www.w3.org/1999/xlink" x="0px" y="0px"
	 viewBox="0 0 146.7 146.7" style="enable-background:new 0 0 146.7 146.7;" xml:space="preserve">
<style type="text/css">
	.st0{fill:#BFCDD7;}
	.st1{fill:url(#SVGID_1_);}
	.st2{fill:#FFFFFF;}
	.st3{fill:url(#SVGID_2_);}
	.st4{fill:url(#SVGID_3_);}
	.st5{fill:url(#SVGID_4_);}
	.st6{fill:url(#SVGID_5_);}
	.st7{fill:url(#SVGID_6_);}
</style>
<g>
	<circle class="st0" cx="73.3" cy="73.3" r="73.3"/>
	<linearGradient id="SVGID_1_" gradientUnits="userSpaceOnUse" x1="54.7106" y1="30.8223" x2="114.6859" y2="91.3886">
		<stop  offset="0" style="stop-color:#6C879C"/>
		<stop  offset="0.1852" style="stop-color:#758EA2"/>
		<stop  offset="0.5091" style="stop-color:#8DA2B3"/>
		<stop  offset="0.8105" style="stop-color:#AABCC9"/>
		<stop  offset="1" style="stop-color:#BECCD5"/>
	</linearGradient>
	<path class="st1" d="M103.1,127.8c15.3-4.5,16.3-61.1,19.9-76.7l-20.3,2.2l9.7,9.5l-5.6,5.5L74.3,35.7L63,49.5l-5.3,11.4l9.3,9
		l-0.6,6.9L53,77.7l10.7,10.7l0,0.3L103.1,127.8z"/>
	<g>
		<path class="st2" d="M72,58.5c0.9,0.3,1.8,0.6,2.7,0.9c0.9,0.3,1.8,0.7,2.6,1.1c0.8,0.4,1.6,0.9,2.4,1.4c0.7,0.5,1.4,1.2,1.9,1.9
			c0.5,0.7,1,1.5,1.3,2.5c0.3,0.9,0.5,2,0.5,3.2c0,1.8-0.3,3.5-0.9,5.1c-0.6,1.6-1.5,3-2.7,4.2c-1.2,1.2-2.6,2.2-4.3,3
			c-1.7,0.8-3.7,1.2-5.8,1.4l-0.3,3.5c0,0.5-0.3,1-0.7,1.4c-0.4,0.4-1,0.6-1.6,0.6h-3.2l0.6-5.8c-2.2-0.4-4.3-1-6.2-1.9
			c-2-0.9-3.6-2-5-3.2l2.7-3.9c0.2-0.3,0.5-0.6,0.9-0.8c0.4-0.2,0.8-0.3,1.2-0.3c0.5,0,0.9,0.1,1.4,0.4c0.5,0.2,1,0.5,1.5,0.9
			c0.6,0.3,1.2,0.7,1.8,1c0.7,0.3,1.4,0.6,2.3,0.9L66,65c-1.4-0.4-2.7-0.8-4.1-1.3c-1.4-0.5-2.6-1.2-3.6-2.1c-1.1-0.9-2-2-2.6-3.3
			c-0.7-1.3-1-3-1-5c0-1.5,0.3-3,0.9-4.4c0.6-1.4,1.5-2.7,2.7-3.8c1.2-1.1,2.6-2.1,4.3-2.8c1.7-0.7,3.6-1.1,5.8-1.3l0.3-3.1
			c0-0.5,0.3-1,0.7-1.4c0.4-0.4,1-0.6,1.6-0.6h3.2l-0.5,5.6c2,0.4,3.8,1,5.3,1.8c1.5,0.9,2.7,1.8,3.7,2.7L80.6,49
			c-0.3,0.5-0.6,0.8-1,1c-0.3,0.2-0.7,0.3-1.2,0.3c-0.3,0-0.6-0.1-1-0.2c-0.4-0.1-0.8-0.3-1.3-0.5c-0.5-0.2-0.9-0.4-1.5-0.6
			c-0.5-0.2-1.1-0.4-1.7-0.6L72,58.5z M67.7,48.2c-0.9,0.1-1.6,0.3-2.2,0.6c-0.6,0.3-1.1,0.6-1.4,0.9c-0.4,0.4-0.6,0.8-0.8,1.2
			c-0.2,0.4-0.3,0.9-0.3,1.4c0,1.1,0.4,2,1.1,2.7c0.7,0.7,1.6,1.3,2.8,1.7L67.7,48.2z M70.3,75.8c3.1-0.5,4.7-2.2,4.7-5.1
			c0-1.1-0.3-2-1-2.6c-0.7-0.6-1.6-1.2-2.7-1.6L70.3,75.8z"/>
	</g>
	<linearGradient id="SVGID_2_" gradientUnits="userSpaceOnUse" x1="69.3495" y1="73.2944" x2="122.9557" y2="126.9005">
		<stop  offset="0" style="stop-color:#6C879C"/>
		<stop  offset="0.1852" style="stop-color:#758EA2"/>
		<stop  offset="0.5091" style="stop-color:#8DA2B3"/>
		<stop  offset="0.8105" style="stop-color:#AABCC9"/>
		<stop  offset="1" style="stop-color:#BECCD5"/>
	</linearGradient>
	<path class="st3" d="M146.6,70.4c0-0.8-0.1-1.6-0.1-2.4c0,0,0,0,0,0l-20.7-20.7l-2.4,1.6l-2,3.6l-53.2,57.9L48.8,89.2l-23.6,22.3
		l34.8,33.9c4.4,0.8,8.8,1.2,13.4,1.2c10.1,0,19.8-2.1,28.5-5.8c2.2-0.9,4.3-2,6.4-3.1c1-0.6,2.1-1.2,3.1-1.8
		c21.2-12.9,35.3-36.1,35.3-62.7C146.7,72.4,146.7,71.4,146.6,70.4z"/>
	<path class="st2" d="M126.7,69.3l-1-22l-23.9,2.5c-1.2,0.1-2.1,1.1-1.9,2.2l0,0c0.1,1.1,1.2,1.9,2.4,1.8l16-1.7L67,107.2L46.3,85.9
		L25,108.8c-0.8,0.8-0.7,2.1,0.2,2.8l0,0c0.9,0.7,2.3,0.6,3.1-0.2L46.4,92l20.7,21.3l54.6-58.6l0.7,14.8c0.1,1.1,1.1,2,2.3,1.9l0,0
		C125.8,71.3,126.7,70.4,126.7,69.3z"/>
</g>
</svg>
