<?xml version="1.0" encoding="utf-8"?>
<!-- Generator: Adobe Illustrator 21.1.0, SVG Export Plug-In . SVG Version: 6.00 Build 0)  -->
<svg version="1.1" id="Layer_1" xmlns="http://www.w3.org/2000/svg" xmlns:xlink="http://www.w3.org/1999/xlink" x="0px" y="0px"
	 viewBox="0 0 300 200" style="enable-background:new 0 0 300 200;" xml:space="preserve">
<style type="text/css">
	.st0{fill:#BFCDD6;}
	.st1{fill:url(#SVGID_1_);}
	.st2{fill:#4F748C;}
	.st3{fill:#FFFFFF;}
</style>
<g>
	<path class="st0" d="M273.6,200H26.4C11.8,200,0,188.2,0,173.6V26.4C0,11.8,11.8,0,26.4,0h247.2C288.2,0,300,11.8,300,26.4v147.2
		C300,188.2,288.2,200,273.6,200z"/>
	<linearGradient id="SVGID_1_" gradientUnits="userSpaceOnUse" x1="174.371" y1="36.8253" x2="230.006" y2="217.9289">
		<stop  offset="0" style="stop-color:#7290A3"/>
		<stop  offset="0.2185" style="stop-color:#7D99AA"/>
		<stop  offset="0.602" style="stop-color:#9AB0BE"/>
		<stop  offset="1" style="stop-color:#BFCDD6"/>
	</linearGradient>
	<path class="st1" d="M300,173v-17.8L191.8,42.3l-7-3.6l-74.4,80.5l78.4,80.8h85.4C288.4,200,300,187.9,300,173z"/>
	<g>
		<g>
			<circle class="st2" cx="149.5" cy="79.7" r="56"/>
			<path class="st3" d="M160.2,65.2l-26.9,26.9c-5-2.5-11.3-1.7-15.5,2.5c-4.2,4.2-5,10.5-2.5,15.5l6.4-6.4c1.6-1.6,4.3-1.6,5.9,0
				c1.6,1.6,1.6,4.3,0,5.9l-6.4,6.4c5,2.5,11.3,1.7,15.5-2.5c4.2-4.2,5-10.5,2.5-15.5l26.9-26.9c5,2.5,11.3,1.7,15.5-2.5
				c4.2-4.2,5-10.5,2.5-15.5l-6.4,6.4c-1.6,1.6-4.3,1.6-5.9,0c-1.6-1.6-1.6-4.3,0-5.9l6.4-6.4c-5-2.5-11.3-1.7-15.5,2.5
				S157.7,60.2,160.2,65.2z"/>
		</g>
		<g>
			<path class="st3" d="M93.5,164.3c0,0.6,0.2,1.1,0.3,1.5c0.2,0.4,0.4,0.8,0.7,1.1c0.3,0.3,0.6,0.5,1,0.6c0.4,0.1,0.8,0.2,1.2,0.2
				s0.8-0.1,1.2-0.2c0.3-0.1,0.6-0.2,0.9-0.3c0.2-0.1,0.5-0.2,0.6-0.3c0.2-0.1,0.4-0.2,0.5-0.2c0.2,0,0.4,0.1,0.5,0.3l0.8,1
				c-0.3,0.4-0.7,0.7-1,0.9c-0.4,0.2-0.8,0.4-1.2,0.6c-0.4,0.1-0.8,0.2-1.3,0.3c-0.4,0.1-0.9,0.1-1.3,0.1c-0.8,0-1.6-0.1-2.2-0.4
				c-0.7-0.3-1.3-0.7-1.8-1.2c-0.5-0.5-0.9-1.2-1.2-1.9c-0.3-0.8-0.4-1.7-0.4-2.7c0-0.8,0.1-1.5,0.4-2.2c0.3-0.7,0.6-1.3,1.1-1.8
				s1.1-0.9,1.7-1.2c0.7-0.3,1.5-0.5,2.3-0.5c0.7,0,1.4,0.1,2,0.3c0.6,0.2,1.1,0.6,1.6,1c0.4,0.4,0.8,1,1,1.6s0.4,1.4,0.4,2.2
				c0,0.4,0,0.7-0.1,0.9c-0.1,0.1-0.3,0.2-0.5,0.2H93.5z M98.8,162.6c0-0.4-0.1-0.7-0.2-1c-0.1-0.3-0.3-0.6-0.5-0.8
				c-0.2-0.2-0.5-0.4-0.8-0.6c-0.3-0.1-0.7-0.2-1.1-0.2c-0.8,0-1.4,0.2-1.9,0.7c-0.5,0.5-0.8,1.1-0.9,2H98.8z"/>
			<path class="st3" d="M106.5,159.6c0.5-0.5,1-0.9,1.6-1.2c0.6-0.3,1.2-0.4,1.9-0.4c0.7,0,1.3,0.1,1.8,0.4c0.5,0.3,1,0.6,1.4,1.1
				c0.4,0.5,0.7,1.1,0.9,1.8c0.2,0.7,0.3,1.5,0.3,2.4c0,0.9-0.1,1.8-0.4,2.6c-0.2,0.8-0.6,1.4-1,2s-1,1-1.6,1.3
				c-0.6,0.3-1.3,0.5-2,0.5c-0.4,0-0.7,0-1-0.1c-0.3-0.1-0.6-0.2-0.8-0.3c-0.2-0.1-0.5-0.3-0.7-0.5c-0.2-0.2-0.4-0.4-0.6-0.6
				l-0.1,0.8c0,0.2-0.1,0.3-0.2,0.4s-0.3,0.1-0.4,0.1h-1.8V153h2.8V159.6z M106.5,166.8c0.3,0.4,0.7,0.7,1,0.8
				c0.4,0.2,0.8,0.2,1.2,0.2c0.4,0,0.8-0.1,1.2-0.2c0.3-0.2,0.6-0.4,0.9-0.7c0.2-0.3,0.4-0.7,0.6-1.3s0.2-1.1,0.2-1.8
				c0-1.3-0.2-2.2-0.6-2.8c-0.4-0.6-1-0.9-1.8-0.9c-0.5,0-1,0.1-1.4,0.4c-0.4,0.2-0.8,0.6-1.1,1V166.8z"/>
			<path class="st3" d="M122.7,169.8v-11.6h1.7c0.4,0,0.6,0.2,0.7,0.5l0.2,0.9c0.2-0.2,0.4-0.4,0.6-0.6c0.2-0.2,0.5-0.3,0.7-0.5
				c0.3-0.1,0.5-0.2,0.8-0.3c0.3-0.1,0.6-0.1,1-0.1c0.7,0,1.3,0.2,1.8,0.6c0.5,0.4,0.8,0.9,1.1,1.6c0.2-0.4,0.4-0.7,0.7-1
				s0.6-0.5,0.9-0.7c0.3-0.2,0.7-0.3,1-0.4s0.7-0.1,1.1-0.1c0.6,0,1.2,0.1,1.7,0.3c0.5,0.2,0.9,0.5,1.3,0.9c0.3,0.4,0.6,0.8,0.8,1.4
				c0.2,0.5,0.3,1.2,0.3,1.9v7.4h-2.8v-7.4c0-0.7-0.2-1.3-0.5-1.7s-0.8-0.6-1.4-0.6c-0.3,0-0.6,0-0.8,0.1c-0.2,0.1-0.5,0.2-0.6,0.4
				c-0.2,0.2-0.3,0.4-0.4,0.7s-0.2,0.6-0.2,1v7.4h-2.8v-7.4c0-0.8-0.2-1.3-0.5-1.7c-0.3-0.4-0.8-0.5-1.4-0.5c-0.4,0-0.8,0.1-1.1,0.3
				s-0.7,0.5-1,0.8v8.5H122.7z"/>
			<path class="st3" d="M141.6,159.8c1.3-1.2,2.9-1.8,4.8-1.8c0.7,0,1.3,0.1,1.8,0.3s1,0.5,1.4,0.9s0.6,0.9,0.8,1.4
				c0.2,0.5,0.3,1.2,0.3,1.8v7.3h-1.3c-0.3,0-0.5,0-0.6-0.1c-0.1-0.1-0.3-0.2-0.3-0.5l-0.2-0.8c-0.3,0.3-0.6,0.5-0.9,0.7
				c-0.3,0.2-0.6,0.4-0.9,0.5c-0.3,0.1-0.6,0.2-1,0.3c-0.3,0.1-0.7,0.1-1.1,0.1c-0.5,0-0.9-0.1-1.4-0.2c-0.4-0.1-0.8-0.3-1.1-0.6
				c-0.3-0.3-0.5-0.6-0.7-1c-0.2-0.4-0.2-0.8-0.2-1.4c0-0.3,0-0.6,0.1-0.9c0.1-0.3,0.3-0.6,0.5-0.8c0.2-0.3,0.5-0.5,0.9-0.7
				c0.4-0.2,0.8-0.4,1.3-0.6c0.5-0.2,1.1-0.3,1.8-0.4c0.7-0.1,1.5-0.2,2.3-0.2v-0.7c0-0.8-0.2-1.3-0.5-1.7s-0.8-0.6-1.4-0.6
				c-0.5,0-0.8,0.1-1.1,0.2s-0.6,0.2-0.8,0.4s-0.4,0.2-0.6,0.4c-0.2,0.1-0.4,0.2-0.6,0.2c-0.2,0-0.4-0.1-0.5-0.2s-0.2-0.2-0.3-0.4
				L141.6,159.8z M148,164.8c-0.8,0-1.5,0.1-2,0.2s-1,0.2-1.3,0.4s-0.6,0.3-0.7,0.6c-0.1,0.2-0.2,0.4-0.2,0.7c0,0.5,0.1,0.8,0.4,1
				c0.3,0.2,0.7,0.3,1.1,0.3c0.6,0,1.1-0.1,1.5-0.3c0.4-0.2,0.8-0.5,1.2-0.9V164.8z"/>
			<path class="st3" d="M156.3,159.6c0.2-0.2,0.5-0.4,0.7-0.6c0.3-0.2,0.5-0.4,0.8-0.5c0.3-0.1,0.6-0.2,0.9-0.3s0.7-0.1,1.1-0.1
				c0.6,0,1.2,0.1,1.7,0.3c0.5,0.2,0.9,0.5,1.2,0.9s0.6,0.8,0.7,1.4c0.2,0.5,0.3,1.1,0.3,1.8v7.4H161v-7.4c0-0.7-0.2-1.3-0.5-1.6
				c-0.3-0.4-0.8-0.6-1.5-0.6c-0.5,0-0.9,0.1-1.4,0.3c-0.4,0.2-0.8,0.5-1.2,0.9v8.4h-2.8v-11.6h1.7c0.4,0,0.6,0.2,0.7,0.5
				L156.3,159.6z"/>
			<path class="st3" d="M166.5,159.8c1.3-1.2,2.9-1.8,4.8-1.8c0.7,0,1.3,0.1,1.8,0.3s1,0.5,1.4,0.9s0.6,0.9,0.8,1.4
				c0.2,0.5,0.3,1.2,0.3,1.8v7.3h-1.3c-0.3,0-0.5,0-0.6-0.1c-0.1-0.1-0.3-0.2-0.3-0.5l-0.2-0.8c-0.3,0.3-0.6,0.5-0.9,0.7
				c-0.3,0.2-0.6,0.4-0.9,0.5c-0.3,0.1-0.6,0.2-1,0.3c-0.3,0.1-0.7,0.1-1.1,0.1c-0.5,0-0.9-0.1-1.4-0.2c-0.4-0.1-0.8-0.3-1.1-0.6
				c-0.3-0.3-0.5-0.6-0.7-1c-0.2-0.4-0.2-0.8-0.2-1.4c0-0.3,0-0.6,0.1-0.9c0.1-0.3,0.3-0.6,0.5-0.8c0.2-0.3,0.5-0.5,0.9-0.7
				c0.4-0.2,0.8-0.4,1.3-0.6c0.5-0.2,1.1-0.3,1.8-0.4c0.7-0.1,1.5-0.2,2.3-0.2v-0.7c0-0.8-0.2-1.3-0.5-1.7s-0.8-0.6-1.4-0.6
				c-0.5,0-0.8,0.1-1.1,0.2s-0.6,0.2-0.8,0.4s-0.4,0.2-0.6,0.4c-0.2,0.1-0.4,0.2-0.6,0.2c-0.2,0-0.4-0.1-0.5-0.2s-0.2-0.2-0.3-0.4
				L166.5,159.8z M172.9,164.8c-0.8,0-1.5,0.1-2,0.2s-1,0.2-1.3,0.4s-0.6,0.3-0.7,0.6c-0.1,0.2-0.2,0.4-0.2,0.7c0,0.5,0.1,0.8,0.4,1
				c0.3,0.2,0.7,0.3,1.1,0.3c0.6,0,1.1-0.1,1.5-0.3c0.4-0.2,0.8-0.5,1.2-0.9V164.8z"/>
			<path class="st3" d="M188.7,158.6v1c0,0.3-0.2,0.5-0.6,0.6l-1,0.2c0.2,0.4,0.2,0.8,0.2,1.3c0,0.6-0.1,1.1-0.3,1.6
				c-0.2,0.5-0.5,0.9-1,1.2c-0.4,0.3-0.9,0.6-1.4,0.8c-0.6,0.2-1.1,0.3-1.8,0.3c-0.2,0-0.4,0-0.7,0c-0.2,0-0.4-0.1-0.6-0.1
				c-0.4,0.2-0.5,0.5-0.5,0.7c0,0.2,0.1,0.4,0.3,0.5c0.2,0.1,0.5,0.2,0.9,0.2s0.8,0.1,1.2,0.1c0.5,0,0.9,0,1.4,0.1
				c0.5,0,0.9,0.1,1.4,0.2s0.9,0.2,1.2,0.4s0.6,0.5,0.9,0.8c0.2,0.3,0.3,0.8,0.3,1.3c0,0.5-0.1,1-0.4,1.5s-0.6,0.9-1.1,1.3
				c-0.5,0.4-1.1,0.7-1.8,0.9s-1.5,0.3-2.4,0.3c-0.9,0-1.6-0.1-2.3-0.3c-0.6-0.2-1.2-0.4-1.6-0.7c-0.4-0.3-0.7-0.6-1-1
				c-0.2-0.4-0.3-0.8-0.3-1.2c0-0.5,0.2-1,0.5-1.4c0.3-0.4,0.8-0.7,1.3-0.9c-0.3-0.2-0.6-0.4-0.7-0.6c-0.2-0.3-0.3-0.6-0.3-1
				c0-0.2,0-0.4,0.1-0.5c0.1-0.2,0.2-0.4,0.3-0.5c0.1-0.2,0.3-0.4,0.5-0.5c0.2-0.2,0.4-0.3,0.7-0.4c-0.6-0.3-1-0.7-1.4-1.3
				c-0.3-0.5-0.5-1.1-0.5-1.8c0-0.6,0.1-1.1,0.3-1.6c0.2-0.5,0.5-0.9,1-1.2c0.4-0.3,0.9-0.6,1.5-0.8c0.6-0.2,1.2-0.3,1.8-0.3
				c0.5,0,1,0.1,1.4,0.2c0.4,0.1,0.8,0.3,1.2,0.4H188.7z M185.9,170.3c0-0.2-0.1-0.4-0.2-0.6c-0.1-0.1-0.3-0.3-0.6-0.3
				c-0.2-0.1-0.5-0.1-0.8-0.2c-0.3,0-0.6-0.1-1-0.1s-0.7,0-1.1-0.1c-0.4,0-0.7,0-1.1-0.1c-0.3,0.2-0.6,0.4-0.8,0.6
				c-0.2,0.2-0.3,0.5-0.3,0.8c0,0.2,0.1,0.4,0.2,0.6s0.3,0.3,0.5,0.5s0.5,0.2,0.9,0.3s0.8,0.1,1.3,0.1c0.5,0,1,0,1.3-0.1
				c0.4-0.1,0.7-0.2,0.9-0.3c0.2-0.1,0.4-0.3,0.5-0.5C185.8,170.7,185.9,170.5,185.9,170.3z M182.8,163.7c0.3,0,0.6,0,0.9-0.1
				c0.3-0.1,0.5-0.2,0.6-0.4c0.2-0.2,0.3-0.4,0.4-0.6c0.1-0.2,0.1-0.5,0.1-0.8c0-0.6-0.2-1-0.5-1.4c-0.3-0.3-0.9-0.5-1.5-0.5
				c-0.7,0-1.2,0.2-1.5,0.5c-0.3,0.3-0.5,0.8-0.5,1.4c0,0.3,0,0.5,0.1,0.8c0.1,0.2,0.2,0.4,0.4,0.6c0.2,0.2,0.4,0.3,0.6,0.4
				C182.1,163.6,182.4,163.7,182.8,163.7z"/>
			<path class="st3" d="M192.7,164.3c0,0.6,0.2,1.1,0.3,1.5c0.2,0.4,0.4,0.8,0.7,1.1c0.3,0.3,0.6,0.5,1,0.6c0.4,0.1,0.8,0.2,1.2,0.2
				s0.8-0.1,1.2-0.2c0.3-0.1,0.6-0.2,0.9-0.3c0.2-0.1,0.5-0.2,0.6-0.3c0.2-0.1,0.4-0.2,0.5-0.2c0.2,0,0.4,0.1,0.5,0.3l0.8,1
				c-0.3,0.4-0.7,0.7-1,0.9c-0.4,0.2-0.8,0.4-1.2,0.6c-0.4,0.1-0.8,0.2-1.3,0.3c-0.4,0.1-0.9,0.1-1.3,0.1c-0.8,0-1.6-0.1-2.2-0.4
				c-0.7-0.3-1.3-0.7-1.8-1.2c-0.5-0.5-0.9-1.2-1.2-1.9c-0.3-0.8-0.4-1.7-0.4-2.7c0-0.8,0.1-1.5,0.4-2.2c0.3-0.7,0.6-1.3,1.1-1.8
				s1.1-0.9,1.7-1.2c0.7-0.3,1.5-0.5,2.3-0.5c0.7,0,1.4,0.1,2,0.3c0.6,0.2,1.1,0.6,1.6,1c0.4,0.4,0.8,1,1,1.6s0.4,1.4,0.4,2.2
				c0,0.4,0,0.7-0.1,0.9c-0.1,0.1-0.3,0.2-0.5,0.2H192.7z M198,162.6c0-0.4-0.1-0.7-0.2-1c-0.1-0.3-0.3-0.6-0.5-0.8
				c-0.2-0.2-0.5-0.4-0.8-0.6c-0.3-0.1-0.7-0.2-1.1-0.2c-0.8,0-1.4,0.2-1.9,0.7c-0.5,0.5-0.8,1.1-0.9,2H198z"/>
			<path class="st3" d="M205.6,160.2c0.4-0.7,0.8-1.2,1.3-1.6c0.5-0.4,1.1-0.6,1.8-0.6c0.5,0,1,0.1,1.3,0.3l-0.2,2.1
				c0,0.1-0.1,0.2-0.2,0.3c-0.1,0.1-0.2,0.1-0.3,0.1c-0.1,0-0.3,0-0.5-0.1c-0.2,0-0.4-0.1-0.6-0.1c-0.3,0-0.6,0-0.8,0.1
				c-0.2,0.1-0.5,0.2-0.6,0.4c-0.2,0.2-0.4,0.4-0.5,0.6c-0.1,0.2-0.3,0.5-0.4,0.8v7.1H203v-11.6h1.6c0.3,0,0.5,0.1,0.6,0.2
				c0.1,0.1,0.2,0.3,0.2,0.5L205.6,160.2z"/>
		</g>
	</g>
</g>
<g>
</g>
<g>
</g>
<g>
</g>
<g>
</g>
<g>
</g>
<g>
</g>
</svg>
