<?xml version="1.0" encoding="utf-8"?>
<!-- Generator: Adobe Illustrator 21.1.0, SVG Export Plug-In . SVG Version: 6.00 Build 0)  -->
<svg version="1.1" id="Layer_1" xmlns="http://www.w3.org/2000/svg" xmlns:xlink="http://www.w3.org/1999/xlink" x="0px" y="0px"
	 viewBox="0 0 130 130" style="enable-background:new 0 0 130 130;" xml:space="preserve">
<style type="text/css">
	.st0{fill:#BFCDD6;}
	.st1{fill:url(#SVGID_1_);}
	.st2{fill:#FFFFFF;}
	.st3{fill:#4F758D;}
	.st4{fill:#E9B8A8;}
</style>
<g>
	<circle class="st0" cx="65" cy="65" r="65"/>
	<linearGradient id="SVGID_1_" gradientUnits="userSpaceOnUse" x1="49.4642" y1="47.8452" x2="114.2871" y2="125.0982">
		<stop  offset="0" style="stop-color:#6A889D"/>
		<stop  offset="0.1809" style="stop-color:#738EA2"/>
		<stop  offset="0.4985" style="stop-color:#8BA0B2"/>
		<stop  offset="0.9128" style="stop-color:#B5C4CF"/>
		<stop  offset="1" style="stop-color:#BFCDD6"/>
	</linearGradient>
	<path class="st1" d="M129.8,70.3l-18.7-18.7l-7.3,5.3L65,18.2l-17.9,80l-10.5,7.6l24,24c1.5,0.1,2.9,0.2,4.4,0.2
		C99.1,130,127.1,103.7,129.8,70.3z"/>
	<polygon class="st2" points="65,18.2 79.3,47 111.1,51.6 88,74.1 93.4,105.8 65,90.8 36.6,105.8 42,74.1 18.9,51.6 50.7,47 	"/>
	<path class="st3" d="M56,59.1v18c-0.4-0.2-0.9-0.3-1.4-0.3c-1,0-2,0.4-2.7,1.1c-0.5,0.5-0.9,1.2-1.1,1.9c-0.1,0.3-0.1,0.5-0.1,0.8
		c0,2.1,1.7,3.8,3.8,3.8s3.8-1.7,3.8-3.8l0,0V65.9l15.2-4.8v11.1c-0.4-0.2-0.9-0.3-1.4-0.3c-1,0-2,0.4-2.7,1.1
		c-0.5,0.5-0.9,1.2-1.1,1.9c-0.1,0.3-0.1,0.5-0.1,0.8c0,2.1,1.7,3.8,3.8,3.8c2.1,0,3.8-1.7,3.8-3.8l0,0v-23L56,59.1z M58.4,63.4
		v-2.5l15.2-4.8v2.5L58.4,63.4z"/>
	<path class="st4" d="M54.6,84.6c2.1,0,3.8-1.7,3.8-3.8c0-0.3,0-0.6-0.1-0.8c-0.2-0.7-0.5-1.4-1.1-1.9c-0.7-0.7-1.6-1.1-2.7-1.1
		c-1,0-2,0.4-2.7,1.1c-0.5,0.5-0.9,1.2-1.1,1.9c-0.1,0.3-0.1,0.5-0.1,0.8C50.7,82.9,52.4,84.6,54.6,84.6z"/>
	<path class="st4" d="M72.1,79.6c2.1,0,3.8-1.7,3.8-3.8c0-0.3,0-0.6-0.1-0.8c-0.2-0.7-0.5-1.4-1.1-1.9C74,72.4,73.1,72,72,72
		c-1,0-2,0.4-2.7,1.1c-0.5,0.5-0.9,1.2-1.1,1.9c-0.1,0.3-0.1,0.5-0.1,0.8C68.3,77.9,70,79.6,72.1,79.6z"/>
</g>
</svg>
