<?xml version="1.0" encoding="utf-8"?>
<!-- Generator: Adobe Illustrator 21.1.0, SVG Export Plug-In . SVG Version: 6.00 Build 0)  -->
<svg version="1.1" id="Layer_1" xmlns="http://www.w3.org/2000/svg" xmlns:xlink="http://www.w3.org/1999/xlink" x="0px" y="0px"
	 viewBox="0 0 130 130" style="enable-background:new 0 0 130 130;" xml:space="preserve">
<style type="text/css">
	.st0{fill:#BFCDD6;}
	.st1{fill:url(#SVGID_1_);}
	.st2{fill:#FFFFFF;}
	.st3{fill:#E9B8A8;}
</style>
<g>
	<circle class="st0" cx="65" cy="65" r="65"/>
	<linearGradient id="SVGID_1_" gradientUnits="userSpaceOnUse" x1="57.5836" y1="47.0833" x2="114.5214" y2="114.939">
		<stop  offset="0" style="stop-color:#6A889D"/>
		<stop  offset="0.1809" style="stop-color:#738EA2"/>
		<stop  offset="0.4985" style="stop-color:#8BA0B2"/>
		<stop  offset="0.9128" style="stop-color:#B5C4CF"/>
		<stop  offset="1" style="stop-color:#BFCDD6"/>
	</linearGradient>
	<path class="st1" d="M129.1,76L87.6,34.5l-10.2,5.5l-8.8-8.8l-7,6.9l6.7,6.7l-1.5,0.8L52.5,63.7l10.7,11.2l0.4,19.9L52.9,84.1
		l-6.2,6.3l17.2,17.2l0,0.8l19.2,19.1C106.8,120.6,124.9,100.6,129.1,76z"/>
	<g>
		<path class="st2" d="M65,39.4c2.7,0,4.9-2.2,4.9-4.9c0-0.4,0-0.7-0.1-1c-0.2-0.9-0.7-1.8-1.4-2.4c-0.9-0.9-2.1-1.4-3.4-1.4
			c-1.3,0-2.5,0.5-3.4,1.4c-0.7,0.7-1.1,1.5-1.4,2.4c-0.1,0.3-0.1,0.7-0.1,1C60.1,37.2,62.3,39.4,65,39.4z"/>
	</g>
	<path class="st3" d="M87.6,34.5c0,0-11.7,3.2-20.8,11.1c5.8,5.7,9,12.2,9.4,19.4C84,58,84.5,42.8,87.6,34.5z"/>
	<path class="st3" d="M73.7,63.7c-0.1-1-0.3-1.9-0.5-2.8c-0.2-0.9-0.5-1.8-0.8-2.7c-0.6-1.7-1.4-3.3-2.4-4.9c-0.5-0.8-1-1.5-1.5-2.2
		c-1.1-1.4-2.2-2.7-3.5-3.9c-0.6-0.6-1.2-1.1-1.8-1.6c-9.1-7.9-20.8-11.1-20.8-11.1c3.3,9.1,3.7,26.5,13.7,32.3
		c0.5,0.3,1,0.5,1.4,0.7c0.3,0.1,0.6,0.3,0.9,0.4c0.6,0.2,1.2,0.4,1.9,0.5c0.3,0.1,0.7,0.1,1.1,0.1c1,0.1,2.1,0.1,3.5,0.1
		c2.5,0,4.8-0.5,6.4-0.9c0.3-0.1,0.6-0.2,0.9-0.3c0.7-0.3,1.3-0.5,1.5-0.7C73.8,65.7,73.8,64.7,73.7,63.7z"/>
	<path class="st2" d="M65.5,109L65.5,109c-1.3,0-2.3-1-2.3-2.3V72.4c0-0.7,0.6-1.4,1.4-1.4h1.9c0.7,0,1.4,0.6,1.4,1.4v34.3
		C67.8,108,66.8,109,65.5,109z"/>
	<path class="st2" d="M36.7,75.2c0,0,19.6,3.8,23.4,22.5C43.5,94.4,36.7,75.2,36.7,75.2z"/>
</g>
<g>
</g>
<g>
</g>
<g>
</g>
<g>
</g>
<g>
</g>
<g>
</g>
</svg>
