<?xml version="1.0" encoding="utf-8"?>
<!-- Generator: Adobe Illustrator 21.1.0, SVG Export Plug-In . SVG Version: 6.00 Build 0)  -->
<svg version="1.1" id="Layer_1" xmlns="http://www.w3.org/2000/svg" xmlns:xlink="http://www.w3.org/1999/xlink" x="0px" y="0px"
	 viewBox="0 0 130 130" style="enable-background:new 0 0 130 130;" xml:space="preserve">
<style type="text/css">
	.st0{fill:#4F748C;}
	.st1{fill:none;}
	.st2{fill:#4F758D;}
	.st3{fill:url(#SVGID_1_);}
	.st4{fill:#FFFFFF;}
	.st5{fill:#E9B8A8;}
</style>
<g>
	<circle class="st0" cx="65" cy="65" r="65"/>
	<path class="st1" d="M82.9,59.4c-0.2,0.1-0.4,0.1-0.7,0.2C82.4,59.6,82.6,59.5,82.9,59.4z"/>
	<path class="st1" d="M84.1,59c-0.3,0.1-0.6,0.2-0.9,0.3C83.5,59.3,83.8,59.1,84.1,59z"/>
	<polygon class="st1" points="49.3,72.7 49.3,72.7 48.7,71.4 	"/>
	<path class="st1" d="M81.8,59.7c-0.2,0-0.4,0.1-0.6,0.1C81.4,59.8,81.6,59.7,81.8,59.7z"/>
	<path class="st1" d="M82.8,56c0.2-0.1,0.3-0.2,0.5-0.2C83.1,55.8,83,55.9,82.8,56z"/>
	<path class="st1" d="M81.9,56.4c0.2-0.1,0.3-0.2,0.5-0.3C82.3,56.2,82.1,56.3,81.9,56.4z"/>
	<path class="st1" d="M81.1,57c0.2-0.1,0.3-0.2,0.5-0.3C81.4,56.8,81.2,56.9,81.1,57z"/>
	<path class="st1" d="M80.3,57.7c0.2-0.1,0.3-0.3,0.5-0.4C80.6,57.4,80.4,57.5,80.3,57.7z"/>
	<path class="st1" d="M85.4,55c0.2,0,0.3-0.1,0.5-0.1C85.7,54.9,85.5,55,85.4,55z"/>
	<path class="st1" d="M84.5,55.2c0.2-0.1,0.3-0.1,0.5-0.1C84.8,55.1,84.7,55.2,84.5,55.2z"/>
	<path class="st1" d="M83.7,55.6c0.2-0.1,0.3-0.1,0.5-0.2C84,55.4,83.8,55.5,83.7,55.6z"/>
	<path class="st1" d="M85.7,58.1c-0.2,0.1-0.3,0.2-0.5,0.3C85.4,58.3,85.6,58.2,85.7,58.1z"/>
	<path class="st1" d="M85,58.6c-0.3,0.2-0.6,0.3-0.9,0.4C84.4,58.9,84.7,58.7,85,58.6z"/>
	<path class="st2" d="M80.7,57.3c0.1-0.1,0.2-0.2,0.4-0.3C81,57.1,80.8,57.2,80.7,57.3z"/>
	<path class="st2" d="M85,55.1c0.1,0,0.2-0.1,0.4-0.1C85.2,55,85.1,55.1,85,55.1z"/>
	<path class="st2" d="M83.3,55.7c0.1-0.1,0.3-0.1,0.4-0.2C83.5,55.6,83.4,55.7,83.3,55.7z"/>
	<path class="st2" d="M84.2,55.4c0.1,0,0.3-0.1,0.4-0.1C84.4,55.3,84.3,55.3,84.2,55.4z"/>
	<path class="st2" d="M82.4,56.1c0.1-0.1,0.3-0.1,0.4-0.2C82.7,56,82.5,56.1,82.4,56.1z"/>
	<path class="st2" d="M81.6,56.7c0.1-0.1,0.2-0.2,0.4-0.2C81.8,56.5,81.7,56.6,81.6,56.7z"/>
	<path class="st2" d="M80.3,57.7c-0.1,0.1-0.2,0.2-0.3,0.3l0,0C80,57.9,80.2,57.8,80.3,57.7z"/>
	<path class="st2" d="M80.7,59.8c0.1,0,0.3,0,0.4,0C81,59.8,80.8,59.8,80.7,59.8C80.7,59.8,80.7,59.8,80.7,59.8z"/>
	<path class="st2" d="M82.2,59.6c-0.1,0-0.3,0-0.4,0.1C81.9,59.7,82.1,59.7,82.2,59.6z"/>
	<path class="st2" d="M86,57.9c-0.1,0.1-0.2,0.1-0.3,0.2C85.8,58,85.9,57.9,86,57.9z"/>
	<path class="st2" d="M83.2,59.4c-0.1,0-0.2,0.1-0.3,0.1C83,59.4,83.1,59.4,83.2,59.4z"/>
	<path class="st2" d="M84.1,59C84.1,59,84.1,59,84.1,59C84.1,59,84.1,59,84.1,59z"/>
	<path class="st2" d="M85.2,58.4c-0.1,0.1-0.2,0.1-0.3,0.2C85.1,58.5,85.1,58.5,85.2,58.4z"/>
	<polygon class="st2" points="79.9,58 79.9,58 79.9,58 	"/>
	<linearGradient id="SVGID_1_" gradientUnits="userSpaceOnUse" x1="58.8689" y1="56.0514" x2="119.0444" y2="116.2269">
		<stop  offset="0" style="stop-color:#6A889D"/>
		<stop  offset="0.1809" style="stop-color:#738EA2"/>
		<stop  offset="0.4985" style="stop-color:#8BA0B2"/>
		<stop  offset="0.9128" style="stop-color:#B5C4CF"/>
		<stop  offset="1" style="stop-color:#BFCDD6"/>
	</linearGradient>
	<path class="st3" d="M27.1,88.1l41.8,41.8C103,127.8,130,99.6,130,65c0-0.5,0-1.1,0-1.6l-27.1-27.1L27.1,88.1z"/>
	<path class="st4" d="M102.9,36.3c-0.3-0.2-0.6-0.4-0.9-0.6c-0.5-0.3-1-0.4-1.5-0.6c-0.4-0.1-0.7-0.1-1.1-0.1H30.7
		c-0.4,0-0.8,0-1.1,0.1c-0.5,0.1-1.1,0.3-1.5,0.6c-0.3,0.2-0.6,0.4-0.9,0.6c-1.2,1-2,2.6-2,4.3v43.2c0,1.7,0.8,3.3,2,4.3
		c0.3,0.2,0.6,0.4,0.9,0.6c0.5,0.3,1,0.4,1.5,0.6c0.4,0.1,0.7,0.1,1.1,0.1h21.6h2.8h21.8h2.8h19.7c0.4,0,0.8,0,1.1-0.1
		c0.5-0.1,1.1-0.3,1.5-0.6c0.3-0.2,0.6-0.4,0.9-0.6c1.2-1,2-2.6,2-4.3V40.6C104.9,38.8,104.1,37.3,102.9,36.3z"/>
	<path class="st4" d="M56.2,92c0.1,0.2,0.1,0.4,0.2,0.5c0.1,0.4,0.1,0.7,0.1,1c0,0.7-0.2,1.5-0.5,2.3c-0.1,0.3-0.3,0.6-0.4,0.9
		c-0.4,0.7-0.8,1.3-1,1.8c-0.2,0.3-0.4,0.5-0.4,0.5h13.3h10.2c0,0-2.4-3.1-2.4-5.5c0-0.5,0.2-1.1,0.4-1.8H56.1
		C56.2,91.9,56.2,92,56.2,92z"/>
	<path class="st2" d="M94.8,62.3c0,13.3-11.4,6.3-17.4,10.2c-5.2,3.4,3.8,11.4-11.8,11.4c-16.1,0-29.2-9.7-29.2-21.6
		s13.1-21.6,29.2-21.6S94.8,50.3,94.8,62.3z"/>
	<path class="st4" d="M59.3,57.2c2.1,0,3.9-1.7,3.9-3.9c0-0.3,0-0.6-0.1-0.8c-0.2-0.7-0.5-1.4-1.1-1.9c-0.7-0.7-1.6-1.1-2.7-1.1
		c-1,0-2,0.4-2.7,1.1c-0.5,0.5-0.9,1.2-1.1,1.9c-0.1,0.3-0.1,0.5-0.1,0.8C55.4,55.4,57.1,57.2,59.3,57.2z"/>
	<path class="st4" d="M72.3,57.1c2.1,0,3.9-1.7,3.9-3.9c0-0.3,0-0.6-0.1-0.8c-0.2-0.7-0.5-1.4-1.1-1.9c-0.7-0.7-1.6-1.1-2.7-1.1
		c-1,0-2,0.4-2.7,1.1c-0.5,0.5-0.9,1.2-1.1,1.9c-0.1,0.3-0.1,0.5-0.1,0.8C68.5,55.4,70.2,57.1,72.3,57.1z"/>
	<path class="st5" d="M49.1,66.4c2.1,0,3.9-1.7,3.9-3.9c0-0.3,0-0.6-0.1-0.8c-0.2-0.7-0.5-1.4-1.1-1.9c-0.7-0.7-1.6-1.1-2.7-1.1
		c-1,0-2,0.4-2.7,1.1c-0.5,0.5-0.9,1.2-1.1,1.9c-0.1,0.3-0.1,0.5-0.1,0.8C45.2,64.7,46.9,66.4,49.1,66.4z"/>
	<path class="st4" d="M79.7,60.6l0.7,1.6c0,0,0,0.1,0,0.1c0.1,0,0.3,0,0.4,0c0.2,0,0.4-0.1,0.6-0.1c0.1,0,0.3,0,0.4-0.1
		c0.2,0,0.4-0.1,0.7-0.2c0.1,0,0.2-0.1,0.3-0.1c0.3-0.1,0.6-0.2,0.9-0.3c0,0,0,0,0,0c0.3-0.1,0.6-0.3,0.9-0.4
		c0.1-0.1,0.2-0.1,0.3-0.2c0.2-0.1,0.3-0.2,0.5-0.3c0.1-0.1,0.2-0.1,0.3-0.2c0.1-0.1,0.3-0.2,0.4-0.3c0.1-0.1,0.2-0.2,0.3-0.2
		c0.1-0.1,0.2-0.2,0.4-0.3c0.1-0.1,0.2-0.2,0.3-0.2c0.1-0.1,0.2-0.2,0.3-0.3c0.1-0.1,0.2-0.2,0.2-0.2c0.1-0.1,0.2-0.2,0.3-0.3
		c0.1-0.1,0.1-0.1,0.2-0.2c0.1-0.1,0.1-0.2,0.2-0.3c0.1-0.1,0.1-0.1,0.2-0.2c0.1-0.1,0.1-0.2,0.2-0.2c0,0,0.1-0.1,0.1-0.1
		c0.1-0.1,0.1-0.1,0.1-0.2c0,0,0.1-0.1,0.1-0.1c0-0.1,0.1-0.1,0.1-0.1c0,0,0,0,0,0c0,0,0-0.1,0-0.1s0,0-0.1,0c0,0,0,0,0,0
		c0,0-0.1,0-0.1,0c0,0-0.1,0-0.1,0c-0.2,0-0.5,0-0.9,0c-0.1,0-0.1,0-0.2,0c-0.1,0-0.3,0-0.4,0c-0.1,0-0.2,0-0.2,0
		c-0.1,0-0.3,0-0.4,0.1c-0.1,0-0.2,0-0.3,0.1c-0.1,0-0.3,0.1-0.4,0.1c-0.1,0-0.2,0.1-0.3,0.1c-0.2,0-0.3,0.1-0.5,0.1
		c-0.1,0-0.2,0.1-0.4,0.1c-0.2,0-0.3,0.1-0.5,0.1c-0.1,0-0.3,0.1-0.4,0.1c-0.2,0.1-0.3,0.1-0.5,0.2c-0.1,0.1-0.3,0.1-0.4,0.2
		c-0.2,0.1-0.3,0.1-0.5,0.2c-0.1,0.1-0.3,0.1-0.4,0.2c-0.2,0.1-0.3,0.2-0.5,0.3c-0.1,0.1-0.3,0.1-0.4,0.2c-0.2,0.1-0.3,0.2-0.5,0.3
		c-0.1,0.1-0.2,0.2-0.4,0.3c-0.2,0.1-0.3,0.3-0.5,0.4c-0.1,0.1-0.2,0.2-0.3,0.3C79.7,60.5,79.7,60.6,79.7,60.6z"/>
	<path class="st4" d="M78.7,62.9l-0.3-0.6l0,0L78.4,62l0,0l-0.3-0.7c0-0.1-0.1-0.1-0.2-0.2c0,0-0.1,0-0.1,0c-0.1,0-0.1-0.1-0.2-0.1
		c0,0-0.1,0-0.1,0c-0.1,0-0.1,0-0.2-0.1c-0.1,0-0.1,0-0.2,0c0,0-0.1,0-0.1,0c0,0-0.1,0-0.1,0c0,0,0,0,0,0c-0.1,0-0.2,0-0.2,0
		c-0.1,0-0.1,0-0.2,0c-0.1,0-0.2,0-0.3,0c-0.1,0-0.1,0-0.2,0c-0.1,0-0.2,0.1-0.3,0.1c-0.1,0-0.1,0-0.2,0c-0.2,0.1-0.3,0.1-0.5,0.2
		c0,0,0,0,0,0L48.4,73.9l0.6,1.3l27.6-10.1c0.7-0.3,1.3-0.7,1.7-1.1C78.7,63.6,78.8,63.2,78.7,62.9z"/>
</g>
<g>
</g>
<g>
</g>
<g>
</g>
<g>
</g>
<g>
</g>
<g>
</g>
</svg>
