<?xml version="1.0" encoding="utf-8"?>
<!-- Generator: Adobe Illustrator 21.1.0, SVG Export Plug-In . SVG Version: 6.00 Build 0)  -->
<svg version="1.1" id="Layer_1" xmlns="http://www.w3.org/2000/svg" xmlns:xlink="http://www.w3.org/1999/xlink" x="0px" y="0px"
	 viewBox="0 0 130 130" style="enable-background:new 0 0 130 130;" xml:space="preserve">
<style type="text/css">
	.st0{fill:#BFCDD6;}
	.st1{fill:url(#SVGID_1_);}
	.st2{fill:#FFFFFF;}
	.st3{fill:#E9B8A8;}
</style>
<g>
	<circle class="st0" cx="65" cy="65" r="65"/>
	
		<linearGradient id="SVGID_1_" gradientUnits="userSpaceOnUse" x1="53.4783" y1="84.6551" x2="116.1238" y2="9.9969" gradientTransform="matrix(1 0 0 -1 0 129.4)">
		<stop  offset="0" style="stop-color:#6A889D"/>
		<stop  offset="0.1809" style="stop-color:#738EA2"/>
		<stop  offset="0.4985" style="stop-color:#8BA0B2"/>
		<stop  offset="0.9128" style="stop-color:#B5C4CF"/>
		<stop  offset="1" style="stop-color:#BFCDD6"/>
	</linearGradient>
	<path class="st1" d="M127.5,82.8L66.3,21.5l-3,40.7l1.2,7.2L64,84.1l-1.9-1l-4.5-0.4c0,0-5.1,2.6-4.8,2.9c0.3,0.3-0.4,3.3-0.4,3.3
		l0.4,5.1l32.7,32.7C105.8,120,121.7,103.5,127.5,82.8z"/>
	<path class="st2" d="M99,77.6c-0.3-1.6-1.1-3-2.3-4.1c-1.5-1.5-3.6-2.3-5.7-2.3s-4.2,0.8-5.7,2.3c-0.6,0.6-1.1,1.3-1.5,2L71.6,64.6
		c0-0.2,0-0.4,0-0.6c0-1.7-0.8-3.3-2.2-4.2V26.4c0-2.9-2.4-5.3-5.3-5.3h-0.9V22v35.2L36.1,32.8l-0.7-0.6l-0.5,0.6
		c-1.9,2.2-1.8,5.5,0.4,7.5l25.8,23.2c0,0.2,0,0.4,0,0.6c0,1.7,0.8,3.3,2.2,4.2v13.5c-1.2-0.7-2.6-1.1-4-1.1c-2.1,0-4.2,0.8-5.7,2.3
		c-1.1,1.1-1.9,2.5-2.3,4.1c-0.1,0.6-0.2,1.2-0.2,1.7c0,4.5,3.7,8.2,8.2,8.2c1.4,0,2.8-0.4,4-1.1v6.4v0.9h0.9c2.9,0,5.3-2.4,5.3-5.3
		V71l16.1,14.5l0.6,0.6l0,0c1.4,0.9,3,1.5,4.6,1.5c4.5,0,8.2-3.7,8.2-8.2C99.2,78.8,99.1,78.2,99,77.6z M86,79.3c0-0.2,0-0.3,0-0.5
		c0-0.2,0-0.4,0.1-0.6c0.2-0.9,0.7-1.8,1.3-2.4c0.9-0.9,2.1-1.4,3.4-1.4s2.5,0.5,3.4,1.4c0.7,0.6,1.1,1.5,1.3,2.4
		c0.1,0.3,0.1,0.7,0.1,1c0,2.7-2.2,4.9-4.9,4.9c-1.2,0-2.3-0.4-3.1-1.1C86.7,82.2,86,80.8,86,79.3z M66.4,66c-1.1,0-2-0.9-2-2
		c0-1.1,0.9-2,2-2c1.1,0,2,0.9,2,2C68.3,65.1,67.4,66,66.4,66z M54.4,88.9c0-0.4,0-0.7,0.1-1c0.2-0.9,0.7-1.8,1.3-2.4
		c0.9-0.9,2.1-1.4,3.4-1.4c1.3,0,2.5,0.5,3.4,1.4c0.7,0.6,1.1,1.5,1.3,2.4c0.1,0.3,0.1,0.7,0.1,1c0,2.7-2.2,4.9-4.9,4.9
		C56.5,93.8,54.4,91.6,54.4,88.9z"/>
	<path class="st3" d="M68.3,64.1c0,1.1-0.9,2-2,2c-1.1,0-2-0.9-2-2c0-1.1,0.9-2,2-2C67.4,62.1,68.3,63,68.3,64.1"/>
</g>
</svg>
