<?xml version="1.0" encoding="utf-8"?>
<!-- Generator: Adobe Illustrator 21.1.0, SVG Export Plug-In . SVG Version: 6.00 Build 0)  -->
<svg version="1.1" id="Layer_1" xmlns="http://www.w3.org/2000/svg" xmlns:xlink="http://www.w3.org/1999/xlink" x="0px" y="0px"
	 viewBox="0 0 300 200" style="enable-background:new 0 0 300 200;" xml:space="preserve">
<style type="text/css">
	.st0{fill:#BFCDD6;}
	.st1{fill:url(#SVGID_1_);}
	.st2{fill:#4F748C;}
	.st3{fill:#FFFFFF;}
</style>
<g>
	<g>
		<path class="st0" d="M273.6,200H26.4C11.8,200,0,188.2,0,173.6V26.4C0,11.8,11.8,0,26.4,0h247.2C288.2,0,300,11.8,300,26.4v147.2
			C300,188.2,288.2,200,273.6,200z"/>
		<linearGradient id="SVGID_1_" gradientUnits="userSpaceOnUse" x1="174.371" y1="36.8253" x2="230.006" y2="217.9289">
			<stop  offset="0" style="stop-color:#7290A3"/>
			<stop  offset="0.2185" style="stop-color:#7D99AA"/>
			<stop  offset="0.602" style="stop-color:#9AB0BE"/>
			<stop  offset="1" style="stop-color:#BFCDD6"/>
		</linearGradient>
		<path class="st1" d="M300,173v-17.8L191.8,42.3l-7-3.6l-74.4,80.5l78.4,80.8h85.4C288.4,200,300,187.9,300,173z"/>
	</g>
	<g>
		<circle class="st2" cx="150.4" cy="80" r="56"/>
		<g>
			<path class="st3" d="M157.6,75l-3,0c-0.4,0-0.8-0.3-0.9-0.7c-0.3-0.7-0.6-1.5-0.9-2.1c-0.2-0.4-0.1-0.8,0.2-1.2l2.3-2.2
				c1-0.9,1-2.1,0.2-2.9l-3.7-3.6c-0.7-0.7-1.8-0.7-2.5,0l-2.6,2.5c-0.3,0.3-0.7,0.3-1.1,0.2c-0.7-0.4-1.5-0.7-2.3-0.9
				c-0.4-0.1-0.7-0.5-0.7-0.9c0-0.8,0-2.3,0-3.4c0-1-0.8-1.8-1.8-1.8h-5.3c-1,0-1.8,0.8-1.8,1.8l0,3c0,0.4-0.3,0.8-0.6,0.9
				c-0.7,0.2-1.3,0.5-1.9,0.9c-0.4,0.2-0.9,0.2-1.2-0.2l-1.9-2.1c-0.9-1-2.2-1-2.9-0.2l-3.3,3.6c-0.6,0.7-0.6,1.8,0,2.5l2.4,2.7
				c0.3,0.3,0.3,0.7,0.2,1.1c-0.3,0.7-0.6,1.5-0.9,2.3c-0.1,0.4-0.5,0.7-0.9,0.7c-0.8,0-2,0-3.1,0c-1,0-1.8,0.8-1.8,1.8v5.3
				c0,1,0.8,1.8,1.8,1.8l2,0c0.4,0,0.8,0.3,0.9,0.7c0.3,0.7,0.6,1.5,0.9,2.1c0.2,0.4,0.1,0.8-0.2,1.2l-2.3,2.2c-1,0.9-1,2.1-0.2,2.9
				l3.7,3.6c0.7,0.7,1.8,0.7,2.5,0l2.6-2.5c0.3-0.3,0.7-0.3,1.1-0.2c0.7,0.4,1.5,0.7,2.3,0.9c0.4,0.1,0.7,0.5,0.7,0.9
				c0,0.8,0,2.3,0,3.4c0,1,0.8,1.8,1.8,1.8h5.3c1,0,1.8-0.8,1.8-1.8l0-3c0-0.4,0.3-0.8,0.7-0.9c0.7-0.3,1.5-0.6,2.1-0.9
				c0.4-0.2,0.8-0.1,1.2,0.2l2.2,2.3c0.9,1,2.1,1,2.9,0.2l3.6-3.7c0.7-0.7,0.7-1.8,0-2.5l-2.5-2.6c-0.3-0.3-0.3-0.7-0.2-1.1
				c0.4-0.7,0.7-1.5,0.9-2.3c0.1-0.4,0.5-0.7,0.9-0.7c0.8,0,2.3,0,3.4,0c1,0,1.8-0.8,1.8-1.8v-5.3C159.4,75.8,158.6,75,157.6,75z
				 M138.3,87.6c-4.5,0-8.2-3.7-8.2-8.2c0-4.5,3.7-8.2,8.2-8.2s8.2,3.7,8.2,8.2C146.5,83.9,142.8,87.6,138.3,87.6z"/>
			<path class="st3" d="M179.9,95.5c0-0.2,0-0.5,0-0.7c0-0.3,0.1-0.6,0.4-0.7l1.4-0.8c0.4-0.2,0.5-0.7,0.3-1l-2.7-4.9
				c-0.2-0.4-0.7-0.5-1.1-0.3l-1.4,0.8c-0.3,0.2-0.6,0.1-0.8,0c-0.3-0.2-0.7-0.5-1.1-0.7c-0.3-0.1-0.4-0.4-0.4-0.7l0-1.5
				c0-0.6-0.3-0.9-0.8-0.9h-5.5c-0.4,0-0.8,0.3-0.8,0.8l0,1.7c0,0.3-0.2,0.6-0.4,0.7c-0.4,0.2-0.7,0.4-1.1,0.7
				c-0.3,0.2-0.6,0.2-0.8,0l-1.2-0.7c-0.5-0.3-1-0.2-1.2,0.2l-2.7,4.9c-0.2,0.4-0.1,0.8,0.3,1l1.4,0.8c0.3,0.2,0.4,0.4,0.4,0.7
				c0,0.2,0,0.4,0,0.7s0,0.5,0,0.7c0,0.3-0.1,0.6-0.4,0.7l-1.4,0.8c-0.4,0.2-0.5,0.7-0.3,1l2.7,4.9c0.2,0.4,0.7,0.5,1.1,0.3l1.4-0.8
				c0.3-0.2,0.6-0.1,0.8,0c0.3,0.2,0.7,0.5,1.1,0.7c0.3,0.1,0.4,0.4,0.4,0.7v1.5c0,0.6,0.3,0.9,0.8,0.9h5.5c0.4,0,0.8-0.3,0.8-0.8
				v-1.7c0-0.3,0.2-0.6,0.4-0.7c0.4-0.2,0.7-0.4,1.1-0.7c0.3-0.2,0.6-0.2,0.8,0l1.2,0.7c0.5,0.3,1,0.2,1.2-0.2l2.7-4.9
				c0.2-0.4,0.1-0.8-0.3-1l-1.4-0.8c-0.3-0.2-0.4-0.4-0.4-0.7C179.9,96,179.9,95.7,179.9,95.5z M172,99c-2.8,0.6-5.2-1.8-4.6-4.6
				c0.3-1.4,1.5-2.6,2.9-2.9c2.8-0.6,5.2,1.8,4.6,4.6C174.5,97.5,173.4,98.7,172,99z"/>
			<path class="st3" d="M178.9,65.5c0-0.2,0-0.5,0-0.7c0-0.3,0.1-0.6,0.4-0.7l1.4-0.8c0.4-0.2,0.5-0.7,0.3-1l-2.7-4.9
				c-0.2-0.4-0.7-0.5-1.1-0.3l-1.4,0.8c-0.3,0.2-0.6,0.1-0.8,0c-0.3-0.2-0.7-0.5-1.1-0.7c-0.3-0.1-0.4-0.4-0.4-0.7l0-1.5
				c0-0.6-0.3-0.9-0.8-0.9h-5.5c-0.4,0-0.8,0.3-0.8,0.8l0,1.7c0,0.3-0.2,0.6-0.4,0.7c-0.4,0.2-0.7,0.4-1.1,0.7
				c-0.3,0.2-0.6,0.2-0.8,0l-1.2-0.7c-0.5-0.3-1-0.2-1.2,0.2l-2.7,4.9c-0.2,0.4-0.1,0.8,0.3,1l1.4,0.8c0.3,0.2,0.4,0.4,0.4,0.7
				c0,0.2,0,0.4,0,0.7s0,0.5,0,0.7c0,0.3-0.1,0.6-0.4,0.7l-1.4,0.8c-0.4,0.2-0.5,0.7-0.3,1l2.7,4.9c0.2,0.4,0.7,0.5,1.1,0.3l1.4-0.8
				c0.3-0.2,0.6-0.1,0.8,0c0.3,0.2,0.7,0.5,1.1,0.7c0.3,0.1,0.4,0.4,0.4,0.7v1.5c0,0.6,0.3,0.9,0.8,0.9h5.5c0.4,0,0.8-0.3,0.8-0.8
				v-1.7c0-0.3,0.2-0.6,0.4-0.7c0.4-0.2,0.7-0.4,1.1-0.7c0.3-0.2,0.6-0.2,0.8,0l1.2,0.7c0.5,0.3,1,0.2,1.2-0.2l2.7-4.9
				c0.2-0.4,0.1-0.8-0.3-1l-1.4-0.8c-0.3-0.2-0.4-0.4-0.4-0.7C178.9,66,178.9,65.7,178.9,65.5z M171,69.2c-2.8,0.6-5.2-1.8-4.6-4.6
				c0.3-1.4,1.5-2.6,2.9-2.9c2.8-0.6,5.2,1.8,4.6,4.6C173.5,67.7,172.4,68.9,171,69.2z"/>
		</g>
	</g>
	<g>
		<path class="st3" d="M87.6,160.1c0.5-0.4,0.9-0.8,1.5-1c0.5-0.3,1.2-0.4,1.9-0.4c0.6,0,1.2,0.1,1.7,0.3c0.5,0.2,0.9,0.5,1.2,0.9
			s0.6,0.8,0.7,1.4c0.2,0.5,0.3,1.1,0.3,1.8v7.4h-2.8v-7.4c0-0.7-0.2-1.3-0.5-1.6c-0.3-0.4-0.8-0.6-1.5-0.6c-0.5,0-0.9,0.1-1.4,0.3
			c-0.4,0.2-0.8,0.5-1.2,0.9v8.4h-2.8v-16.8h2.8V160.1z"/>
		<path class="st3" d="M103,158.7c0.9,0,1.6,0.1,2.3,0.4s1.3,0.7,1.8,1.2c0.5,0.5,0.9,1.1,1.2,1.9c0.3,0.7,0.4,1.6,0.4,2.5
			c0,0.9-0.1,1.7-0.4,2.5c-0.3,0.7-0.7,1.4-1.2,1.9c-0.5,0.5-1.1,0.9-1.8,1.2s-1.5,0.4-2.3,0.4c-0.9,0-1.7-0.1-2.4-0.4
			s-1.3-0.7-1.8-1.2c-0.5-0.5-0.9-1.1-1.2-1.9c-0.3-0.7-0.4-1.6-0.4-2.5c0-0.9,0.1-1.7,0.4-2.5c0.3-0.7,0.7-1.4,1.2-1.9
			s1.1-0.9,1.8-1.2S102.2,158.7,103,158.7z M103,168.5c1,0,1.7-0.3,2.1-1c0.5-0.6,0.7-1.6,0.7-2.8s-0.2-2.2-0.7-2.9
			c-0.5-0.7-1.2-1-2.1-1c-1,0-1.7,0.3-2.2,1c-0.5,0.7-0.7,1.6-0.7,2.8c0,1.2,0.2,2.2,0.7,2.8C101.3,168.1,102,168.5,103,168.5z"/>
		<path class="st3" d="M127.5,158.9l-3.7,11.6h-2.2c-0.3,0-0.4-0.2-0.5-0.5l-2.1-6.7c-0.1-0.2-0.1-0.5-0.2-0.7s-0.1-0.4-0.1-0.7
			c0,0.2-0.1,0.5-0.2,0.7s-0.1,0.5-0.2,0.7l-2.1,6.7c-0.1,0.3-0.3,0.5-0.6,0.5h-2.1l-3.7-11.6h2.2c0.2,0,0.4,0,0.5,0.1
			c0.1,0.1,0.2,0.2,0.3,0.4l1.7,6.2c0.1,0.3,0.2,0.7,0.2,1c0.1,0.3,0.1,0.6,0.2,1c0.1-0.3,0.2-0.6,0.3-1c0.1-0.3,0.2-0.7,0.3-1
			l1.9-6.2c0-0.2,0.1-0.3,0.3-0.4c0.1-0.1,0.3-0.1,0.5-0.1h1.2c0.2,0,0.4,0,0.5,0.1c0.1,0.1,0.2,0.2,0.3,0.4l1.9,6.2
			c0.1,0.3,0.2,0.7,0.3,1c0.1,0.3,0.2,0.7,0.3,1c0.1-0.6,0.2-1.3,0.4-2l1.7-6.2c0.1-0.2,0.1-0.3,0.3-0.4c0.1-0.1,0.3-0.1,0.5-0.1
			H127.5z"/>
		<path class="st3" d="M138.1,155.5c0,0.2,0,0.5-0.1,0.7c-0.1,0.2-0.2,0.4-0.4,0.6s-0.4,0.3-0.6,0.4c-0.2,0.1-0.5,0.1-0.7,0.1
			c-0.2,0-0.5,0-0.7-0.1c-0.2-0.1-0.4-0.2-0.6-0.4s-0.3-0.3-0.4-0.6s-0.1-0.4-0.1-0.7c0-0.2,0-0.5,0.1-0.7s0.2-0.4,0.4-0.6
			c0.2-0.2,0.3-0.3,0.6-0.4c0.2-0.1,0.4-0.1,0.7-0.1c0.2,0,0.5,0,0.7,0.1c0.2,0.1,0.4,0.2,0.6,0.4c0.2,0.2,0.3,0.3,0.4,0.6
			C138,155,138.1,155.3,138.1,155.5z M137.7,158.9v11.6h-2.8v-11.6H137.7z"/>
		<path class="st3" d="M144.7,170.6c-1,0-1.8-0.3-2.3-0.9c-0.5-0.6-0.8-1.4-0.8-2.4V161h-1.2c-0.2,0-0.3,0-0.4-0.1s-0.2-0.2-0.2-0.4
			v-1.1l1.9-0.3l0.6-3.2c0-0.2,0.1-0.3,0.2-0.3c0.1-0.1,0.2-0.1,0.4-0.1h1.4v3.6h3.1v2h-3.1v6.3c0,0.4,0.1,0.6,0.3,0.8
			c0.2,0.2,0.4,0.3,0.7,0.3c0.2,0,0.3,0,0.4-0.1c0.1,0,0.2-0.1,0.3-0.1c0.1,0,0.2-0.1,0.2-0.1c0.1,0,0.1-0.1,0.2-0.1
			c0.1,0,0.2,0,0.2,0.1c0.1,0,0.1,0.1,0.2,0.2l0.8,1.4c-0.4,0.3-0.9,0.6-1.4,0.8S145.3,170.6,144.7,170.6z"/>
		<path class="st3" d="M171.5,158.9l-3.7,11.6h-2.2c-0.3,0-0.4-0.2-0.5-0.5l-2.1-6.7c-0.1-0.2-0.1-0.5-0.2-0.7s-0.1-0.4-0.1-0.7
			c0,0.2-0.1,0.5-0.2,0.7s-0.1,0.5-0.2,0.7l-2.1,6.7c-0.1,0.3-0.3,0.5-0.6,0.5h-2.1l-3.7-11.6h2.2c0.2,0,0.4,0,0.5,0.1
			c0.1,0.1,0.2,0.2,0.3,0.4l1.7,6.2c0.1,0.3,0.2,0.7,0.2,1c0.1,0.3,0.1,0.6,0.2,1c0.1-0.3,0.2-0.6,0.3-1c0.1-0.3,0.2-0.7,0.3-1
			l1.9-6.2c0-0.2,0.1-0.3,0.3-0.4c0.1-0.1,0.3-0.1,0.5-0.1h1.2c0.2,0,0.4,0,0.5,0.1c0.1,0.1,0.2,0.2,0.3,0.4l1.9,6.2
			c0.1,0.3,0.2,0.7,0.3,1c0.1,0.3,0.2,0.7,0.3,1c0.1-0.6,0.2-1.3,0.4-2l1.7-6.2c0.1-0.2,0.1-0.3,0.3-0.4c0.1-0.1,0.3-0.1,0.5-0.1
			H171.5z"/>
		<path class="st3" d="M178.3,158.7c0.9,0,1.6,0.1,2.3,0.4s1.3,0.7,1.8,1.2c0.5,0.5,0.9,1.1,1.2,1.9c0.3,0.7,0.4,1.6,0.4,2.5
			c0,0.9-0.1,1.7-0.4,2.5c-0.3,0.7-0.7,1.4-1.2,1.9c-0.5,0.5-1.1,0.9-1.8,1.2s-1.5,0.4-2.3,0.4c-0.9,0-1.7-0.1-2.4-0.4
			s-1.3-0.7-1.8-1.2c-0.5-0.5-0.9-1.1-1.2-1.9c-0.3-0.7-0.4-1.6-0.4-2.5c0-0.9,0.1-1.7,0.4-2.5c0.3-0.7,0.7-1.4,1.2-1.9
			s1.1-0.9,1.8-1.2S177.5,158.7,178.3,158.7z M178.3,168.5c1,0,1.7-0.3,2.1-1c0.5-0.6,0.7-1.6,0.7-2.8s-0.2-2.2-0.7-2.9
			c-0.5-0.7-1.2-1-2.1-1c-1,0-1.7,0.3-2.2,1c-0.5,0.7-0.7,1.6-0.7,2.8c0,1.2,0.2,2.2,0.7,2.8C176.6,168.1,177.4,168.5,178.3,168.5z"
			/>
		<path class="st3" d="M189.1,160.9c0.4-0.7,0.8-1.2,1.3-1.6c0.5-0.4,1.1-0.6,1.8-0.6c0.5,0,1,0.1,1.3,0.3l-0.2,2.1
			c0,0.1-0.1,0.2-0.2,0.3c-0.1,0.1-0.2,0.1-0.3,0.1c-0.1,0-0.3,0-0.5-0.1c-0.2,0-0.4-0.1-0.6-0.1c-0.3,0-0.6,0-0.8,0.1
			c-0.2,0.1-0.5,0.2-0.6,0.4c-0.2,0.2-0.4,0.4-0.5,0.6c-0.1,0.2-0.3,0.5-0.4,0.8v7.1h-2.8v-11.6h1.6c0.3,0,0.5,0.1,0.6,0.2
			c0.1,0.1,0.2,0.3,0.2,0.5L189.1,160.9z"/>
		<path class="st3" d="M198.1,153.7v9.6h0.5c0.2,0,0.3,0,0.4-0.1c0.1,0,0.2-0.1,0.3-0.3l2.9-3.6c0.1-0.2,0.3-0.3,0.4-0.4
			c0.1-0.1,0.3-0.1,0.6-0.1h2.5l-3.6,4.3c-0.3,0.3-0.5,0.6-0.8,0.8c0.2,0.1,0.3,0.2,0.4,0.4s0.2,0.3,0.4,0.5l3.9,5.6h-2.5
			c-0.2,0-0.4,0-0.6-0.1c-0.2-0.1-0.3-0.2-0.4-0.4l-3-4.4c-0.1-0.2-0.2-0.3-0.3-0.3c-0.1-0.1-0.3-0.1-0.5-0.1h-0.6v5.3h-2.8v-16.8
			H198.1z"/>
		<path class="st3" d="M214.7,161.1c-0.1,0.1-0.2,0.2-0.2,0.3c-0.1,0-0.2,0.1-0.3,0.1c-0.1,0-0.3,0-0.4-0.1s-0.3-0.2-0.5-0.3
			s-0.4-0.2-0.7-0.3s-0.6-0.1-0.9-0.1c-0.5,0-1,0.1-1.3,0.3s-0.5,0.5-0.5,0.9c0,0.2,0.1,0.5,0.2,0.6c0.2,0.2,0.4,0.3,0.6,0.4
			c0.3,0.1,0.6,0.2,0.9,0.3c0.3,0.1,0.7,0.2,1,0.3s0.7,0.3,1,0.4c0.3,0.2,0.6,0.3,0.9,0.6c0.3,0.2,0.5,0.5,0.6,0.9s0.2,0.7,0.2,1.2
			c0,0.6-0.1,1.1-0.3,1.5s-0.5,0.9-0.9,1.2c-0.4,0.3-0.9,0.6-1.5,0.8c-0.6,0.2-1.2,0.3-2,0.3c-0.4,0-0.8,0-1.2-0.1s-0.7-0.2-1.1-0.3
			s-0.7-0.3-1-0.5c-0.3-0.2-0.6-0.4-0.8-0.6l0.6-1.1c0.1-0.1,0.2-0.2,0.3-0.3c0.1-0.1,0.3-0.1,0.4-0.1c0.2,0,0.3,0,0.5,0.1
			s0.3,0.2,0.5,0.3c0.2,0.1,0.4,0.2,0.7,0.3c0.3,0.1,0.6,0.1,1,0.1c0.3,0,0.6,0,0.9-0.1c0.2-0.1,0.4-0.2,0.6-0.3s0.3-0.3,0.3-0.4
			c0.1-0.2,0.1-0.3,0.1-0.5c0-0.3-0.1-0.5-0.2-0.7c-0.2-0.2-0.4-0.3-0.6-0.5c-0.3-0.1-0.6-0.2-0.9-0.3s-0.7-0.2-1-0.3
			s-0.7-0.3-1-0.4c-0.3-0.2-0.6-0.4-0.9-0.6s-0.5-0.6-0.6-0.9c-0.2-0.4-0.2-0.8-0.2-1.3c0-0.5,0.1-0.9,0.3-1.4
			c0.2-0.4,0.5-0.8,0.8-1.1c0.4-0.3,0.8-0.6,1.4-0.8c0.5-0.2,1.2-0.3,1.9-0.3c0.8,0,1.5,0.1,2.2,0.4s1.2,0.6,1.6,1L214.7,161.1z"/>
	</g>
</g>
<g>
</g>
<g>
</g>
<g>
</g>
<g>
</g>
<g>
</g>
<g>
</g>
</svg>
