<svg class="lds-spinner" xmlns="http://www.w3.org/2000/svg" viewBox="0 0 100 100" preserveAspectRatio="xMidYMid">
  <rect x="47" y="24" rx="9.4" ry="4.8" width="6" height="12" fill="#1d3f72">
    <animate attributeName="opacity" values="1;0" dur="0.9s" begin="-0.8250000000000001s" repeatCount="indefinite"/>
  </rect>
  <rect x="47" y="24" rx="9.4" ry="4.8" width="6" height="12" fill="#1d3f72" transform="rotate(30 50 50)">
    <animate attributeName="opacity" values="1;0" dur="0.9s" begin="-0.75s" repeatCount="indefinite"/>
  </rect>
  <rect x="47" y="24" rx="9.4" ry="4.8" width="6" height="12" fill="#1d3f72" transform="rotate(60 50 50)">
    <animate attributeName="opacity" values="1;0" dur="0.9s" begin="-0.6749999999999999s" repeatCount="indefinite"/>
  </rect>
  <rect x="47" y="24" rx="9.4" ry="4.8" width="6" height="12" fill="#1d3f72" transform="rotate(90 50 50)">
    <animate attributeName="opacity" values="1;0" dur="0.9s" begin="-0.6s" repeatCount="indefinite"/>
  </rect>
  <rect x="47" y="24" rx="9.4" ry="4.8" width="6" height="12" fill="#1d3f72" transform="rotate(120 50 50)">
    <animate attributeName="opacity" values="1;0" dur="0.9s" begin="-0.525s" repeatCount="indefinite"/>
  </rect>
  <rect x="47" y="24" rx="9.4" ry="4.8" width="6" height="12" fill="#1d3f72" transform="rotate(150 50 50)">
    <animate attributeName="opacity" values="1;0" dur="0.9s" begin="-0.45s" repeatCount="indefinite"/>
  </rect>
  <rect x="47" y="24" rx="9.4" ry="4.8" width="6" height="12" fill="#1d3f72" transform="rotate(180 50 50)">
    <animate attributeName="opacity" values="1;0" dur="0.9s" begin="-0.375s" repeatCount="indefinite"/>
  </rect>
  <rect x="47" y="24" rx="9.4" ry="4.8" width="6" height="12" fill="#1d3f72" transform="rotate(210 50 50)">
    <animate attributeName="opacity" values="1;0" dur="0.9s" begin="-0.3s" repeatCount="indefinite"/>
  </rect>
  <rect x="47" y="24" rx="9.4" ry="4.8" width="6" height="12" fill="#1d3f72" transform="rotate(240 50 50)">
    <animate attributeName="opacity" values="1;0" dur="0.9s" begin="-0.225s" repeatCount="indefinite"/>
  </rect>
  <rect x="47" y="24" rx="9.4" ry="4.8" width="6" height="12" fill="#1d3f72" transform="rotate(270 50 50)">
    <animate attributeName="opacity" values="1;0" dur="0.9s" begin="-0.15s" repeatCount="indefinite"/>
  </rect>
  <rect x="47" y="24" rx="9.4" ry="4.8" width="6" height="12" fill="#1d3f72" transform="rotate(300 50 50)">
    <animate attributeName="opacity" values="1;0" dur="0.9s" begin="-0.075s" repeatCount="indefinite"/>
  </rect>
  <rect x="47" y="24" rx="9.4" ry="4.8" width="6" height="12" fill="#1d3f72" transform="rotate(330 50 50)">
    <animate attributeName="opacity" values="1;0" dur="0.9s" begin="0s" repeatCount="indefinite"/>
  </rect>
</svg>
