<?xml version="1.0" encoding="utf-8"?>
<!-- Generator: Adobe Illustrator 21.1.0, SVG Export Plug-In . SVG Version: 6.00 Build 0)  -->
<svg version="1.1" id="Layer_1" xmlns="http://www.w3.org/2000/svg" xmlns:xlink="http://www.w3.org/1999/xlink" x="0px" y="0px"
	 viewBox="0 0 325 109.5" style="enable-background:new 0 0 325 109.5;" xml:space="preserve">
<style type="text/css">
	.st0{fill:#4F748C;}
	.st1{fill:#FFFFFF;}
	.st2{fill:#BFCDD7;}
</style>
<g>
	<path class="st0" d="M316.7,108H8.1c-3.7,0-6.8-3-6.8-6.8V8.1c0-3.7,3-6.8,6.8-6.8h308.5c3.7,0,6.8,3,6.8,6.8v93.1
		C323.5,105,320.4,108,316.7,108z"/>
	<g>
		<circle class="st1" cx="87.3" cy="54.7" r="28.4"/>
		<path class="st0" d="M88.1,55.8v10.9c0,0.4,0.2,0.8,0.5,1l3.2,2.6c0.2,0.1,0.2,0.3,0.1,0.5c-0.1,0.2-0.2,0.3-0.4,0.3H83
			c-0.2,0-0.4-0.1-0.4-0.3c-0.1-0.2,0-0.4,0.1-0.5l3.1-2.5c0.3-0.3,0.5-0.6,0.5-1V55.8c0-0.7-0.2-1.3-0.7-1.8L73.9,40.7
			c-0.1-0.1-0.1-0.3-0.1-0.5s0.2-0.3,0.4-0.3h5.1c0,0.2,0,0.3,0,0.5c0,1.8,1.4,3.2,3.2,3.2c1.8,0,3.2-1.4,3.2-3.2c0-0.2,0-0.3,0-0.5
			h14.7c0.2,0,0.3,0.1,0.4,0.3c0.1,0.2,0,0.4-0.1,0.5L88.8,53.9C88.4,54.4,88.1,55.1,88.1,55.8z M82.5,42.5c1.2,0,2.1-1,2.1-2.1
			c0-0.2,0-0.3-0.1-0.5c-0.1-0.4-0.3-0.8-0.6-1.1c-0.4-0.4-0.9-0.6-1.5-0.6c-0.6,0-1.1,0.2-1.5,0.6c-0.3,0.3-0.5,0.7-0.6,1.1
			c0,0.1-0.1,0.3-0.1,0.5C80.4,41.6,81.3,42.5,82.5,42.5z"/>
	</g>
	<g>
		<path class="st1" d="M127.9,58.6c0.1,0.7,0.3,1.3,0.5,1.9c0.3,0.6,0.6,1.1,1.1,1.5c0.4,0.4,0.9,0.7,1.5,1c0.6,0.2,1.1,0.4,1.8,0.4
			c1,0,1.8-0.2,2.6-0.7c0.8-0.5,1.4-1.1,1.9-1.8l2.2,1.4c-0.7,1.1-1.6,2-2.8,2.7c-1.2,0.7-2.5,1-3.9,1c-1,0-1.9-0.2-2.8-0.6
			c-0.9-0.4-1.6-0.9-2.3-1.5c-0.7-0.7-1.2-1.4-1.6-2.3c-0.4-0.9-0.7-1.9-0.8-2.9c0-0.1,0-0.2,0-0.3s0-0.3,0-0.4
			c0-0.7,0.1-1.3,0.2-1.9c0.2-0.9,0.5-1.7,1-2.5c0.5-0.8,1-1.4,1.6-2s1.4-1,2.2-1.3c0.8-0.3,1.6-0.5,2.5-0.5c0.9,0,1.7,0.2,2.5,0.5
			c0.8,0.3,1.5,0.7,2.2,1.3c0.6,0.6,1.2,1.2,1.6,2c0.5,0.8,0.8,1.6,1,2.5c0.1,0.6,0.2,1.2,0.2,1.9c0,0.1,0,0.3,0,0.4s0,0.2,0,0.3
			H127.9z M137.3,56c-0.4-1.1-0.9-1.9-1.8-2.6c-0.8-0.7-1.8-1-2.8-1c-1.1,0-2,0.3-2.8,1c-0.8,0.7-1.4,1.5-1.8,2.6H137.3z"/>
		<path class="st1" d="M158.3,50.3l-6.5,15h-2.6l-6.5-15h2.8l4.9,11.4l4.9-11.4H158.3z"/>
		<path class="st1" d="M163.5,58.6c0.1,0.7,0.3,1.3,0.5,1.9c0.3,0.6,0.6,1.1,1.1,1.5c0.4,0.4,0.9,0.7,1.5,1c0.6,0.2,1.1,0.4,1.8,0.4
			c1,0,1.8-0.2,2.6-0.7c0.8-0.5,1.4-1.1,1.9-1.8l2.2,1.4c-0.7,1.1-1.6,2-2.8,2.7c-1.2,0.7-2.5,1-3.9,1c-1,0-1.9-0.2-2.8-0.6
			c-0.9-0.4-1.6-0.9-2.3-1.5c-0.7-0.7-1.2-1.4-1.6-2.3c-0.4-0.9-0.7-1.9-0.8-2.9c0-0.1,0-0.2,0-0.3s0-0.3,0-0.4
			c0-0.7,0.1-1.3,0.2-1.9c0.2-0.9,0.5-1.7,1-2.5c0.5-0.8,1-1.4,1.6-2c0.6-0.6,1.4-1,2.2-1.3c0.8-0.3,1.6-0.5,2.5-0.5
			c0.9,0,1.7,0.2,2.5,0.5s1.5,0.7,2.2,1.3c0.6,0.6,1.2,1.2,1.6,2c0.5,0.8,0.8,1.6,1,2.5c0.1,0.6,0.2,1.2,0.2,1.9c0,0.1,0,0.3,0,0.4
			s0,0.2,0,0.3H163.5z M172.9,56c-0.4-1.1-0.9-1.9-1.8-2.6c-0.8-0.7-1.8-1-2.8-1c-1.1,0-2,0.3-2.8,1c-0.8,0.7-1.4,1.5-1.8,2.6H172.9
			z"/>
		<path class="st1" d="M194.1,54.8c0,0.2,0.1,0.4,0.1,0.6c0,0.2,0,0.3,0,0.5v0.4v9h-2.7v-8.8c0-0.3,0-0.7-0.1-1.2
			c-0.1-0.5-0.2-0.9-0.5-1.4c-0.3-0.4-0.6-0.8-1.1-1.1c-0.5-0.3-1.2-0.5-2-0.5c-1,0-1.8,0.2-2.4,0.5s-1.1,0.7-1.4,1.1
			c-0.3,0.4-0.5,0.9-0.6,1.3c-0.1,0.4-0.2,0.8-0.2,1v9.2h-2.7v-15h2.7v1.3c0,0,0.1-0.1,0.3-0.3c0.2-0.2,0.5-0.4,0.9-0.7
			c0.4-0.2,0.9-0.4,1.4-0.6c0.6-0.2,1.2-0.3,2-0.3c1.1,0,2.1,0.2,2.9,0.5s1.4,0.8,1.8,1.3c0.5,0.5,0.8,1.1,1,1.7
			C193.8,53.8,194,54.4,194.1,54.8z"/>
		<path class="st1" d="M206.9,65.6c-0.1,0-0.2,0.1-0.5,0.2c-0.3,0.1-0.6,0.1-1,0.2c-0.4,0-0.9,0-1.3-0.1c-0.5-0.1-1-0.3-1.4-0.6
			c-1.4-0.9-2.1-2.7-2.1-5.3v-7h-1.9v-2.6h1.9v-6.9h2.6v6.9h3.1v2.6h-3.1v7c0,1.6,0.3,2.7,0.9,3.1c0.2,0.1,0.4,0.2,0.6,0.2
			c0.2,0,0.4,0,0.6,0c0.2,0,0.4-0.1,0.7-0.1L206.9,65.6z"/>
		<path class="st2" d="M226.3,49.8c1,0,2,0.2,2.9,0.6c0.9,0.4,1.7,1,2.4,1.7c0.7,0.7,1.2,1.6,1.6,2.5c0.4,1,0.6,2,0.6,3.2
			c0,1.1-0.2,2.1-0.6,3.1c-0.4,1-0.9,1.8-1.6,2.6c-0.7,0.7-1.5,1.3-2.4,1.7c-0.9,0.4-1.9,0.6-2.9,0.6s-2-0.2-2.9-0.6
			c-0.9-0.4-1.7-1-2.3-1.7v1.7h-2.7V43.4h2.7v8.7c0.7-0.7,1.4-1.3,2.3-1.7C224.3,50,225.2,49.8,226.3,49.8z M226.1,63.3
			c0.7,0,1.3-0.1,2-0.4c0.6-0.3,1.2-0.7,1.6-1.2c0.5-0.5,0.8-1.1,1.1-1.8c0.3-0.7,0.4-1.4,0.4-2.1c0-0.7-0.1-1.5-0.4-2.1
			c-0.3-0.7-0.6-1.2-1.1-1.7c-0.5-0.5-1-0.9-1.6-1.2c-0.6-0.3-1.3-0.4-2-0.4c-0.7,0-1.3,0.1-2,0.4c-0.6,0.3-1.2,0.7-1.6,1.2
			c-0.5,0.5-0.8,1.1-1.1,1.7c-0.3,0.7-0.4,1.4-0.4,2.1c0,0.7,0.1,1.5,0.4,2.1c0.3,0.7,0.6,1.2,1.1,1.8c0.5,0.5,1,0.9,1.6,1.2
			C224.7,63.2,225.4,63.3,226.1,63.3z"/>
		<path class="st2" d="M241.6,46.1c0,0.5-0.2,0.9-0.5,1.2c-0.3,0.3-0.7,0.5-1.2,0.5c-0.5,0-0.9-0.2-1.2-0.5
			c-0.3-0.3-0.5-0.8-0.5-1.2s0.2-0.9,0.5-1.2c0.3-0.3,0.8-0.5,1.2-0.5c0.5,0,0.9,0.2,1.2,0.5C241.4,45.2,241.6,45.6,241.6,46.1z
			 M241.2,65.3h-2.7v-15h2.7V65.3z"/>
		<path class="st2" d="M261.4,43.4v21.9h-2.7v-1.7c-0.7,0.7-1.5,1.3-2.4,1.7c-0.9,0.4-1.9,0.6-2.9,0.6s-2-0.2-2.9-0.6
			c-0.9-0.4-1.7-1-2.4-1.7s-1.2-1.6-1.6-2.6c-0.4-1-0.6-2-0.6-3.1c0-1.1,0.2-2.2,0.6-3.2c0.4-1,0.9-1.8,1.6-2.6
			c0.7-0.7,1.5-1.3,2.4-1.7c0.9-0.4,1.9-0.6,2.9-0.6s2,0.2,2.9,0.6c0.9,0.4,1.7,1,2.4,1.7v-8.7H261.4z M253.7,63.3
			c0.7,0,1.3-0.1,2-0.4c0.6-0.3,1.2-0.7,1.6-1.2c0.5-0.5,0.8-1.1,1.1-1.7c0.3-0.7,0.4-1.4,0.4-2.1s-0.1-1.5-0.4-2.1
			c-0.3-0.7-0.6-1.2-1.1-1.7c-0.5-0.5-1-0.9-1.6-1.2c-0.6-0.3-1.3-0.4-2-0.4c-0.7,0-1.3,0.1-2,0.4c-0.6,0.3-1.2,0.7-1.6,1.2
			c-0.5,0.5-0.8,1.1-1.1,1.7c-0.3,0.7-0.4,1.4-0.4,2.1s0.1,1.5,0.4,2.1c0.3,0.7,0.6,1.2,1.1,1.7c0.5,0.5,1,0.9,1.6,1.2
			C252.3,63.2,253,63.3,253.7,63.3z"/>
	</g>
</g>
</svg>
