<?xml version="1.0" encoding="utf-8"?>
<!-- Generator: Adobe Illustrator 21.1.0, SVG Export Plug-In . SVG Version: 6.00 Build 0)  -->
<svg version="1.1" id="Layer_1" xmlns="http://www.w3.org/2000/svg" xmlns:xlink="http://www.w3.org/1999/xlink" x="0px" y="0px"
	 viewBox="0 0 130 130" style="enable-background:new 0 0 130 130;" xml:space="preserve">
<style type="text/css">
	.st0{fill:#4F748C;}
	.st1{fill:url(#SVGID_1_);}
	.st2{fill:#FFFFFF;}
	.st3{fill:#4F758D;}
	.st4{fill:#E9B8A8;}
</style>
<g>
	<circle class="st0" cx="65" cy="65" r="65"/>
	<linearGradient id="SVGID_1_" gradientUnits="userSpaceOnUse" x1="41.9871" y1="45.1017" x2="107.0845" y2="122.6818">
		<stop  offset="0" style="stop-color:#6A889D"/>
		<stop  offset="0.1809" style="stop-color:#738EA2"/>
		<stop  offset="0.4985" style="stop-color:#8BA0B2"/>
		<stop  offset="0.9128" style="stop-color:#B5C4CF"/>
		<stop  offset="1" style="stop-color:#BFCDD6"/>
	</linearGradient>
	<path class="st1" d="M127.8,81.8L64.3,18.3L64.7,38l-2.1,15.4v2.4l0.7,0.7l-29.1,0.5L32,60.3v14.2v11.1l5.8,12.3l-4.2,2.8
		l29.3,29.3c0.7,0,1.4,0.1,2.1,0.1C95.1,130,120.4,109.6,127.8,81.8z"/>
	<path class="st2" d="M64.3,18.3c0,0,6.5,8.9,1,17.5C59.8,28.2,64.3,18.3,64.3,18.3z"/>
	<path class="st2" d="M34.8,83.2c1,0,2-0.3,2.7-1.1c0.7-0.7,1.1-1.7,1.1-2.7c0-3.4,2.8-6.2,6.2-6.2c3.4,0,6.2,2.8,6.2,6.2
		c0,4,0.6,8.7,3.7,8.7c1.3,0,3.7,0,3.7-8.7c0-3.4,2.8-6.2,6.2-6.2c3.4,0,6.2,2.8,6.2,6.2c0,2.1,1.7,3.7,3.7,3.7s3.7-1.7,3.7-3.7
		c0-3.4,2.8-6.2,6.2-6.2s6.2,2.8,6.2,6.2c0,1,0.4,2,1.1,2.7c0.7,0.7,1.7,1.1,2.7,1.1c2-0.1,3.6-1.8,3.6-3.9V59.4
		c0-2-1.6-3.5-3.5-3.5H34.7c-2,0-3.5,1.6-3.5,3.5v19.8C31.2,81.3,32.8,83.1,34.8,83.2z"/>
	<path class="st3" d="M94.6,85.6c-1.7,0.1-3.3-0.6-4.5-1.7c-1.2-1.2-1.9-2.7-1.9-4.4c0-2.1-1.7-3.7-3.7-3.7s-3.7,1.7-3.7,3.7
		c0,3.4-2.8,6.2-6.2,6.2c-3.4,0-6.2-2.8-6.2-6.2c0-2.1-1.7-3.7-3.7-3.7c-2.1,0-3.7,1.7-3.7,3.7c0,7.8-1.8,11.1-6.2,11.1
		c-2.8,0-6.2-1.9-6.2-11.1c0-2.1-1.7-3.7-3.7-3.7c-2.1,0-3.7,1.7-3.7,3.7c0,1.7-0.7,3.3-1.9,4.4c-1.2,1.2-2.8,1.8-4.5,1.7
		c-1,0-1.9-0.3-2.7-0.8v12.4c0,2.5,2,4.5,4.5,4.5h56.4c2.5,0,4.5-2,4.5-4.5V84.8C96.5,85.3,95.6,85.6,94.6,85.6z"/>
	<path class="st4" d="M45,68.8c2.1,0,3.9-1.7,3.9-3.9c0-0.3,0-0.6-0.1-0.8c-0.2-0.7-0.5-1.4-1.1-1.9C47,61.5,46,61.1,45,61.1
		c-1,0-2,0.4-2.7,1.1c-0.5,0.5-0.9,1.2-1.1,1.9c-0.1,0.3-0.1,0.5-0.1,0.8C41.1,67.1,42.8,68.8,45,68.8z"/>
	<path class="st4" d="M64.7,68.8c2.1,0,3.9-1.7,3.9-3.9c0-0.3,0-0.6-0.1-0.8c-0.2-0.7-0.5-1.4-1.1-1.9c-0.7-0.7-1.6-1.1-2.7-1.1
		c-1,0-2,0.4-2.7,1.1c-0.5,0.5-0.9,1.2-1.1,1.9c-0.1,0.3-0.1,0.5-0.1,0.8C60.8,67.1,62.6,68.8,64.7,68.8z"/>
	<path class="st4" d="M84.2,68.8c2.1,0,3.9-1.7,3.9-3.9c0-0.3,0-0.6-0.1-0.8c-0.2-0.7-0.5-1.4-1.1-1.9c-0.7-0.7-1.6-1.1-2.7-1.1
		c-1,0-2,0.4-2.7,1.1c-0.5,0.5-0.9,1.2-1.1,1.9c-0.1,0.3-0.1,0.5-0.1,0.8C80.4,67.1,82.1,68.8,84.2,68.8z"/>
	<path class="st2" d="M67.3,53.4v-14c0-0.7-0.6-1.4-1.4-1.4h-1.9c-0.7,0-1.4,0.6-1.4,1.4v14H67.3z"/>
</g>
<g>
</g>
<g>
</g>
<g>
</g>
<g>
</g>
<g>
</g>
<g>
</g>
</svg>
