<?xml version="1.0" encoding="utf-8"?>
<!-- Generator: Adobe Illustrator 21.1.0, SVG Export Plug-In . SVG Version: 6.00 Build 0)  -->
<svg version="1.1" id="Layer_1" xmlns="http://www.w3.org/2000/svg" xmlns:xlink="http://www.w3.org/1999/xlink" x="0px" y="0px"
	 viewBox="0 0 130 130" style="enable-background:new 0 0 130 130;" xml:space="preserve">
<style type="text/css">
	.st0{fill:#4F748C;}
	.st1{fill:url(#SVGID_1_);}
	.st2{fill:#E9B8A8;}
	.st3{fill:#FFFFFF;}
</style>
<g>
	<circle class="st0" cx="65" cy="65" r="65"/>
	<linearGradient id="SVGID_1_" gradientUnits="userSpaceOnUse" x1="40.3659" y1="46.9906" x2="107.6423" y2="114.267">
		<stop  offset="0" style="stop-color:#6A889D"/>
		<stop  offset="0.1809" style="stop-color:#738EA2"/>
		<stop  offset="0.4985" style="stop-color:#8BA0B2"/>
		<stop  offset="0.9128" style="stop-color:#B5C4CF"/>
		<stop  offset="1" style="stop-color:#BFCDD6"/>
	</linearGradient>
	<path class="st1" d="M129.1,76L80.3,27.3L60.5,49l-11-11L35.9,51.5l8.3,8.3H32.7V93l-2.4,3.6L63.7,130c0.4,0,0.9,0,1.3,0
		C97.1,130,123.8,106.7,129.1,76z"/>
	<path class="st2" d="M46,83c2.7,0,4.9-2.2,4.9-4.9c0-0.4,0-0.7-0.1-1c-0.2-0.9-0.7-1.8-1.4-2.4c-0.9-0.9-2.1-1.4-3.4-1.4
		c-1.3,0-2.5,0.5-3.4,1.4c-0.7,0.7-1.1,1.5-1.4,2.4c-0.1,0.3-0.1,0.7-0.1,1C41.1,80.8,43.3,83,46,83z"/>
	<path class="st3" d="M42.2,53.8c5.3,0,9.6-4.3,9.6-9.6c0-0.7-0.1-1.4-0.2-2c-0.4-1.9-1.3-3.5-2.6-4.8c-1.7-1.7-4.1-2.7-6.7-2.7
		c-2.6,0-5,1-6.7,2.7c-1.3,1.3-2.2,2.9-2.6,4.8c-0.1,0.7-0.2,1.3-0.2,2C32.7,49.5,36.9,53.8,42.2,53.8z"/>
	<path class="st3" d="M70.1,52.9c8.1,0,14.6-6.7,14.6-14.9c0-1.1-0.1-2.2-0.4-3.2c-0.6-2.9-2-5.5-4-7.5c-2.6-2.6-6.2-4.3-10.2-4.3
		c-4,0-7.6,1.6-10.2,4.3c-2,2-3.4,4.6-4,7.5c-0.2,1-0.4,2.1-0.4,3.2C55.5,46.2,62.1,52.9,70.1,52.9z"/>
	<path class="st3" d="M102.1,64l-10.3,6.5c-0.7,0.4-1.1,1.2-1.1,2v11.3c0,0.8,0.4,1.6,1.1,2l10.3,6.2c1.9,1.1,4.2-0.2,4.2-2.4V66.4
		C106.4,64.2,104,62.8,102.1,64z"/>
	<path class="st3" d="M82.7,57.3h-48c-3,0-5.5,2.5-5.5,5.5v30.5c0,3,2.5,5.5,5.5,5.5h48c3,0,5.5-2.5,5.5-5.5V62.8
		C88.2,59.7,85.7,57.3,82.7,57.3z M81.5,94.3H35.8c-1.2,0-2.2-1-2.2-2.2V63.9c0-1.2,1-2.2,2.2-2.2h45.7c1.2,0,2.2,1,2.2,2.2v2.8
		H61.4c-0.8,0-1.5,0.7-1.5,1.5v3.4c0,0.8,0.7,1.5,1.5,1.5h22.4v19.1C83.8,93.3,82.8,94.3,81.5,94.3z"/>
</g>
<g>
</g>
<g>
</g>
<g>
</g>
<g>
</g>
<g>
</g>
<g>
</g>
</svg>
