<?xml version="1.0" encoding="utf-8"?>
<!-- Generator: Adobe Illustrator 21.1.0, SVG Export Plug-In . SVG Version: 6.00 Build 0)  -->
<svg version="1.1" id="Layer_1" xmlns="http://www.w3.org/2000/svg" xmlns:xlink="http://www.w3.org/1999/xlink" x="0px" y="0px"
	 viewBox="0 0 350 100" style="enable-background:new 0 0 350 100;" xml:space="preserve">
<style type="text/css">
	.st0{fill:url(#SVGID_1_);}
	.st1{fill:#FFFFFF;}
</style>
<g>
	<linearGradient id="SVGID_1_" gradientUnits="userSpaceOnUse" x1="234.1406" y1="100.042" x2="8.0843" y2="-91.2364">
		<stop  offset="0" style="stop-color:#7290A3"/>
		<stop  offset="0.2185" style="stop-color:#7D99AA"/>
		<stop  offset="0.602" style="stop-color:#9AB0BE"/>
		<stop  offset="1" style="stop-color:#BFCDD6"/>
	</linearGradient>
	<path class="st0" d="M336,100H14c-7.8,0-14-6.3-14-14V14C0,6.3,6.3,0,14,0H336c7.8,0,14,6.3,14,14V86C350,93.7,343.7,100,336,100z"
		/>
	<g>
		<g>
			<path class="st1" d="M96.5,44.7c0.7-0.8,1.5-1.5,2.4-2c0.9-0.5,2-0.8,3.2-0.8c1,0,1.8,0.2,2.6,0.6c0.8,0.4,1.5,1,2,1.7
				c0.6,0.8,1,1.7,1.3,2.8c0.3,1.1,0.5,2.4,0.5,3.8c0,1.3-0.2,2.5-0.5,3.6c-0.4,1.1-0.9,2.1-1.5,2.9c-0.7,0.8-1.4,1.5-2.4,1.9
				c-0.9,0.5-2,0.7-3.1,0.7c-1,0-1.8-0.2-2.5-0.5c-0.7-0.3-1.3-0.7-1.9-1.3v7.2h-4.2V42.3H95c0.5,0,0.9,0.3,1.1,0.8L96.5,44.7z
				 M96.7,55.3c0.5,0.6,1,1,1.6,1.2c0.6,0.2,1.2,0.4,1.8,0.4c0.6,0,1.2-0.1,1.7-0.4c0.5-0.2,0.9-0.6,1.3-1.1
				c0.4-0.5,0.6-1.1,0.8-1.8c0.2-0.7,0.3-1.6,0.3-2.6c0-1-0.1-1.9-0.2-2.6c-0.2-0.7-0.4-1.3-0.7-1.7c-0.3-0.4-0.7-0.8-1.1-1
				c-0.4-0.2-0.9-0.3-1.5-0.3c-0.9,0-1.6,0.2-2.2,0.6c-0.6,0.4-1.2,0.9-1.7,1.6V55.3z"/>
			<path class="st1" d="M119.9,42c1.3,0,2.5,0.2,3.5,0.6c1.1,0.4,2,1,2.7,1.8c0.8,0.8,1.3,1.7,1.7,2.8c0.4,1.1,0.6,2.4,0.6,3.7
				c0,1.4-0.2,2.6-0.6,3.8c-0.4,1.1-1,2.1-1.7,2.8c-0.8,0.8-1.7,1.4-2.7,1.8c-1.1,0.4-2.2,0.6-3.5,0.6c-1.3,0-2.5-0.2-3.6-0.6
				c-1.1-0.4-2-1-2.7-1.8c-0.8-0.8-1.3-1.7-1.8-2.8c-0.4-1.1-0.6-2.4-0.6-3.8c0-1.4,0.2-2.6,0.6-3.7c0.4-1.1,1-2.1,1.8-2.8
				c0.8-0.8,1.7-1.4,2.7-1.8C117.4,42.3,118.6,42,119.9,42z M119.9,56.8c1.5,0,2.5-0.5,3.2-1.5c0.7-1,1-2.4,1-4.3
				c0-1.9-0.3-3.3-1-4.3c-0.7-1-1.8-1.5-3.2-1.5c-1.5,0-2.6,0.5-3.3,1.5c-0.7,1-1.1,2.4-1.1,4.3c0,1.9,0.4,3.3,1.1,4.3
				C117.4,56.3,118.4,56.8,119.9,56.8z"/>
			<path class="st1" d="M142.8,45.7c-0.1,0.2-0.2,0.3-0.4,0.4c-0.1,0.1-0.3,0.1-0.5,0.1c-0.2,0-0.4-0.1-0.7-0.2
				c-0.2-0.1-0.5-0.2-0.8-0.4c-0.3-0.1-0.7-0.3-1-0.4c-0.4-0.1-0.9-0.2-1.4-0.2c-0.8,0-1.5,0.2-2,0.5c-0.5,0.4-0.7,0.8-0.7,1.4
				c0,0.4,0.1,0.7,0.4,0.9c0.2,0.3,0.6,0.5,1,0.7c0.4,0.2,0.9,0.4,1.4,0.5c0.5,0.2,1,0.3,1.6,0.5c0.5,0.2,1,0.4,1.6,0.6
				c0.5,0.2,1,0.5,1.4,0.9s0.7,0.8,1,1.3c0.2,0.5,0.4,1.1,0.4,1.8c0,0.8-0.2,1.6-0.5,2.3c-0.3,0.7-0.7,1.3-1.3,1.8
				c-0.6,0.5-1.3,0.9-2.2,1.2c-0.9,0.3-1.9,0.4-3,0.4c-0.6,0-1.2-0.1-1.8-0.2c-0.6-0.1-1.1-0.3-1.7-0.5c-0.5-0.2-1-0.4-1.5-0.7
				c-0.4-0.3-0.8-0.5-1.2-0.9l1-1.6c0.1-0.2,0.3-0.3,0.4-0.4c0.2-0.1,0.4-0.2,0.6-0.2c0.3,0,0.5,0.1,0.7,0.2
				c0.2,0.1,0.5,0.3,0.8,0.5c0.3,0.2,0.7,0.3,1.1,0.5c0.4,0.1,0.9,0.2,1.6,0.2c0.5,0,0.9-0.1,1.3-0.2c0.4-0.1,0.7-0.3,0.9-0.5
				c0.2-0.2,0.4-0.4,0.5-0.7c0.1-0.3,0.2-0.5,0.2-0.8c0-0.4-0.1-0.7-0.4-1c-0.2-0.3-0.6-0.5-1-0.7c-0.4-0.2-0.9-0.4-1.4-0.5
				s-1-0.3-1.6-0.5c-0.5-0.2-1.1-0.4-1.6-0.6c-0.5-0.2-1-0.6-1.4-0.9c-0.4-0.4-0.7-0.8-1-1.4c-0.2-0.5-0.4-1.2-0.4-2
				c0-0.7,0.1-1.4,0.4-2c0.3-0.6,0.7-1.2,1.3-1.7c0.6-0.5,1.2-0.9,2.1-1.2c0.8-0.3,1.8-0.4,2.9-0.4c1.2,0,2.3,0.2,3.3,0.6
				c1,0.4,1.8,0.9,2.5,1.6L142.8,45.7z"/>
			<path class="st1" d="M153.3,60.1c-1.5,0-2.7-0.4-3.5-1.3c-0.8-0.9-1.2-2-1.2-3.6v-9.8h-1.8c-0.2,0-0.4-0.1-0.6-0.2
				c-0.2-0.1-0.2-0.4-0.2-0.7v-1.7l2.8-0.5l0.9-4.8c0.1-0.2,0.2-0.4,0.3-0.5c0.2-0.1,0.4-0.2,0.6-0.2h2.2v5.5h4.7v3h-4.7V55
				c0,0.5,0.1,1,0.4,1.3c0.3,0.3,0.6,0.5,1.1,0.5c0.3,0,0.5,0,0.7-0.1c0.2-0.1,0.3-0.1,0.5-0.2c0.1-0.1,0.2-0.1,0.3-0.2
				c0.1-0.1,0.2-0.1,0.3-0.1c0.1,0,0.2,0,0.3,0.1c0.1,0.1,0.2,0.2,0.3,0.3l1.3,2c-0.6,0.5-1.3,0.9-2.1,1.2
				C155,60,154.1,60.1,153.3,60.1z"/>
			<path class="st1" d="M168.7,44.8c2-1.8,4.4-2.8,7.3-2.8c1,0,1.9,0.2,2.7,0.5c0.8,0.3,1.5,0.8,2,1.4c0.6,0.6,1,1.3,1.3,2.1
				c0.3,0.8,0.4,1.7,0.4,2.7v11h-1.9c-0.4,0-0.7-0.1-0.9-0.2c-0.2-0.1-0.4-0.4-0.5-0.7l-0.4-1.3c-0.4,0.4-0.9,0.7-1.3,1
				c-0.4,0.3-0.9,0.6-1.3,0.8c-0.5,0.2-0.9,0.4-1.5,0.5c-0.5,0.1-1.1,0.2-1.7,0.2c-0.7,0-1.4-0.1-2-0.3c-0.6-0.2-1.2-0.5-1.6-0.9
				c-0.5-0.4-0.8-0.9-1.1-1.5c-0.3-0.6-0.4-1.3-0.4-2.1c0-0.4,0.1-0.9,0.2-1.3c0.1-0.4,0.4-0.9,0.7-1.3c0.3-0.4,0.8-0.8,1.3-1.1
				c0.5-0.4,1.2-0.7,2-0.9c0.8-0.3,1.7-0.5,2.7-0.6c1-0.2,2.2-0.3,3.5-0.3v-1c0-1.2-0.3-2-0.8-2.6s-1.2-0.8-2.2-0.8
				c-0.7,0-1.2,0.1-1.7,0.2c-0.4,0.2-0.8,0.3-1.2,0.5c-0.3,0.2-0.7,0.4-0.9,0.5c-0.3,0.2-0.6,0.2-0.9,0.2c-0.3,0-0.5-0.1-0.8-0.2
				c-0.2-0.2-0.4-0.3-0.5-0.5L168.7,44.8z M178.3,52.3c-1.2,0.1-2.2,0.2-3.1,0.3c-0.8,0.2-1.5,0.3-2,0.6c-0.5,0.2-0.9,0.5-1.1,0.8
				c-0.2,0.3-0.3,0.7-0.3,1c0,0.7,0.2,1.3,0.7,1.6c0.4,0.3,1,0.5,1.7,0.5c0.9,0,1.6-0.2,2.2-0.5c0.6-0.3,1.2-0.8,1.9-1.4V52.3z"/>
			<path class="st1" d="M201.2,60.1c-1.5,0-2.7-0.4-3.5-1.3c-0.8-0.9-1.2-2-1.2-3.6v-9.8h-1.8c-0.2,0-0.4-0.1-0.6-0.2
				s-0.2-0.4-0.2-0.7v-1.7l2.8-0.5l0.9-4.8c0.1-0.2,0.2-0.4,0.3-0.5c0.2-0.1,0.4-0.2,0.6-0.2h2.2v5.5h4.7v3h-4.7V55
				c0,0.5,0.1,1,0.4,1.3c0.3,0.3,0.6,0.5,1.1,0.5c0.3,0,0.5,0,0.7-0.1c0.2-0.1,0.3-0.1,0.5-0.2c0.1-0.1,0.2-0.1,0.3-0.2
				c0.1-0.1,0.2-0.1,0.3-0.1c0.1,0,0.2,0,0.3,0.1c0.1,0.1,0.2,0.2,0.3,0.3l1.3,2c-0.6,0.5-1.3,0.9-2.1,1.2
				C202.9,60,202.1,60.1,201.2,60.1z"/>
			<path class="st1" d="M208,44.8c2-1.8,4.4-2.8,7.3-2.8c1,0,1.9,0.2,2.7,0.5c0.8,0.3,1.5,0.8,2,1.4c0.6,0.6,1,1.3,1.3,2.1
				c0.3,0.8,0.4,1.7,0.4,2.7v11h-1.9c-0.4,0-0.7-0.1-0.9-0.2c-0.2-0.1-0.4-0.4-0.5-0.7l-0.4-1.3c-0.4,0.4-0.9,0.7-1.3,1
				c-0.4,0.3-0.9,0.6-1.3,0.8c-0.5,0.2-0.9,0.4-1.5,0.5c-0.5,0.1-1.1,0.2-1.7,0.2c-0.7,0-1.4-0.1-2-0.3c-0.6-0.2-1.2-0.5-1.6-0.9
				c-0.5-0.4-0.8-0.9-1.1-1.5c-0.3-0.6-0.4-1.3-0.4-2.1c0-0.4,0.1-0.9,0.2-1.3c0.1-0.4,0.4-0.9,0.7-1.3c0.3-0.4,0.8-0.8,1.3-1.1
				c0.5-0.4,1.2-0.7,2-0.9c0.8-0.3,1.7-0.5,2.7-0.6c1-0.2,2.2-0.3,3.5-0.3v-1c0-1.2-0.3-2-0.8-2.6s-1.2-0.8-2.2-0.8
				c-0.7,0-1.2,0.1-1.7,0.2c-0.4,0.2-0.8,0.3-1.2,0.5c-0.3,0.2-0.7,0.4-0.9,0.5c-0.3,0.2-0.6,0.2-0.9,0.2c-0.3,0-0.5-0.1-0.8-0.2
				c-0.2-0.2-0.4-0.3-0.5-0.5L208,44.8z M217.6,52.3c-1.2,0.1-2.2,0.2-3.1,0.3c-0.8,0.2-1.5,0.3-2,0.6c-0.5,0.2-0.9,0.5-1.1,0.8
				c-0.2,0.3-0.3,0.7-0.3,1c0,0.7,0.2,1.3,0.7,1.6c0.4,0.3,1,0.5,1.7,0.5c0.9,0,1.6-0.2,2.2-0.5c0.6-0.3,1.2-0.8,1.9-1.4V52.3z"/>
			<path class="st1" d="M236.7,45.7c-0.1,0.2-0.2,0.3-0.4,0.4c-0.1,0.1-0.3,0.1-0.5,0.1c-0.2,0-0.4-0.1-0.7-0.2
				c-0.2-0.1-0.5-0.2-0.8-0.4c-0.3-0.1-0.7-0.3-1-0.4c-0.4-0.1-0.9-0.2-1.4-0.2c-0.8,0-1.5,0.2-2,0.5c-0.5,0.4-0.7,0.8-0.7,1.4
				c0,0.4,0.1,0.7,0.4,0.9c0.2,0.3,0.6,0.5,1,0.7c0.4,0.2,0.9,0.4,1.4,0.5c0.5,0.2,1,0.3,1.6,0.5c0.5,0.2,1,0.4,1.6,0.6
				c0.5,0.2,1,0.5,1.4,0.9s0.7,0.8,1,1.3c0.2,0.5,0.4,1.1,0.4,1.8c0,0.8-0.2,1.6-0.5,2.3c-0.3,0.7-0.7,1.3-1.3,1.8
				c-0.6,0.5-1.3,0.9-2.2,1.2c-0.9,0.3-1.9,0.4-3,0.4c-0.6,0-1.2-0.1-1.8-0.2c-0.6-0.1-1.1-0.3-1.7-0.5c-0.5-0.2-1-0.4-1.5-0.7
				c-0.4-0.3-0.8-0.5-1.2-0.9l1-1.6c0.1-0.2,0.3-0.3,0.4-0.4c0.2-0.1,0.4-0.2,0.6-0.2c0.3,0,0.5,0.1,0.7,0.2
				c0.2,0.1,0.5,0.3,0.8,0.5c0.3,0.2,0.7,0.3,1.1,0.5c0.4,0.1,0.9,0.2,1.6,0.2c0.5,0,0.9-0.1,1.3-0.2c0.4-0.1,0.7-0.3,0.9-0.5
				c0.2-0.2,0.4-0.4,0.5-0.7c0.1-0.3,0.2-0.5,0.2-0.8c0-0.4-0.1-0.7-0.4-1c-0.2-0.3-0.6-0.5-1-0.7s-0.9-0.4-1.4-0.5
				c-0.5-0.2-1-0.3-1.6-0.5c-0.5-0.2-1.1-0.4-1.6-0.6c-0.5-0.2-1-0.6-1.4-0.9c-0.4-0.4-0.7-0.8-1-1.4c-0.2-0.5-0.4-1.2-0.4-2
				c0-0.7,0.1-1.4,0.4-2c0.3-0.6,0.7-1.2,1.3-1.7c0.6-0.5,1.2-0.9,2.1-1.2c0.8-0.3,1.8-0.4,2.9-0.4c1.2,0,2.3,0.2,3.3,0.6
				c1,0.4,1.8,0.9,2.5,1.6L236.7,45.7z"/>
			<path class="st1" d="M245.6,34.5V49h0.8c0.3,0,0.5,0,0.7-0.1c0.2-0.1,0.3-0.2,0.5-0.5l4.3-5.4c0.2-0.2,0.4-0.4,0.6-0.5
				c0.2-0.1,0.5-0.2,0.9-0.2h3.9l-5.4,6.5c-0.4,0.5-0.8,0.9-1.3,1.2c0.2,0.2,0.5,0.4,0.6,0.6c0.2,0.2,0.4,0.5,0.5,0.7l5.8,8.5h-3.8
				c-0.3,0-0.6-0.1-0.9-0.2c-0.2-0.1-0.4-0.3-0.6-0.6l-4.5-6.6c-0.2-0.3-0.3-0.4-0.5-0.5c-0.2-0.1-0.4-0.1-0.8-0.1h-1v8h-4.2V34.5
				H245.6z"/>
		</g>
	</g>
</g>
<g>
</g>
<g>
</g>
<g>
</g>
<g>
</g>
<g>
</g>
<g>
</g>
</svg>
