<?xml version="1.0" encoding="utf-8"?>
<!-- Generator: Adobe Illustrator 21.1.0, SVG Export Plug-In . SVG Version: 6.00 Build 0)  -->
<svg version="1.1" id="Layer_1" xmlns="http://www.w3.org/2000/svg" xmlns:xlink="http://www.w3.org/1999/xlink" x="0px" y="0px"
	 viewBox="0 0 130 130" style="enable-background:new 0 0 130 130;" xml:space="preserve">
<style type="text/css">
	.st0{fill:#4F748C;}
	.st1{fill:url(#SVGID_1_);}
	.st2{fill:#FFFFFF;}
</style>
<g>
	<circle class="st0" cx="65" cy="65" r="65"/>
	<linearGradient id="SVGID_1_" gradientUnits="userSpaceOnUse" x1="51.7293" y1="52.1557" x2="110.7437" y2="111.1701">
		<stop  offset="0" style="stop-color:#6A889D"/>
		<stop  offset="0.1809" style="stop-color:#738EA2"/>
		<stop  offset="0.4985" style="stop-color:#8BA0B2"/>
		<stop  offset="0.9128" style="stop-color:#B5C4CF"/>
		<stop  offset="1" style="stop-color:#BFCDD6"/>
	</linearGradient>
	<path class="st1" d="M67,36.9l-1.5,1.5l0,20.2l-2,0.6l2.7,2.7l-4.7,4.7l-2.7-2.7l-22,3.8l56,56c13.4-6.3,24.2-17.1,30.7-30.4
		L67,36.9z"/>
	<path class="st2" d="M65.7,71c2.7,0,4.9-2.2,4.9-4.9c0-0.4,0-0.7-0.1-1c-0.2-0.9-0.7-1.8-1.4-2.4c-0.9-0.9-2.1-1.4-3.4-1.4
		c-1.3,0-2.5,0.5-3.4,1.4c-0.7,0.7-1.1,1.5-1.4,2.4c-0.1,0.3-0.1,0.7-0.1,1C60.9,68.8,63,71,65.7,71z"/>
	<path class="st2" d="M65.7,58.8c0.8,0,1.6,0.1,2.3,0.4V38.8c0-1.3-1-2.3-2.3-2.3c-1.3,0-2.3,1-2.3,2.3v20.4
		C64.2,58.9,64.9,58.8,65.7,58.8z"/>
	<path class="st2" d="M65.7,73.5c-0.8,0-1.6-0.1-2.3-0.4v20.4c0,1.3,1,2.3,2.3,2.3c1.3,0,2.3-1,2.3-2.3V73.1
		C67.3,73.3,66.5,73.5,65.7,73.5z"/>
	<path class="st2" d="M58.4,66.1c0-0.5,0.1-1,0.2-1.6c0.1-0.2,0.1-0.5,0.2-0.7H38.4c-1.3,0-2.3,1-2.3,2.3s1,2.3,2.3,2.3h20.4
		C58.6,67.7,58.4,66.9,58.4,66.1z"/>
	<path class="st2" d="M93.1,63.8H72.7c0.1,0.2,0.2,0.5,0.2,0.7c0.1,0.5,0.2,1.1,0.2,1.6c0,0.8-0.1,1.6-0.4,2.3h20.4
		c1.3,0,2.3-1,2.3-2.3S94.3,63.8,93.1,63.8z"/>
</g>
<g>
</g>
<g>
</g>
<g>
</g>
<g>
</g>
<g>
</g>
<g>
</g>
</svg>
