<?xml version="1.0" encoding="utf-8"?>
<!-- Generator: Adobe Illustrator 21.1.0, SVG Export Plug-In . SVG Version: 6.00 Build 0)  -->
<svg version="1.1" id="Layer_1" xmlns="http://www.w3.org/2000/svg" xmlns:xlink="http://www.w3.org/1999/xlink" x="0px" y="0px"
	 viewBox="0 0 300 200" style="enable-background:new 0 0 300 200;" xml:space="preserve">
<style type="text/css">
	.st0{fill:#BFCDD6;}
	.st1{fill:url(#SVGID_1_);}
	.st2{fill:#4F748C;}
	.st3{fill:#FFFFFF;}
</style>
<g>
	<path class="st0" d="M273.6,200H26.4C11.8,200,0,188.2,0,173.6V26.4C0,11.8,11.8,0,26.4,0h247.2C288.2,0,300,11.8,300,26.4v147.2
		C300,188.2,288.2,200,273.6,200z"/>
	<linearGradient id="SVGID_1_" gradientUnits="userSpaceOnUse" x1="174.371" y1="36.8253" x2="230.006" y2="217.9289">
		<stop  offset="0" style="stop-color:#7290A3"/>
		<stop  offset="0.2185" style="stop-color:#7D99AA"/>
		<stop  offset="0.602" style="stop-color:#9AB0BE"/>
		<stop  offset="1" style="stop-color:#BFCDD6"/>
	</linearGradient>
	<path class="st1" d="M300,173v-17.8L191.8,42.3l-7-3.6l-74.4,80.5l78.4,80.8h85.4C288.4,200,300,187.9,300,173z"/>
	<g>
		<g>
			<circle class="st2" cx="150" cy="80.3" r="55.9"/>
			<g>
				<g>
					<rect x="127" y="64" class="st3" width="20.5" height="20.5"/>
					<rect x="152.5" y="64" class="st3" width="20.5" height="20.5"/>
					<rect x="127" y="89.5" class="st3" width="20.5" height="20.5"/>
					<rect x="152.5" y="89.5" class="st3" width="20.5" height="20.5"/>
				</g>
				<path class="st3" d="M150.2,58.4c2.3,0,4.2-1.9,4.2-4.2c0-0.3,0-0.6-0.1-0.9c-0.2-0.8-0.6-1.5-1.2-2.1c-0.7-0.7-1.8-1.2-2.9-1.2
					c-1.1,0-2.2,0.5-2.9,1.2c-0.6,0.6-1,1.3-1.2,2.1c-0.1,0.3-0.1,0.6-0.1,0.9C146,56.5,147.9,58.4,150.2,58.4z"/>
				<path class="st3" d="M156,58.5l8.7-5.8c0.7-0.5,1.6-0.2,1.9,0.6l2,5.4c0.3,0.8-0.3,1.7-1.1,1.7l-10.7,0.4
					C155.5,60.9,154.9,59.2,156,58.5z"/>
				<path class="st3" d="M144.4,58.5l-8.7-5.8c-0.7-0.5-1.6-0.2-1.9,0.6l-2,5.4c-0.3,0.8,0.3,1.7,1.1,1.7l10.7,0.4
					C144.9,60.9,145.4,59.2,144.4,58.5z"/>
			</g>
		</g>
		<g>
			<path class="st3" d="M112.7,160.4c0.4-0.7,0.8-1.2,1.3-1.6c0.5-0.4,1.1-0.6,1.8-0.6c0.5,0,1,0.1,1.3,0.3l-0.2,2.1
				c0,0.1-0.1,0.2-0.2,0.3c-0.1,0.1-0.2,0.1-0.3,0.1c-0.1,0-0.3,0-0.5-0.1c-0.2,0-0.4-0.1-0.6-0.1c-0.3,0-0.6,0-0.8,0.1
				c-0.2,0.1-0.5,0.2-0.6,0.4c-0.2,0.2-0.4,0.4-0.5,0.6c-0.1,0.2-0.3,0.5-0.4,0.8v7.1h-2.8v-11.6h1.6c0.3,0,0.5,0.1,0.6,0.2
				c0.1,0.1,0.2,0.3,0.2,0.5L112.7,160.4z"/>
			<path class="st3" d="M120.7,164.6c0,0.6,0.2,1.1,0.3,1.5c0.2,0.4,0.4,0.8,0.7,1.1c0.3,0.3,0.6,0.5,1,0.6c0.4,0.1,0.8,0.2,1.2,0.2
				s0.8-0.1,1.2-0.2c0.3-0.1,0.6-0.2,0.9-0.3c0.2-0.1,0.5-0.2,0.6-0.3c0.2-0.1,0.4-0.2,0.5-0.2c0.2,0,0.4,0.1,0.5,0.3l0.8,1
				c-0.3,0.4-0.7,0.7-1,0.9c-0.4,0.2-0.8,0.4-1.2,0.6c-0.4,0.1-0.8,0.2-1.3,0.3c-0.4,0.1-0.9,0.1-1.3,0.1c-0.8,0-1.6-0.1-2.2-0.4
				c-0.7-0.3-1.3-0.7-1.8-1.2c-0.5-0.5-0.9-1.2-1.2-1.9c-0.3-0.8-0.4-1.7-0.4-2.7c0-0.8,0.1-1.5,0.4-2.2c0.3-0.7,0.6-1.3,1.1-1.8
				s1.1-0.9,1.7-1.2c0.7-0.3,1.5-0.5,2.3-0.5c0.7,0,1.4,0.1,2,0.3c0.6,0.2,1.1,0.6,1.6,1c0.4,0.4,0.8,1,1,1.6
				c0.3,0.7,0.4,1.4,0.4,2.2c0,0.4,0,0.7-0.1,0.9c-0.1,0.1-0.3,0.2-0.5,0.2H120.7z M126,162.9c0-0.4-0.1-0.7-0.2-1
				c-0.1-0.3-0.3-0.6-0.5-0.8c-0.2-0.2-0.5-0.4-0.8-0.6c-0.3-0.1-0.7-0.2-1.1-0.2c-0.8,0-1.4,0.2-1.9,0.7c-0.5,0.5-0.8,1.1-0.9,2
				H126z"/>
			<path class="st3" d="M147.3,158.4l-3.7,11.6h-2.2c-0.3,0-0.4-0.2-0.5-0.5l-2.1-6.7c-0.1-0.2-0.1-0.5-0.2-0.7s-0.1-0.4-0.1-0.7
				c0,0.2-0.1,0.5-0.2,0.7s-0.1,0.5-0.2,0.7l-2.1,6.7c-0.1,0.3-0.3,0.5-0.6,0.5h-2.1l-3.7-11.6h2.2c0.2,0,0.4,0,0.5,0.1
				c0.1,0.1,0.2,0.2,0.3,0.4l1.7,6.2c0.1,0.3,0.2,0.7,0.2,1c0.1,0.3,0.1,0.6,0.2,1c0.1-0.3,0.2-0.6,0.3-1c0.1-0.3,0.2-0.7,0.3-1
				l1.9-6.2c0-0.2,0.1-0.3,0.3-0.4c0.1-0.1,0.3-0.1,0.5-0.1h1.2c0.2,0,0.4,0,0.5,0.1c0.1,0.1,0.2,0.2,0.3,0.4l1.9,6.2
				c0.1,0.3,0.2,0.7,0.3,1c0.1,0.3,0.2,0.7,0.3,1c0.1-0.6,0.2-1.3,0.4-2l1.7-6.2c0.1-0.2,0.1-0.3,0.3-0.4c0.1-0.1,0.3-0.1,0.5-0.1
				H147.3z"/>
			<path class="st3" d="M148.8,160.1c1.3-1.2,2.9-1.8,4.8-1.8c0.7,0,1.3,0.1,1.8,0.3s1,0.5,1.4,0.9s0.6,0.9,0.8,1.4
				c0.2,0.5,0.3,1.2,0.3,1.8v7.3h-1.3c-0.3,0-0.5,0-0.6-0.1c-0.1-0.1-0.3-0.2-0.3-0.5l-0.2-0.8c-0.3,0.3-0.6,0.5-0.9,0.7
				c-0.3,0.2-0.6,0.4-0.9,0.5c-0.3,0.1-0.6,0.2-1,0.3c-0.3,0.1-0.7,0.1-1.1,0.1c-0.5,0-0.9-0.1-1.4-0.2c-0.4-0.1-0.8-0.3-1.1-0.6
				c-0.3-0.3-0.5-0.6-0.7-1c-0.2-0.4-0.2-0.8-0.2-1.4c0-0.3,0-0.6,0.1-0.9c0.1-0.3,0.3-0.6,0.5-0.8c0.2-0.3,0.5-0.5,0.9-0.7
				c0.4-0.2,0.8-0.4,1.3-0.6c0.5-0.2,1.1-0.3,1.8-0.4c0.7-0.1,1.5-0.2,2.3-0.2v-0.7c0-0.8-0.2-1.3-0.5-1.7s-0.8-0.6-1.4-0.6
				c-0.5,0-0.8,0.1-1.1,0.2s-0.6,0.2-0.8,0.4s-0.4,0.2-0.6,0.4c-0.2,0.1-0.4,0.2-0.6,0.2c-0.2,0-0.4-0.1-0.5-0.2s-0.2-0.2-0.3-0.4
				L148.8,160.1z M155.1,165.1c-0.8,0-1.5,0.1-2,0.2s-1,0.2-1.3,0.4s-0.6,0.3-0.7,0.6c-0.1,0.2-0.2,0.4-0.2,0.7c0,0.5,0.1,0.8,0.4,1
				c0.3,0.2,0.7,0.3,1.1,0.3c0.6,0,1.1-0.1,1.5-0.3c0.4-0.2,0.8-0.5,1.2-0.9V165.1z"/>
			<path class="st3" d="M163.5,160.4c0.4-0.7,0.8-1.2,1.3-1.6c0.5-0.4,1.1-0.6,1.8-0.6c0.5,0,1,0.1,1.3,0.3l-0.2,2.1
				c0,0.1-0.1,0.2-0.2,0.3c-0.1,0.1-0.2,0.1-0.3,0.1c-0.1,0-0.3,0-0.5-0.1c-0.2,0-0.4-0.1-0.6-0.1c-0.3,0-0.6,0-0.8,0.1
				c-0.2,0.1-0.5,0.2-0.6,0.4c-0.2,0.2-0.4,0.4-0.5,0.6c-0.1,0.2-0.3,0.5-0.4,0.8v7.1h-2.8v-11.6h1.6c0.3,0,0.5,0.1,0.6,0.2
				c0.1,0.1,0.2,0.3,0.2,0.5L163.5,160.4z"/>
			<path class="st3" d="M179.3,153.2V170h-1.7c-0.4,0-0.6-0.2-0.7-0.5l-0.2-1.1c-0.5,0.5-1,1-1.6,1.3c-0.6,0.3-1.3,0.5-2.1,0.5
				c-0.6,0-1.2-0.1-1.7-0.4s-1-0.6-1.4-1.1c-0.4-0.5-0.7-1.1-0.9-1.9c-0.2-0.7-0.3-1.6-0.3-2.5c0-0.9,0.1-1.7,0.3-2.4
				c0.2-0.7,0.6-1.4,1-1.9c0.4-0.5,1-1,1.6-1.3c0.6-0.3,1.3-0.5,2.1-0.5c0.6,0,1.2,0.1,1.7,0.3c0.5,0.2,0.9,0.5,1.2,0.8v-6.1H179.3z
				 M176.5,161.4c-0.3-0.4-0.7-0.7-1-0.8c-0.4-0.2-0.8-0.2-1.2-0.2c-0.4,0-0.8,0.1-1.1,0.2c-0.3,0.2-0.6,0.4-0.9,0.7
				c-0.2,0.3-0.4,0.7-0.6,1.2c-0.1,0.5-0.2,1.1-0.2,1.7c0,0.7,0.1,1.3,0.2,1.7c0.1,0.5,0.3,0.9,0.5,1.2s0.5,0.5,0.7,0.6
				c0.3,0.1,0.6,0.2,1,0.2c0.6,0,1.1-0.1,1.5-0.4c0.4-0.2,0.8-0.6,1.2-1V161.4z"/>
			<path class="st3" d="M189.5,160.7c-0.1,0.1-0.2,0.2-0.2,0.3c-0.1,0-0.2,0.1-0.3,0.1c-0.1,0-0.3,0-0.4-0.1s-0.3-0.2-0.5-0.3
				s-0.4-0.2-0.7-0.3s-0.6-0.1-0.9-0.1c-0.5,0-1,0.1-1.3,0.3s-0.5,0.5-0.5,0.9c0,0.2,0.1,0.5,0.2,0.6c0.2,0.2,0.4,0.3,0.6,0.4
				c0.3,0.1,0.6,0.2,0.9,0.3c0.3,0.1,0.7,0.2,1,0.3s0.7,0.3,1,0.4c0.3,0.2,0.6,0.3,0.9,0.6c0.3,0.2,0.5,0.5,0.6,0.9s0.2,0.7,0.2,1.2
				c0,0.6-0.1,1.1-0.3,1.5s-0.5,0.9-0.9,1.2c-0.4,0.3-0.9,0.6-1.5,0.8c-0.6,0.2-1.2,0.3-2,0.3c-0.4,0-0.8,0-1.2-0.1
				s-0.7-0.2-1.1-0.3s-0.7-0.3-1-0.5c-0.3-0.2-0.6-0.4-0.8-0.6l0.6-1.1c0.1-0.1,0.2-0.2,0.3-0.3c0.1-0.1,0.3-0.1,0.4-0.1
				c0.2,0,0.3,0,0.5,0.1s0.3,0.2,0.5,0.3c0.2,0.1,0.4,0.2,0.7,0.3c0.3,0.1,0.6,0.1,1,0.1c0.3,0,0.6,0,0.9-0.1
				c0.2-0.1,0.4-0.2,0.6-0.3s0.3-0.3,0.3-0.4c0.1-0.2,0.1-0.3,0.1-0.5c0-0.3-0.1-0.5-0.2-0.7c-0.2-0.2-0.4-0.3-0.6-0.5
				c-0.3-0.1-0.6-0.2-0.9-0.3s-0.7-0.2-1-0.3s-0.7-0.3-1-0.4c-0.3-0.2-0.6-0.4-0.9-0.6s-0.5-0.6-0.6-0.9c-0.2-0.4-0.2-0.8-0.2-1.3
				c0-0.5,0.1-0.9,0.3-1.4c0.2-0.4,0.5-0.8,0.8-1.1c0.4-0.3,0.8-0.6,1.4-0.8c0.5-0.2,1.2-0.3,1.9-0.3c0.8,0,1.5,0.1,2.2,0.4
				s1.2,0.6,1.6,1L189.5,160.7z"/>
		</g>
	</g>
</g>
<g>
</g>
<g>
</g>
<g>
</g>
<g>
</g>
<g>
</g>
<g>
</g>
</svg>
