<?xml version="1.0" encoding="utf-8"?>
<!-- Generator: Adobe Illustrator 21.1.0, SVG Export Plug-In . SVG Version: 6.00 Build 0)  -->
<svg version="1.1" id="Layer_1" xmlns="http://www.w3.org/2000/svg" xmlns:xlink="http://www.w3.org/1999/xlink" x="0px" y="0px"
	 viewBox="0 0 130 130" style="enable-background:new 0 0 130 130;" xml:space="preserve">
<style type="text/css">
	.st0{fill:#4F748C;}
	.st1{fill:url(#SVGID_1_);}
	.st2{fill:#FFFFFF;}
	.st3{fill:#E9B8A8;}
</style>
<g>
	<circle class="st0" cx="65" cy="65" r="65"/>
	<linearGradient id="SVGID_1_" gradientUnits="userSpaceOnUse" x1="40.4749" y1="42.7962" x2="109.7958" y2="112.117">
		<stop  offset="0" style="stop-color:#6A889D"/>
		<stop  offset="0.1809" style="stop-color:#738EA2"/>
		<stop  offset="0.4985" style="stop-color:#8BA0B2"/>
		<stop  offset="0.9128" style="stop-color:#B5C4CF"/>
		<stop  offset="1" style="stop-color:#BFCDD6"/>
	</linearGradient>
	<path class="st1" d="M86.8,38.6l-4.1-3.2l-1,1.1l1,4.3l6.3,2.4l-0.4,12.9L70.1,37.6l-29.6,5.1l-3,36.2l5,8.8l-9,11.3l31,31
		c0.1,0,0.2,0,0.3,0c34.5,0,62.7-26.9,64.9-60.8L89.4,28.7l-0.1,5H87L86.8,38.6z"/>
	<path class="st2" d="M66.8,36.2H38.1c-2.5,0-4.5,2-4.5,4.5V99h37.7V40.7C71.3,38.2,69.3,36.2,66.8,36.2z M44.1,82.6L58.7,68
		c0.2,0.2,0.4,0.4,0.6,0.6c0.4,0.4,0.7,0.8,1.1,1.2L45.9,84.3C45.2,83.8,44.6,83.3,44.1,82.6z M47.4,51.9c0.2-0.9,0.7-1.8,1.4-2.4
		c0.9-0.9,2.1-1.4,3.4-1.4c1.3,0,2.5,0.5,3.4,1.4c0.7,0.7,1.1,1.5,1.4,2.4c0.1,0.3,0.1,0.7,0.1,1c0,2.7-2.2,4.9-4.9,4.9
		c-2.7,0-4.9-2.2-4.9-4.9C47.2,52.5,47.3,52.2,47.4,51.9z M42,73.8c0.4-2,1.5-3.8,2.9-5.2c1.9-1.8,4.4-3,7.3-3
		c1.6,0,3.2,0.4,4.5,1.1L42.8,80.5c-0.7-1.4-1.1-2.9-1.1-4.5C41.7,75.2,41.8,74.5,42,73.8z M52.1,86.4c-1.4,0-2.8-0.3-4-0.8L61.7,72
		c0.2,0.6,0.4,1.2,0.6,1.8c0.2,0.7,0.3,1.5,0.3,2.2C62.5,81.7,57.9,86.4,52.1,86.4z"/>
	<path class="st2" d="M88,39.3c1.3,0,2.3-1,2.3-2.3v-6.5c0-1.3-1-2.3-2.3-2.3c-1.3,0-2.3,1-2.3,2.3V37C85.7,38.3,86.8,39.3,88,39.3z
		"/>
	<path class="st2" d="M95.5,97.2l-6-1.6v-52c3.3-0.7,5.8-3.6,5.8-7.1c0-0.7-0.5-1.2-1.2-1.2c-0.7,0-1.2,0.5-1.2,1.2
		c0,2.5-2,4.6-4.4,4.8c-0.1,0-0.1,0-0.2,0c-0.1,0-0.2,0-0.3,0c-2.6,0-4.8-2.2-4.8-4.8c0-0.7-0.5-1.2-1.2-1.2c-0.7,0-1.2,0.5-1.2,1.2
		c0,3.7,2.7,6.7,6.3,7.2v51.9l-6.6,1.7c-0.7,0.2-1,0.8-0.9,1.5c0.1,0.6,0.6,0.9,1.2,0.9c0.1,0,0.2,0,0.3,0l7.2-1.8l6.6,1.8
		c0.1,0,0.2,0,0.3,0c0.5,0,1-0.4,1.2-0.9C96.5,98,96.1,97.3,95.5,97.2z"/>
	<path class="st3" d="M55.6,49.5c0.7,0.7,1.1,1.5,1.4,2.4c0.1,0.3,0.1,0.7,0.1,1c0,2.7-2.2,4.9-4.9,4.9c-2.7,0-4.9-2.2-4.9-4.9
		c0-0.4,0-0.7,0.1-1c0.2-0.9,0.7-1.8,1.4-2.4c0.9-0.9,2.1-1.4,3.4-1.4C53.5,48.1,54.7,48.6,55.6,49.5"/>
</g>
<g>
</g>
<g>
</g>
<g>
</g>
<g>
</g>
<g>
</g>
<g>
</g>
</svg>
