<?xml version="1.0" encoding="utf-8"?>
<!-- Generator: Adobe Illustrator 21.1.0, SVG Export Plug-In . SVG Version: 6.00 Build 0)  -->
<svg version="1.1" id="Layer_1" xmlns="http://www.w3.org/2000/svg" xmlns:xlink="http://www.w3.org/1999/xlink" x="0px" y="0px"
	 viewBox="0 0 130 130" style="enable-background:new 0 0 130 130;" xml:space="preserve">
<style type="text/css">
	.st0{fill:#BFCDD6;}
	.st1{fill:url(#SVGID_1_);}
	.st2{fill:#FFFFFF;}
	.st3{fill:#E9B8A8;}
</style>
<g>
	<circle class="st0" cx="65" cy="65" r="65"/>
	<linearGradient id="SVGID_1_" gradientUnits="userSpaceOnUse" x1="52.5026" y1="46.4579" x2="125.5013" y2="119.4566">
		<stop  offset="0" style="stop-color:#6A889D"/>
		<stop  offset="0.1809" style="stop-color:#738EA2"/>
		<stop  offset="0.4985" style="stop-color:#8BA0B2"/>
		<stop  offset="0.9128" style="stop-color:#B5C4CF"/>
		<stop  offset="1" style="stop-color:#BFCDD6"/>
	</linearGradient>
	<path class="st1" d="M84.3,127.1c23.6-7.3,41.4-27.7,45-52.7l-19.7-19.7l-1.7,0.1C98.1,45,75.5,22.4,75.1,22L61.4,32L61.5,51
		L57,52.6l4.5,4.5l-44.9,2.2L84.3,127.1z"/>
	<path class="st2" d="M62.5,37.6v10.8c0,0.4,0.2,0.8,0.5,1l3.2,2.5c0.2,0.1,0.2,0.3,0.1,0.5s-0.2,0.3-0.4,0.3h-8.5
		c-0.2,0-0.4-0.1-0.4-0.3c-0.1-0.2,0-0.4,0.1-0.5l3.1-2.5c0.3-0.3,0.5-0.6,0.5-1V37.5c0-0.7-0.2-1.3-0.7-1.8L48.4,22.5
		c-0.1-0.1-0.1-0.3-0.1-0.5c0.1-0.2,0.2-0.3,0.4-0.3h26c0.2,0,0.3,0.1,0.4,0.3s0,0.4-0.1,0.5L63.2,35.7
		C62.8,36.2,62.5,36.9,62.5,37.6z"/>
	<path class="st2" d="M109.7,56.5v-1.7H15.4v1.7c0,2.1,1.7,3.8,3.8,3.8h86.6C107.9,60.3,109.7,58.6,109.7,56.5z"/>
	<path class="st2" d="M34.4,63C57,63,58.8,78.7,66.4,78.7S76.4,63,85.8,63c6.9,0-6.9,7.5-6.9,14.4s4.4,9.4,4.4,9.4v10.7
		c0,0-17.6-0.6-24.5-8.2c-3.4-3.7-5.7-12.1-10-16.3c-5-5-11.3-5.7-14.4-7.5C32.5,64.4,33.1,63,34.4,63z"/>
	<rect x="86.3" y="86.9" class="st2" width="15.1" height="22.6"/>
	<path class="st3" d="M93.8,107c2.1,0,3.9-1.7,3.9-3.9c0-0.3,0-0.6-0.1-0.8c-0.2-0.7-0.5-1.4-1.1-1.9c-0.7-0.7-1.6-1.1-2.7-1.1
		c-1,0-2,0.4-2.7,1.1c-0.5,0.5-0.9,1.2-1.1,1.9c-0.1,0.3-0.1,0.5-0.1,0.8C89.9,105.3,91.6,107,93.8,107z"/>
</g>
<g>
</g>
<g>
</g>
<g>
</g>
<g>
</g>
<g>
</g>
<g>
</g>
</svg>
